<svg class="main-svg" xmlns="http://www.w3.org/2000/svg" xmlns:xlink="http://www.w3.org/1999/xlink" width="900" height="500" style="" viewBox="0 0 900 500"><rect x="0" y="0" width="900" height="500" style="fill: rgb(255, 255, 255); fill-opacity: 1;"/><defs id="defs-c39b17"><g class="clips"><clipPath id="clipc39b17xyplot" class="plotclip"><rect width="609" height="360"/></clipPath><clipPath class="axesclip" id="clipc39b17x"><rect x="80" y="0" width="609" height="500"/></clipPath><clipPath class="axesclip" id="clipc39b17y"><rect x="0" y="60" width="900" height="360"/></clipPath><clipPath class="axesclip" id="clipc39b17xy"><rect x="80" y="60" width="609" height="360"/></clipPath></g><g class="gradients"/><g class="patterns"/></defs><g class="bglayer"><rect class="bg" x="80" y="60" width="609" height="360" style="fill: rgb(229, 236, 246); fill-opacity: 1; stroke-width: 0;"/></g><g class="layer-below"><g class="imagelayer"/><g class="shapelayer"/></g><g class="cartesianlayer"><g class="subplot xy"><g class="layer-subplot"><g class="shapelayer"/><g class="imagelayer"/></g><g class="minor-gridlayer"><g class="x"/><g class="y"/></g><g class="gridlayer"><g class="x"><path class="xgrid crisp" transform="translate(114.2,0)" d="M0,60v360" style="stroke: rgb(255, 255, 255); stroke-opacity: 1; stroke-width: 1px;"/><path class="xgrid crisp" transform="translate(191.43,0)" d="M0,60v360" style="stroke: rgb(255, 255, 255); stroke-opacity: 1; stroke-width: 1px;"/><path class="xgrid crisp" transform="translate(268.65999999999997,0)" d="M0,60v360" style="stroke: rgb(255, 255, 255); stroke-opacity: 1; stroke-width: 1px;"/><path class="xgrid crisp" transform="translate(345.89,0)" d="M0,60v360" style="stroke: rgb(255, 255, 255); stroke-opacity: 1; stroke-width: 1px;"/><path class="xgrid crisp" transform="translate(423.11,0)" d="M0,60v360" style="stroke: rgb(255, 255, 255); stroke-opacity: 1; stroke-width: 1px;"/><path class="xgrid crisp" transform="translate(500.34,0)" d="M0,60v360" style="stroke: rgb(255, 255, 255); stroke-opacity: 1; stroke-width: 1px;"/><path class="xgrid crisp" transform="translate(577.5699999999999,0)" d="M0,60v360" style="stroke: rgb(255, 255, 255); stroke-opacity: 1; stroke-width: 1px;"/><path class="xgrid crisp" transform="translate(654.8,0)" d="M0,60v360" style="stroke: rgb(255, 255, 255); stroke-opacity: 1; stroke-width: 1px;"/></g><g class="y"><path class="ygrid crisp" transform="translate(0,368.99)" d="M80,0h609" style="stroke: rgb(255, 255, 255); stroke-opacity: 1; stroke-width: 1px;"/><path class="ygrid crisp" transform="translate(0,328.07)" d="M80,0h609" style="stroke: rgb(255, 255, 255); stroke-opacity: 1; stroke-width: 1px;"/><path class="ygrid crisp" transform="translate(0,299.03999999999996)" d="M80,0h609" style="stroke: rgb(255, 255, 255); stroke-opacity: 1; stroke-width: 1px;"/><path class="ygrid crisp" transform="translate(0,276.52)" d="M80,0h609" style="stroke: rgb(255, 255, 255); stroke-opacity: 1; stroke-width: 1px;"/><path class="ygrid crisp" transform="translate(0,258.12)" d="M80,0h609" style="stroke: rgb(255, 255, 255); stroke-opacity: 1; stroke-width: 1px;"/><path class="ygrid crisp" transform="translate(0,242.56)" d="M80,0h609" style="stroke: rgb(255, 255, 255); stroke-opacity: 1; stroke-width: 1px;"/><path class="ygrid crisp" transform="translate(0,229.09)" d="M80,0h609" style="stroke: rgb(255, 255, 255); stroke-opacity: 1; stroke-width: 1px;"/><path class="ygrid crisp" transform="translate(0,217.2)" d="M80,0h609" style="stroke: rgb(255, 255, 255); stroke-opacity: 1; stroke-width: 1px;"/><path class="ygrid crisp" transform="translate(0,206.57)" d="M80,0h609" style="stroke: rgb(255, 255, 255); stroke-opacity: 1; stroke-width: 1px;"/><path class="ygrid crisp" transform="translate(0,136.62)" d="M80,0h609" style="stroke: rgb(255, 255, 255); stroke-opacity: 1; stroke-width: 1px;"/><path class="ygrid crisp" transform="translate(0,95.7)" d="M80,0h609" style="stroke: rgb(255, 255, 255); stroke-opacity: 1; stroke-width: 1px;"/><path class="ygrid crisp" transform="translate(0,66.67)" d="M80,0h609" style="stroke: rgb(255, 255, 255); stroke-opacity: 1; stroke-width: 1px;"/></g></g><g class="zerolinelayer"/><g class="layer-between"><g class="shapelayer"/><g class="imagelayer"/></g><path class="xlines-below"/><path class="ylines-below"/><g class="overlines-below"/><g class="xaxislayer-below"/><g class="yaxislayer-below"/><g class="overaxes-below"/><g class="overplot"><g class="xy" transform="translate(80,60)" clip-path="url(#clipc39b17xyplot)"><g class="scatterlayer mlayer"><g class="trace scatter trace74924f" style="stroke-miterlimit: 2; opacity: 1;"><g class="fills"/><g class="errorbars"><g class="errorbar"><path class="yerror" d="M30.200000000000003,295.89h8m-4,0V318.43m-4,0h8" style="vector-effect: none; stroke-width: 2px; stroke: rgb(75, 0, 146); stroke-opacity: 1;"/></g><g class="errorbar"><path class="yerror" d="M107.43,313.34h8m-4,0V341.93m-4,0h8" style="vector-effect: none; stroke-width: 2px; stroke: rgb(75, 0, 146); stroke-opacity: 1;"/></g><g class="errorbar"><path class="yerror" d="M184.66,317.45h8m-4,0V331.64m-4,0h8" style="vector-effect: none; stroke-width: 2px; stroke: rgb(75, 0, 146); stroke-opacity: 1;"/></g><g class="errorbar"><path class="yerror" d="M261.89,322.03h8m-4,0V342m-4,0h8" style="vector-effect: none; stroke-width: 2px; stroke: rgb(75, 0, 146); stroke-opacity: 1;"/></g><g class="errorbar"><path class="yerror" d="M339.11,333.71h8m-4,0V337.23m-4,0h8" style="vector-effect: none; stroke-width: 2px; stroke: rgb(75, 0, 146); stroke-opacity: 1;"/></g><g class="errorbar"><path class="yerror" d="M416.34,305.67h8m-4,0V321.74m-4,0h8" style="vector-effect: none; stroke-width: 2px; stroke: rgb(75, 0, 146); stroke-opacity: 1;"/></g><g class="errorbar"><path class="yerror" d="M493.57,314.72h8m-4,0V323.59m-4,0h8" style="vector-effect: none; stroke-width: 2px; stroke: rgb(75, 0, 146); stroke-opacity: 1;"/></g><g class="errorbar"><path class="yerror" d="M570.8,333.93h8m-4,0V336.65m-4,0h8" style="vector-effect: none; stroke-width: 2px; stroke: rgb(75, 0, 146); stroke-opacity: 1;"/></g></g><g class="lines"><path class="js-line" d="M34.2,306.54L111.43,326.63L188.66,324.3L265.89,331.52L343.11,335.45L420.34,313.38L497.57,319.06L574.8,335.28" style="vector-effect: none; fill: none; stroke: rgb(75, 0, 146); stroke-opacity: 1; stroke-width: 2px; opacity: 1;"/></g><g class="points"><path class="point plotly-customdata" transform="translate(34.2,306.54)" d="M3,0A3,3 0 1,1 0,-3A3,3 0 0,1 3,0Z" style="opacity: 1; stroke-width: 0px; fill: rgb(75, 0, 146); fill-opacity: 1;"/><path class="point plotly-customdata" transform="translate(111.43,326.63)" d="M3,0A3,3 0 1,1 0,-3A3,3 0 0,1 3,0Z" style="opacity: 1; stroke-width: 0px; fill: rgb(75, 0, 146); fill-opacity: 1;"/><path class="point plotly-customdata" transform="translate(188.66,324.3)" d="M3,0A3,3 0 1,1 0,-3A3,3 0 0,1 3,0Z" style="opacity: 1; stroke-width: 0px; fill: rgb(75, 0, 146); fill-opacity: 1;"/><path class="point plotly-customdata" transform="translate(265.89,331.52)" d="M3,0A3,3 0 1,1 0,-3A3,3 0 0,1 3,0Z" style="opacity: 1; stroke-width: 0px; fill: rgb(75, 0, 146); fill-opacity: 1;"/><path class="point plotly-customdata" transform="translate(343.11,335.45)" d="M3,0A3,3 0 1,1 0,-3A3,3 0 0,1 3,0Z" style="opacity: 1; stroke-width: 0px; fill: rgb(75, 0, 146); fill-opacity: 1;"/><path class="point plotly-customdata" transform="translate(420.34,313.38)" d="M3,0A3,3 0 1,1 0,-3A3,3 0 0,1 3,0Z" style="opacity: 1; stroke-width: 0px; fill: rgb(75, 0, 146); fill-opacity: 1;"/><path class="point plotly-customdata" transform="translate(497.57,319.06)" d="M3,0A3,3 0 1,1 0,-3A3,3 0 0,1 3,0Z" style="opacity: 1; stroke-width: 0px; fill: rgb(75, 0, 146); fill-opacity: 1;"/><path class="point plotly-customdata" transform="translate(574.8,335.28)" d="M3,0A3,3 0 1,1 0,-3A3,3 0 0,1 3,0Z" style="opacity: 1; stroke-width: 0px; fill: rgb(75, 0, 146); fill-opacity: 1;"/></g><g class="text"/></g><g class="trace scatter trace165c63" style="stroke-miterlimit: 2; opacity: 1;"><g class="fills"/><g class="errorbars"><g class="errorbar"><path class="yerror" d="M30.200000000000003,291.12h8m-4,0V307.18m-4,0h8" style="vector-effect: none; stroke-width: 2px; stroke: rgb(17, 119, 51); stroke-opacity: 1;"/></g><g class="errorbar"><path class="yerror" d="M107.43,286.38h8m-4,0V299.55m-4,0h8" style="vector-effect: none; stroke-width: 2px; stroke: rgb(17, 119, 51); stroke-opacity: 1;"/></g><g class="errorbar"><path class="yerror" d="M184.66,302.85h8m-4,0V318.45m-4,0h8" style="vector-effect: none; stroke-width: 2px; stroke: rgb(17, 119, 51); stroke-opacity: 1;"/></g><g class="errorbar"><path class="yerror" d="M261.89,309.24h8m-4,0V335.32m-4,0h8" style="vector-effect: none; stroke-width: 2px; stroke: rgb(17, 119, 51); stroke-opacity: 1;"/></g><g class="errorbar"><path class="yerror" d="M339.11,298.77h8m-4,0V309.41m-4,0h8" style="vector-effect: none; stroke-width: 2px; stroke: rgb(17, 119, 51); stroke-opacity: 1;"/></g><g class="errorbar"><path class="yerror" d="M416.34,291.78h8m-4,0V298.13m-4,0h8" style="vector-effect: none; stroke-width: 2px; stroke: rgb(17, 119, 51); stroke-opacity: 1;"/></g><g class="errorbar"><path class="yerror" d="M493.57,287.36h8m-4,0V292.65m-4,0h8" style="vector-effect: none; stroke-width: 2px; stroke: rgb(17, 119, 51); stroke-opacity: 1;"/></g><g class="errorbar"><path class="yerror" d="M570.8,286.49h8m-4,0V291.48m-4,0h8" style="vector-effect: none; stroke-width: 2px; stroke: rgb(17, 119, 51); stroke-opacity: 1;"/></g></g><g class="lines"><path class="js-line" d="M34.2,298.83L111.43,292.75L188.66,310.35L265.89,321.44L343.11,303.95L420.34,294.91L497.57,289.97L574.8,288.96" style="vector-effect: none; fill: none; stroke: rgb(17, 119, 51); stroke-opacity: 1; stroke-width: 2px; opacity: 1;"/></g><g class="points"><path class="point plotly-customdata" transform="translate(34.2,298.83)" d="M3,0A3,3 0 1,1 0,-3A3,3 0 0,1 3,0Z" style="opacity: 1; stroke-width: 0px; fill: rgb(17, 119, 51); fill-opacity: 1;"/><path class="point plotly-customdata" transform="translate(111.43,292.75)" d="M3,0A3,3 0 1,1 0,-3A3,3 0 0,1 3,0Z" style="opacity: 1; stroke-width: 0px; fill: rgb(17, 119, 51); fill-opacity: 1;"/><path class="point plotly-customdata" transform="translate(188.66,310.35)" d="M3,0A3,3 0 1,1 0,-3A3,3 0 0,1 3,0Z" style="opacity: 1; stroke-width: 0px; fill: rgb(17, 119, 51); fill-opacity: 1;"/><path class="point plotly-customdata" transform="translate(265.89,321.44)" d="M3,0A3,3 0 1,1 0,-3A3,3 0 0,1 3,0Z" style="opacity: 1; stroke-width: 0px; fill: rgb(17, 119, 51); fill-opacity: 1;"/><path class="point plotly-customdata" transform="translate(343.11,303.95)" d="M3,0A3,3 0 1,1 0,-3A3,3 0 0,1 3,0Z" style="opacity: 1; stroke-width: 0px; fill: rgb(17, 119, 51); fill-opacity: 1;"/><path class="point plotly-customdata" transform="translate(420.34,294.91)" d="M3,0A3,3 0 1,1 0,-3A3,3 0 0,1 3,0Z" style="opacity: 1; stroke-width: 0px; fill: rgb(17, 119, 51); fill-opacity: 1;"/><path class="point plotly-customdata" transform="translate(497.57,289.97)" d="M3,0A3,3 0 1,1 0,-3A3,3 0 0,1 3,0Z" style="opacity: 1; stroke-width: 0px; fill: rgb(17, 119, 51); fill-opacity: 1;"/><path class="point plotly-customdata" transform="translate(574.8,288.96)" d="M3,0A3,3 0 1,1 0,-3A3,3 0 0,1 3,0Z" style="opacity: 1; stroke-width: 0px; fill: rgb(17, 119, 51); fill-opacity: 1;"/></g><g class="text"/></g><g class="trace scatter tracee38104" style="stroke-miterlimit: 2; opacity: 1;"><g class="fills"/><g class="errorbars"><g class="errorbar"><path class="yerror" d="M30.200000000000003,263.44h8m-4,0V267.13m-4,0h8" style="vector-effect: none; stroke-width: 2px; stroke: rgb(255, 176, 0); stroke-opacity: 1;"/></g><g class="errorbar"><path class="yerror" d="M107.43,264.31h8m-4,0V267.06m-4,0h8" style="vector-effect: none; stroke-width: 2px; stroke: rgb(255, 176, 0); stroke-opacity: 1;"/></g><g class="errorbar"><path class="yerror" d="M184.66,252.2h8m-4,0V260.36m-4,0h8" style="vector-effect: none; stroke-width: 2px; stroke: rgb(255, 176, 0); stroke-opacity: 1;"/></g><g class="errorbar"><path class="yerror" d="M261.89,264.55h8m-4,0V267.54m-4,0h8" style="vector-effect: none; stroke-width: 2px; stroke: rgb(255, 176, 0); stroke-opacity: 1;"/></g><g class="errorbar"><path class="yerror" d="M339.11,205.13h8m-4,0V249.11m-4,0h8" style="vector-effect: none; stroke-width: 2px; stroke: rgb(255, 176, 0); stroke-opacity: 1;"/></g><g class="errorbar"><path class="yerror" d="M416.34,258.39h8m-4,0V260.25m-4,0h8" style="vector-effect: none; stroke-width: 2px; stroke: rgb(255, 176, 0); stroke-opacity: 1;"/></g><g class="errorbar"><path class="yerror" d="M493.57,262.88h8m-4,0V265.18m-4,0h8" style="vector-effect: none; stroke-width: 2px; stroke: rgb(255, 176, 0); stroke-opacity: 1;"/></g><g class="errorbar"><path class="yerror" d="M570.8,262.41h8m-4,0V265.44m-4,0h8" style="vector-effect: none; stroke-width: 2px; stroke: rgb(255, 176, 0); stroke-opacity: 1;"/></g></g><g class="lines"><path class="js-line" d="M34.2,265.27L111.43,265.68L188.66,256.19L265.89,266.03L343.11,224.74L420.34,259.31L497.57,264.02L574.8,263.91" style="vector-effect: none; fill: none; stroke: rgb(255, 176, 0); stroke-opacity: 1; stroke-width: 2px; opacity: 1;"/></g><g class="points"><path class="point plotly-customdata" transform="translate(34.2,265.27)" d="M3,0A3,3 0 1,1 0,-3A3,3 0 0,1 3,0Z" style="opacity: 1; stroke-width: 0px; fill: rgb(255, 176, 0); fill-opacity: 1;"/><path class="point plotly-customdata" transform="translate(111.43,265.68)" d="M3,0A3,3 0 1,1 0,-3A3,3 0 0,1 3,0Z" style="opacity: 1; stroke-width: 0px; fill: rgb(255, 176, 0); fill-opacity: 1;"/><path class="point plotly-customdata" transform="translate(188.66,256.19)" d="M3,0A3,3 0 1,1 0,-3A3,3 0 0,1 3,0Z" style="opacity: 1; stroke-width: 0px; fill: rgb(255, 176, 0); fill-opacity: 1;"/><path class="point plotly-customdata" transform="translate(265.89,266.03)" d="M3,0A3,3 0 1,1 0,-3A3,3 0 0,1 3,0Z" style="opacity: 1; stroke-width: 0px; fill: rgb(255, 176, 0); fill-opacity: 1;"/><path class="point plotly-customdata" transform="translate(343.11,224.74)" d="M3,0A3,3 0 1,1 0,-3A3,3 0 0,1 3,0Z" style="opacity: 1; stroke-width: 0px; fill: rgb(255, 176, 0); fill-opacity: 1;"/><path class="point plotly-customdata" transform="translate(420.34,259.31)" d="M3,0A3,3 0 1,1 0,-3A3,3 0 0,1 3,0Z" style="opacity: 1; stroke-width: 0px; fill: rgb(255, 176, 0); fill-opacity: 1;"/><path class="point plotly-customdata" transform="translate(497.57,264.02)" d="M3,0A3,3 0 1,1 0,-3A3,3 0 0,1 3,0Z" style="opacity: 1; stroke-width: 0px; fill: rgb(255, 176, 0); fill-opacity: 1;"/><path class="point plotly-customdata" transform="translate(574.8,263.91)" d="M3,0A3,3 0 1,1 0,-3A3,3 0 0,1 3,0Z" style="opacity: 1; stroke-width: 0px; fill: rgb(255, 176, 0); fill-opacity: 1;"/></g><g class="text"/></g><g class="trace scatter traceb7c798" style="stroke-miterlimit: 2; opacity: 1;"><g class="fills"/><g class="errorbars"><g class="errorbar"><path class="yerror" d="M30.200000000000003,305.11h8m-4,0V309.24m-4,0h8" style="vector-effect: none; stroke-width: 2px; stroke: rgb(255, 68, 48); stroke-opacity: 1;"/></g><g class="errorbar"><path class="yerror" d="M107.43,288.04h8m-4,0V309.2m-4,0h8" style="vector-effect: none; stroke-width: 2px; stroke: rgb(255, 68, 48); stroke-opacity: 1;"/></g><g class="errorbar"><path class="yerror" d="M184.66,293.26h8m-4,0V304.93m-4,0h8" style="vector-effect: none; stroke-width: 2px; stroke: rgb(255, 68, 48); stroke-opacity: 1;"/></g><g class="errorbar"><path class="yerror" d="M261.89,284.67h8m-4,0V310.54m-4,0h8" style="vector-effect: none; stroke-width: 2px; stroke: rgb(255, 68, 48); stroke-opacity: 1;"/></g><g class="errorbar"><path class="yerror" d="M339.11,278.52h8m-4,0V305.96m-4,0h8" style="vector-effect: none; stroke-width: 2px; stroke: rgb(255, 68, 48); stroke-opacity: 1;"/></g><g class="errorbar"><path class="yerror" d="M416.34,271.86h8m-4,0V305.71m-4,0h8" style="vector-effect: none; stroke-width: 2px; stroke: rgb(255, 68, 48); stroke-opacity: 1;"/></g><g class="errorbar"><path class="yerror" d="M493.57,307.8h8m-4,0V309.71m-4,0h8" style="vector-effect: none; stroke-width: 2px; stroke: rgb(255, 68, 48); stroke-opacity: 1;"/></g><g class="errorbar"><path class="yerror" d="M570.8,308.17h8m-4,0V309.94m-4,0h8" style="vector-effect: none; stroke-width: 2px; stroke: rgb(255, 68, 48); stroke-opacity: 1;"/></g></g><g class="lines"><path class="js-line" d="M34.2,307.15L111.43,298.06L188.66,298.92L265.89,296.77L343.11,291.31L420.34,287.37L497.57,308.76L574.8,309.05" style="vector-effect: none; fill: none; stroke: rgb(255, 68, 48); stroke-opacity: 1; stroke-width: 2px; opacity: 1;"/></g><g class="points"><path class="point plotly-customdata" transform="translate(34.2,307.15)" d="M3,0A3,3 0 1,1 0,-3A3,3 0 0,1 3,0Z" style="opacity: 1; stroke-width: 0px; fill: rgb(255, 68, 48); fill-opacity: 1;"/><path class="point plotly-customdata" transform="translate(111.43,298.06)" d="M3,0A3,3 0 1,1 0,-3A3,3 0 0,1 3,0Z" style="opacity: 1; stroke-width: 0px; fill: rgb(255, 68, 48); fill-opacity: 1;"/><path class="point plotly-customdata" transform="translate(188.66,298.92)" d="M3,0A3,3 0 1,1 0,-3A3,3 0 0,1 3,0Z" style="opacity: 1; stroke-width: 0px; fill: rgb(255, 68, 48); fill-opacity: 1;"/><path class="point plotly-customdata" transform="translate(265.89,296.77)" d="M3,0A3,3 0 1,1 0,-3A3,3 0 0,1 3,0Z" style="opacity: 1; stroke-width: 0px; fill: rgb(255, 68, 48); fill-opacity: 1;"/><path class="point plotly-customdata" transform="translate(343.11,291.31)" d="M3,0A3,3 0 1,1 0,-3A3,3 0 0,1 3,0Z" style="opacity: 1; stroke-width: 0px; fill: rgb(255, 68, 48); fill-opacity: 1;"/><path class="point plotly-customdata" transform="translate(420.34,287.37)" d="M3,0A3,3 0 1,1 0,-3A3,3 0 0,1 3,0Z" style="opacity: 1; stroke-width: 0px; fill: rgb(255, 68, 48); fill-opacity: 1;"/><path class="point plotly-customdata" transform="translate(497.57,308.76)" d="M3,0A3,3 0 1,1 0,-3A3,3 0 0,1 3,0Z" style="opacity: 1; stroke-width: 0px; fill: rgb(255, 68, 48); fill-opacity: 1;"/><path class="point plotly-customdata" transform="translate(574.8,309.05)" d="M3,0A3,3 0 1,1 0,-3A3,3 0 0,1 3,0Z" style="opacity: 1; stroke-width: 0px; fill: rgb(255, 68, 48); fill-opacity: 1;"/></g><g class="text"/></g><g class="trace scatter traceabb892" style="stroke-miterlimit: 2; opacity: 1;"><g class="fills"/><g class="errorbars"><g class="errorbar"><path class="yerror" d="M30.200000000000003,235.57h8m-4,0V237.07m-4,0h8" style="vector-effect: none; stroke-width: 2px; stroke: rgb(86, 180, 233); stroke-opacity: 1;"/></g><g class="errorbar"><path class="yerror" d="M107.43,238.12h8m-4,0V259.4m-4,0h8" style="vector-effect: none; stroke-width: 2px; stroke: rgb(86, 180, 233); stroke-opacity: 1;"/></g><g class="errorbar"><path class="yerror" d="M184.66,236.66h8m-4,0V242.44m-4,0h8" style="vector-effect: none; stroke-width: 2px; stroke: rgb(86, 180, 233); stroke-opacity: 1;"/></g><g class="errorbar"><path class="yerror" d="M261.89,220.82h8m-4,0V254.98m-4,0h8" style="vector-effect: none; stroke-width: 2px; stroke: rgb(86, 180, 233); stroke-opacity: 1;"/></g><g class="errorbar"><path class="yerror" d="M339.11,236.77h8m-4,0V240.73m-4,0h8" style="vector-effect: none; stroke-width: 2px; stroke: rgb(86, 180, 233); stroke-opacity: 1;"/></g><g class="errorbar"><path class="yerror" d="M416.34,243.47h8m-4,0V273m-4,0h8" style="vector-effect: none; stroke-width: 2px; stroke: rgb(86, 180, 233); stroke-opacity: 1;"/></g><g class="errorbar"><path class="yerror" d="M493.57,235.56h8m-4,0V236.2m-4,0h8" style="vector-effect: none; stroke-width: 2px; stroke: rgb(86, 180, 233); stroke-opacity: 1;"/></g><g class="errorbar"><path class="yerror" d="M570.8,237.42h8m-4,0V255.95m-4,0h8" style="vector-effect: none; stroke-width: 2px; stroke: rgb(86, 180, 233); stroke-opacity: 1;"/></g></g><g class="lines"><path class="js-line" d="M34.2,236.31L111.43,248.2L188.66,239.51L265.89,236.46L343.11,238.73L420.34,257.16L497.57,235.88L574.8,246.26" style="vector-effect: none; fill: none; stroke: rgb(86, 180, 233); stroke-opacity: 1; stroke-width: 2px; opacity: 1;"/></g><g class="points"><path class="point plotly-customdata" transform="translate(34.2,236.31)" d="M3,0A3,3 0 1,1 0,-3A3,3 0 0,1 3,0Z" style="opacity: 1; stroke-width: 0px; fill: rgb(86, 180, 233); fill-opacity: 1;"/><path class="point plotly-customdata" transform="translate(111.43,248.2)" d="M3,0A3,3 0 1,1 0,-3A3,3 0 0,1 3,0Z" style="opacity: 1; stroke-width: 0px; fill: rgb(86, 180, 233); fill-opacity: 1;"/><path class="point plotly-customdata" transform="translate(188.66,239.51)" d="M3,0A3,3 0 1,1 0,-3A3,3 0 0,1 3,0Z" style="opacity: 1; stroke-width: 0px; fill: rgb(86, 180, 233); fill-opacity: 1;"/><path class="point plotly-customdata" transform="translate(265.89,236.46)" d="M3,0A3,3 0 1,1 0,-3A3,3 0 0,1 3,0Z" style="opacity: 1; stroke-width: 0px; fill: rgb(86, 180, 233); fill-opacity: 1;"/><path class="point plotly-customdata" transform="translate(343.11,238.73)" d="M3,0A3,3 0 1,1 0,-3A3,3 0 0,1 3,0Z" style="opacity: 1; stroke-width: 0px; fill: rgb(86, 180, 233); fill-opacity: 1;"/><path class="point plotly-customdata" transform="translate(420.34,257.16)" d="M3,0A3,3 0 1,1 0,-3A3,3 0 0,1 3,0Z" style="opacity: 1; stroke-width: 0px; fill: rgb(86, 180, 233); fill-opacity: 1;"/><path class="point plotly-customdata" transform="translate(497.57,235.88)" d="M3,0A3,3 0 1,1 0,-3A3,3 0 0,1 3,0Z" style="opacity: 1; stroke-width: 0px; fill: rgb(86, 180, 233); fill-opacity: 1;"/><path class="point plotly-customdata" transform="translate(574.8,246.26)" d="M3,0A3,3 0 1,1 0,-3A3,3 0 0,1 3,0Z" style="opacity: 1; stroke-width: 0px; fill: rgb(86, 180, 233); fill-opacity: 1;"/></g><g class="text"/></g><g class="trace scatter trace6b3d9b" style="stroke-miterlimit: 2; opacity: 1;"><g class="fills"/><g class="errorbars"><g class="errorbar"><path class="yerror" d="M30.200000000000003,55.77h8m-4,0V178.82m-4,0h8" style="vector-effect: none; stroke-width: 2px; stroke: rgb(171, 2, 158); stroke-opacity: 1;"/></g><g class="errorbar"><path class="yerror" d="M107.43,52.24h8m-4,0V180.28m-4,0h8" style="vector-effect: none; stroke-width: 2px; stroke: rgb(171, 2, 158); stroke-opacity: 1;"/></g><g class="errorbar"><path class="yerror" d="M184.66,51.3h8m-4,0V173.19m-4,0h8" style="vector-effect: none; stroke-width: 2px; stroke: rgb(171, 2, 158); stroke-opacity: 1;"/></g><g class="errorbar"><path class="yerror" d="M261.89,53.59h8m-4,0V170.05m-4,0h8" style="vector-effect: none; stroke-width: 2px; stroke: rgb(171, 2, 158); stroke-opacity: 1;"/></g><g class="errorbar"><path class="yerror" d="M339.11,45.57h8m-4,0V153.63m-4,0h8" style="vector-effect: none; stroke-width: 2px; stroke: rgb(171, 2, 158); stroke-opacity: 1;"/></g><g class="errorbar"><path class="yerror" d="M416.34,45.59h8m-4,0V144.94m-4,0h8" style="vector-effect: none; stroke-width: 2px; stroke: rgb(171, 2, 158); stroke-opacity: 1;"/></g><g class="errorbar"><path class="yerror" d="M493.57,18h8m-4,0V112.71m-4,0h8" style="vector-effect: none; stroke-width: 2px; stroke: rgb(171, 2, 158); stroke-opacity: 1;"/></g><g class="errorbar"><path class="yerror" d="M570.8,43.03h8m-4,0V138.73m-4,0h8" style="vector-effect: none; stroke-width: 2px; stroke: rgb(171, 2, 158); stroke-opacity: 1;"/></g></g><g class="lines"><path class="js-line" d="M34.2,99.6L188.66,94.86L265.89,95.88L343.11,85.78L420.34,83.51L497.57,54.63L574.8,79.94" style="vector-effect: none; fill: none; stroke: rgb(171, 2, 158); stroke-opacity: 1; stroke-width: 2px; opacity: 1;"/></g><g class="points"><path class="point plotly-customdata" transform="translate(34.2,99.6)" d="M3,0A3,3 0 1,1 0,-3A3,3 0 0,1 3,0Z" style="opacity: 1; stroke-width: 0px; fill: rgb(171, 2, 158); fill-opacity: 1;"/><path class="point plotly-customdata" transform="translate(111.43,97.19)" d="M3,0A3,3 0 1,1 0,-3A3,3 0 0,1 3,0Z" style="opacity: 1; stroke-width: 0px; fill: rgb(171, 2, 158); fill-opacity: 1;"/><path class="point plotly-customdata" transform="translate(188.66,94.86)" d="M3,0A3,3 0 1,1 0,-3A3,3 0 0,1 3,0Z" style="opacity: 1; stroke-width: 0px; fill: rgb(171, 2, 158); fill-opacity: 1;"/><path class="point plotly-customdata" transform="translate(265.89,95.88)" d="M3,0A3,3 0 1,1 0,-3A3,3 0 0,1 3,0Z" style="opacity: 1; stroke-width: 0px; fill: rgb(171, 2, 158); fill-opacity: 1;"/><path class="point plotly-customdata" transform="translate(343.11,85.78)" d="M3,0A3,3 0 1,1 0,-3A3,3 0 0,1 3,0Z" style="opacity: 1; stroke-width: 0px; fill: rgb(171, 2, 158); fill-opacity: 1;"/><path class="point plotly-customdata" transform="translate(420.34,83.51)" d="M3,0A3,3 0 1,1 0,-3A3,3 0 0,1 3,0Z" style="opacity: 1; stroke-width: 0px; fill: rgb(171, 2, 158); fill-opacity: 1;"/><path class="point plotly-customdata" transform="translate(497.57,54.63)" d="M3,0A3,3 0 1,1 0,-3A3,3 0 0,1 3,0Z" style="opacity: 1; stroke-width: 0px; fill: rgb(171, 2, 158); fill-opacity: 1;"/><path class="point plotly-customdata" transform="translate(574.8,79.94)" d="M3,0A3,3 0 1,1 0,-3A3,3 0 0,1 3,0Z" style="opacity: 1; stroke-width: 0px; fill: rgb(171, 2, 158); fill-opacity: 1;"/></g><g class="text"/></g></g></g></g><path class="xlines-above crisp" d="M0,0" style="fill: none;"/><path class="ylines-above crisp" d="M0,0" style="fill: none;"/><g class="overlines-above"/><g class="xaxislayer-above"><g class="xtick"><text text-anchor="middle" x="0" y="433" transform="translate(114.2,0)" style="font-family: 'Open Sans', verdana, arial, sans-serif; font-size: 12px; fill: rgb(42, 63, 95); fill-opacity: 1; white-space: pre; opacity: 1;">None None</text></g><g class="xtick"><text text-anchor="middle" x="0" y="433" transform="translate(191.43,0)" style="font-family: 'Open Sans', verdana, arial, sans-serif; font-size: 12px; fill: rgb(42, 63, 95); fill-opacity: 1; white-space: pre; opacity: 1;">1280.0 MB</text></g><g class="xtick"><text text-anchor="middle" x="0" y="433" transform="translate(268.65999999999997,0)" style="font-family: 'Open Sans', verdana, arial, sans-serif; font-size: 12px; fill: rgb(42, 63, 95); fill-opacity: 1; white-space: pre; opacity: 1;">640.0 MB</text></g><g class="xtick"><text text-anchor="middle" x="0" y="433" transform="translate(345.89,0)" style="font-family: 'Open Sans', verdana, arial, sans-serif; font-size: 12px; fill: rgb(42, 63, 95); fill-opacity: 1; white-space: pre; opacity: 1;">320.0 MB</text></g><g class="xtick"><text text-anchor="middle" x="0" y="433" transform="translate(423.11,0)" style="font-family: 'Open Sans', verdana, arial, sans-serif; font-size: 12px; fill: rgb(42, 63, 95); fill-opacity: 1; white-space: pre; opacity: 1;">160.0 MB</text></g><g class="xtick"><text text-anchor="middle" x="0" y="433" transform="translate(500.34,0)" style="font-family: 'Open Sans', verdana, arial, sans-serif; font-size: 12px; fill: rgb(42, 63, 95); fill-opacity: 1; white-space: pre; opacity: 1;">80.0 MB</text></g><g class="xtick"><text text-anchor="middle" x="0" y="433" transform="translate(577.5699999999999,0)" style="font-family: 'Open Sans', verdana, arial, sans-serif; font-size: 12px; fill: rgb(42, 63, 95); fill-opacity: 1; white-space: pre; opacity: 1;">40.0 MB</text></g><g class="xtick"><text text-anchor="middle" x="0" y="433" transform="translate(654.8,0)" style="font-family: 'Open Sans', verdana, arial, sans-serif; font-size: 12px; fill: rgb(42, 63, 95); fill-opacity: 1; white-space: pre; opacity: 1;">20.0 MB</text></g></g><g class="yaxislayer-above"><g class="ytick"><text text-anchor="end" x="79" y="3.15" transform="translate(0,368.99)" style="font-family: 'Open Sans', verdana, arial, sans-serif; font-size: 9px; fill: rgb(42, 63, 95); fill-opacity: 1; white-space: pre; opacity: 1;">2</text></g><g class="ytick"><text text-anchor="end" x="79" y="3.15" style="font-family: 'Open Sans', verdana, arial, sans-serif; font-size: 9px; fill: rgb(42, 63, 95); fill-opacity: 1; white-space: pre; opacity: 1;" transform="translate(0,328.07)">3</text></g><g class="ytick"><text text-anchor="end" x="79" y="3.15" style="font-family: 'Open Sans', verdana, arial, sans-serif; font-size: 9px; fill: rgb(42, 63, 95); fill-opacity: 1; white-space: pre; opacity: 1;" transform="translate(0,299.03999999999996)">4</text></g><g class="ytick"><text text-anchor="end" x="79" y="3.15" style="font-family: 'Open Sans', verdana, arial, sans-serif; font-size: 9px; fill: rgb(42, 63, 95); fill-opacity: 1; white-space: pre; opacity: 1;" transform="translate(0,276.52)">5</text></g><g class="ytick"><text text-anchor="end" x="79" y="3.15" style="font-family: 'Open Sans', verdana, arial, sans-serif; font-size: 9px; fill: rgb(42, 63, 95); fill-opacity: 1; white-space: pre; opacity: 1;" transform="translate(0,258.12)">6</text></g><g class="ytick"><text text-anchor="end" x="79" y="3.15" style="font-family: 'Open Sans', verdana, arial, sans-serif; font-size: 9px; fill: rgb(42, 63, 95); fill-opacity: 1; white-space: pre; opacity: 1;" transform="translate(0,242.56)">7</text></g><g class="ytick"><text text-anchor="end" x="79" y="3.15" style="font-family: 'Open Sans', verdana, arial, sans-serif; font-size: 9px; fill: rgb(42, 63, 95); fill-opacity: 1; white-space: pre; opacity: 1;" transform="translate(0,229.09)">8</text></g><g class="ytick"><text text-anchor="end" x="79" y="3.15" style="font-family: 'Open Sans', verdana, arial, sans-serif; font-size: 9px; fill: rgb(42, 63, 95); fill-opacity: 1; white-space: pre; opacity: 1;" transform="translate(0,217.2)">9</text></g><g class="ytick"><text text-anchor="end" x="76" y="2.1999999999999993" style="font-family: 'Open Sans', verdana, arial, sans-serif; font-size: 12px; fill: rgb(42, 63, 95); fill-opacity: 1; white-space: pre; opacity: 1;" transform="translate(0,206.57)">10</text></g><g class="ytick"><text text-anchor="end" x="79" y="3.15" style="font-family: 'Open Sans', verdana, arial, sans-serif; font-size: 9px; fill: rgb(42, 63, 95); fill-opacity: 1; white-space: pre; opacity: 1;" transform="translate(0,136.62)">2</text></g><g class="ytick"><text text-anchor="end" x="79" y="3.15" style="font-family: 'Open Sans', verdana, arial, sans-serif; font-size: 9px; fill: rgb(42, 63, 95); fill-opacity: 1; white-space: pre; opacity: 1;" transform="translate(0,95.7)">3</text></g><g class="ytick"><text text-anchor="end" x="79" y="3.15" style="font-family: 'Open Sans', verdana, arial, sans-serif; font-size: 9px; fill: rgb(42, 63, 95); fill-opacity: 1; white-space: pre; opacity: 1;" transform="translate(0,66.67)">4</text></g></g><g class="overaxes-above"/></g></g><g class="polarlayer"/><g class="smithlayer"/><g class="ternarylayer"/><g class="geolayer"/><g class="funnelarealayer"/><g class="pielayer"/><g class="iciclelayer"/><g class="treemaplayer"/><g class="sunburstlayer"/><g class="glimages"/><defs id="topdefs-c39b17"><g class="clips"/><clipPath id="legendc39b17"><rect width="187" height="143" x="0" y="0"/></clipPath></defs><g class="layer-above"><g class="imagelayer"/><g class="shapelayer"/></g><g class="infolayer"><g class="legend" pointer-events="all" transform="translate(701.1800000000001,60)"><rect class="bg" shape-rendering="crispEdges" width="187" height="143" x="0" y="0" style="stroke: rgb(68, 68, 68); stroke-opacity: 1; fill: rgb(255, 255, 255); fill-opacity: 1; stroke-width: 0px;"/><g class="scrollbox" transform="" clip-path="url(#legendc39b17)"><text class="legendtitletext" text-anchor="start" x="2" y="18.2" style="font-family: 'Open Sans', verdana, arial, sans-serif; font-size: 14px; fill: rgb(42, 63, 95); fill-opacity: 1; white-space: pre;">engine</text><g class="groups" transform=""><g class="traces" transform="translate(0,32.7)" style="opacity: 1;"><text class="legendtext" text-anchor="start" x="40" y="4.680000000000001" style="font-family: 'Open Sans', verdana, arial, sans-serif; font-size: 12px; fill: rgb(42, 63, 95); fill-opacity: 1; white-space: pre;">netcdf4-python-parallel</text><g class="layers" style="opacity: 1;"><g class="legendfill"/><g class="legendlines"><path class="js-line" d="M5,0h30" style="fill: none; stroke: rgb(75, 0, 146); stroke-opacity: 1; stroke-width: 2px;"/></g><g class="legendsymbols"><g class="legendpoints"><path class="scatterpts" transform="translate(20,0)" d="M3,0A3,3 0 1,1 0,-3A3,3 0 0,1 3,0Z" style="opacity: 1; stroke-width: 0px; fill: rgb(75, 0, 146); fill-opacity: 1;"/></g></g></g><rect class="legendtoggle" x="0" y="-9.5" width="181.046875" height="19" style="fill: rgb(0, 0, 0); fill-opacity: 0;"/></g></g><g class="groups" transform=""><g class="traces" transform="translate(0,51.7)" style="opacity: 1;"><text class="legendtext" text-anchor="start" x="40" y="4.680000000000001" style="font-family: 'Open Sans', verdana, arial, sans-serif; font-size: 12px; fill: rgb(42, 63, 95); fill-opacity: 1; white-space: pre;">hdf5-python-parallel</text><g class="layers" style="opacity: 1;"><g class="legendfill"/><g class="legendlines"><path class="js-line" d="M5,0h30" style="fill: none; stroke: rgb(17, 119, 51); stroke-opacity: 1; stroke-width: 2px;"/></g><g class="legendsymbols"><g class="legendpoints"><path class="scatterpts" transform="translate(20,0)" d="M3,0A3,3 0 1,1 0,-3A3,3 0 0,1 3,0Z" style="opacity: 1; stroke-width: 0px; fill: rgb(17, 119, 51); fill-opacity: 1;"/></g></g></g><rect class="legendtoggle" x="0" y="-9.5" width="181.046875" height="19" style="fill: rgb(0, 0, 0); fill-opacity: 0;"/></g></g><g class="groups" transform=""><g class="traces" transform="translate(0,70.7)" style="opacity: 1;"><text class="legendtext" text-anchor="start" x="40" y="4.680000000000001" style="font-family: 'Open Sans', verdana, arial, sans-serif; font-size: 12px; fill: rgb(42, 63, 95); fill-opacity: 1; white-space: pre;">netcdf4-c-parallel</text><g class="layers" style="opacity: 1;"><g class="legendfill"/><g class="legendlines"><path class="js-line" d="M5,0h30" style="fill: none; stroke: rgb(255, 176, 0); stroke-opacity: 1; stroke-width: 2px;"/></g><g class="legendsymbols"><g class="legendpoints"><path class="scatterpts" transform="translate(20,0)" d="M3,0A3,3 0 1,1 0,-3A3,3 0 0,1 3,0Z" style="opacity: 1; stroke-width: 0px; fill: rgb(255, 176, 0); fill-opacity: 1;"/></g></g></g><rect class="legendtoggle" x="0" y="-9.5" width="181.046875" height="19" style="fill: rgb(0, 0, 0); fill-opacity: 0;"/></g></g><g class="groups" transform=""><g class="traces" transform="translate(0,89.7)" style="opacity: 1;"><text class="legendtext" text-anchor="start" x="40" y="4.680000000000001" style="font-family: 'Open Sans', verdana, arial, sans-serif; font-size: 12px; fill: rgb(42, 63, 95); fill-opacity: 1; white-space: pre;">hdf5-c-parallel</text><g class="layers" style="opacity: 1;"><g class="legendfill"/><g class="legendlines"><path class="js-line" d="M5,0h30" style="fill: none; stroke: rgb(255, 68, 48); stroke-opacity: 1; stroke-width: 2px;"/></g><g class="legendsymbols"><g class="legendpoints"><path class="scatterpts" transform="translate(20,0)" d="M3,0A3,3 0 1,1 0,-3A3,3 0 0,1 3,0Z" style="opacity: 1; stroke-width: 0px; fill: rgb(255, 68, 48); fill-opacity: 1;"/></g></g></g><rect class="legendtoggle" x="0" y="-9.5" width="181.046875" height="19" style="fill: rgb(0, 0, 0); fill-opacity: 0;"/></g></g><g class="groups" transform=""><g class="traces" transform="translate(0,108.7)" style="opacity: 1;"><text class="legendtext" text-anchor="start" x="40" y="4.680000000000001" style="font-family: 'Open Sans', verdana, arial, sans-serif; font-size: 12px; fill: rgb(42, 63, 95); fill-opacity: 1; white-space: pre;">hdf5-async</text><g class="layers" style="opacity: 1;"><g class="legendfill"/><g class="legendlines"><path class="js-line" d="M5,0h30" style="fill: none; stroke: rgb(86, 180, 233); stroke-opacity: 1; stroke-width: 2px;"/></g><g class="legendsymbols"><g class="legendpoints"><path class="scatterpts" transform="translate(20,0)" d="M3,0A3,3 0 1,1 0,-3A3,3 0 0,1 3,0Z" style="opacity: 1; stroke-width: 0px; fill: rgb(86, 180, 233); fill-opacity: 1;"/></g></g></g><rect class="legendtoggle" x="0" y="-9.5" width="181.046875" height="19" style="fill: rgb(0, 0, 0); fill-opacity: 0;"/></g></g><g class="groups" transform=""><g class="traces" transform="translate(0,127.7)" style="opacity: 1;"><text class="legendtext" text-anchor="start" x="40" y="4.680000000000001" style="font-family: 'Open Sans', verdana, arial, sans-serif; font-size: 12px; fill: rgb(42, 63, 95); fill-opacity: 1; white-space: pre;">hdf5-subfiling</text><g class="layers" style="opacity: 1;"><g class="legendfill"/><g class="legendlines"><path class="js-line" d="M5,0h30" style="fill: none; stroke: rgb(171, 2, 158); stroke-opacity: 1; stroke-width: 2px;"/></g><g class="legendsymbols"><g class="legendpoints"><path class="scatterpts" transform="translate(20,0)" d="M3,0A3,3 0 1,1 0,-3A3,3 0 0,1 3,0Z" style="opacity: 1; stroke-width: 0px; fill: rgb(171, 2, 158); fill-opacity: 1;"/></g></g></g><rect class="legendtoggle" x="0" y="-9.5" width="181.046875" height="19" style="fill: rgb(0, 0, 0); fill-opacity: 0;"/></g></g></g><rect class="scrollbar" rx="20" ry="3" width="0" height="0" x="0" y="0" style="fill: rgb(128, 139, 164); fill-opacity: 1;"/></g><g class="g-gtitle"/><g class="g-xtitle"><text class="xtitle" x="384.5" y="460.3" text-anchor="middle" style="opacity: 1; font-family: 'Open Sans', verdana, arial, sans-serif; font-size: 14px; fill: rgb(42, 63, 95); fill-opacity: 1; white-space: pre;">filesize per chunk</text></g><g class="g-ytitle"><text class="ytitle" transform="rotate(-90,41.31875,240)" x="41.31875" y="240" text-anchor="middle" style="opacity: 1; font-family: 'Open Sans', verdana, arial, sans-serif; font-size: 14px; fill: rgb(42, 63, 95); fill-opacity: 1; white-space: pre;">mean time in seconds (s)</text></g></g></svg>