<svg class="main-svg" xmlns="http://www.w3.org/2000/svg" xmlns:xlink="http://www.w3.org/1999/xlink" width="900" height="500" style="" viewBox="0 0 900 500"><rect x="0" y="0" width="900" height="500" style="fill: rgb(255, 255, 255); fill-opacity: 1;"/><defs id="defs-ce8898"><g class="clips"><clipPath id="clipce8898xyplot" class="plotclip"><rect width="657" height="320"/></clipPath><clipPath class="axesclip" id="clipce8898x"><rect x="80" y="0" width="657" height="500"/></clipPath><clipPath class="axesclip" id="clipce8898y"><rect x="0" y="100" width="900" height="320"/></clipPath><clipPath class="axesclip" id="clipce8898xy"><rect x="80" y="100" width="657" height="320"/></clipPath></g><g class="gradients"/><g class="patterns"/></defs><g class="bglayer"><rect class="bg" x="80" y="100" width="657" height="320" style="fill: rgb(229, 236, 246); fill-opacity: 1; stroke-width: 0;"/></g><g class="layer-below"><g class="imagelayer"/><g class="shapelayer"/></g><g class="cartesianlayer"><g class="subplot xy"><g class="layer-subplot"><g class="shapelayer"/><g class="imagelayer"/></g><g class="minor-gridlayer"><g class="x"/><g class="y"/></g><g class="gridlayer"><g class="x"><path class="xgrid crisp" transform="translate(116.6,0)" d="M0,100v320" style="stroke: rgb(255, 255, 255); stroke-opacity: 1; stroke-width: 1px;"/><path class="xgrid crisp" transform="translate(200,0)" d="M0,100v320" style="stroke: rgb(255, 255, 255); stroke-opacity: 1; stroke-width: 1px;"/><path class="xgrid crisp" transform="translate(283.4,0)" d="M0,100v320" style="stroke: rgb(255, 255, 255); stroke-opacity: 1; stroke-width: 1px;"/><path class="xgrid crisp" transform="translate(366.8,0)" d="M0,100v320" style="stroke: rgb(255, 255, 255); stroke-opacity: 1; stroke-width: 1px;"/><path class="xgrid crisp" transform="translate(450.2,0)" d="M0,100v320" style="stroke: rgb(255, 255, 255); stroke-opacity: 1; stroke-width: 1px;"/><path class="xgrid crisp" transform="translate(533.6,0)" d="M0,100v320" style="stroke: rgb(255, 255, 255); stroke-opacity: 1; stroke-width: 1px;"/><path class="xgrid crisp" transform="translate(617,0)" d="M0,100v320" style="stroke: rgb(255, 255, 255); stroke-opacity: 1; stroke-width: 1px;"/><path class="xgrid crisp" transform="translate(700.4,0)" d="M0,100v320" style="stroke: rgb(255, 255, 255); stroke-opacity: 1; stroke-width: 1px;"/></g><g class="y"><path class="ygrid crisp" transform="translate(0,385.19)" d="M80,0h657" style="stroke: rgb(255, 255, 255); stroke-opacity: 1; stroke-width: 1px;"/><path class="ygrid crisp" transform="translate(0,337.33000000000004)" d="M80,0h657" style="stroke: rgb(255, 255, 255); stroke-opacity: 1; stroke-width: 1px;"/><path class="ygrid crisp" transform="translate(0,295.87)" d="M80,0h657" style="stroke: rgb(255, 255, 255); stroke-opacity: 1; stroke-width: 1px;"/><path class="ygrid crisp" transform="translate(0,259.31)" d="M80,0h657" style="stroke: rgb(255, 255, 255); stroke-opacity: 1; stroke-width: 1px;"/><path class="ygrid crisp" transform="translate(0,226.6)" d="M80,0h657" style="stroke: rgb(255, 255, 255); stroke-opacity: 1; stroke-width: 1px;"/><path class="ygrid crisp" transform="translate(0,197.01)" d="M80,0h657" style="stroke: rgb(255, 255, 255); stroke-opacity: 1; stroke-width: 1px;"/><path class="ygrid crisp" transform="translate(0,170)" d="M80,0h657" style="stroke: rgb(255, 255, 255); stroke-opacity: 1; stroke-width: 1px;"/><path class="ygrid crisp" transform="translate(0,145.15)" d="M80,0h657" style="stroke: rgb(255, 255, 255); stroke-opacity: 1; stroke-width: 1px;"/><path class="ygrid crisp" transform="translate(0,122.14)" d="M80,0h657" style="stroke: rgb(255, 255, 255); stroke-opacity: 1; stroke-width: 1px;"/></g></g><g class="zerolinelayer"/><g class="layer-between"><g class="shapelayer"/><g class="imagelayer"/></g><path class="xlines-below"/><path class="ylines-below"/><g class="overlines-below"/><g class="xaxislayer-below"/><g class="yaxislayer-below"/><g class="overaxes-below"/><g class="overplot"><g class="xy" transform="translate(80,100)" clip-path="url(#clipce8898xyplot)"><g class="scatterlayer mlayer"><g class="trace scatter traceb3829f" style="stroke-miterlimit: 2; opacity: 1;"><g class="fills"/><g class="errorbars"><g class="errorbar"><path class="yerror" d="M32.6,227.36h8m-4,0V232.43m-4,0h8" style="vector-effect: none; stroke-width: 2px; stroke: rgb(86, 180, 233); stroke-opacity: 1;"/></g><g class="errorbar"><path class="yerror" d="M116,183.24h8m-4,0V189.99m-4,0h8" style="vector-effect: none; stroke-width: 2px; stroke: rgb(86, 180, 233); stroke-opacity: 1;"/></g><g class="errorbar"><path class="yerror" d="M199.4,188.48h8m-4,0V198m-4,0h8" style="vector-effect: none; stroke-width: 2px; stroke: rgb(86, 180, 233); stroke-opacity: 1;"/></g><g class="errorbar"><path class="yerror" d="M282.8,220.86h8m-4,0V226.9m-4,0h8" style="vector-effect: none; stroke-width: 2px; stroke: rgb(86, 180, 233); stroke-opacity: 1;"/></g><g class="errorbar"><path class="yerror" d="M366.2,230.3h8m-4,0V235.09m-4,0h8" style="vector-effect: none; stroke-width: 2px; stroke: rgb(86, 180, 233); stroke-opacity: 1;"/></g><g class="errorbar"><path class="yerror" d="M449.6,233.46h8m-4,0V235.91m-4,0h8" style="vector-effect: none; stroke-width: 2px; stroke: rgb(86, 180, 233); stroke-opacity: 1;"/></g><g class="errorbar"><path class="yerror" d="M533,209.97h8m-4,0V213.46m-4,0h8" style="vector-effect: none; stroke-width: 2px; stroke: rgb(86, 180, 233); stroke-opacity: 1;"/></g><g class="errorbar"><path class="yerror" d="M616.4,160.36h8m-4,0V174.18m-4,0h8" style="vector-effect: none; stroke-width: 2px; stroke: rgb(86, 180, 233); stroke-opacity: 1;"/></g></g><g class="lines"><path class="js-line" d="M36.6,229.89L120,186.6L203.4,193.2L286.8,223.87L370.2,232.69L453.6,234.68L537,211.71L620.4,167.2" style="vector-effect: none; fill: none; stroke: rgb(86, 180, 233); stroke-opacity: 1; stroke-width: 2px; opacity: 1;"/></g><g class="points"><path class="point plotly-customdata" transform="translate(36.6,229.89)" d="M3,0A3,3 0 1,1 0,-3A3,3 0 0,1 3,0Z" style="opacity: 1; stroke-width: 0px; fill: rgb(86, 180, 233); fill-opacity: 1;"/><path class="point plotly-customdata" transform="translate(120,186.6)" d="M3,0A3,3 0 1,1 0,-3A3,3 0 0,1 3,0Z" style="opacity: 1; stroke-width: 0px; fill: rgb(86, 180, 233); fill-opacity: 1;"/><path class="point plotly-customdata" transform="translate(203.4,193.2)" d="M3,0A3,3 0 1,1 0,-3A3,3 0 0,1 3,0Z" style="opacity: 1; stroke-width: 0px; fill: rgb(86, 180, 233); fill-opacity: 1;"/><path class="point plotly-customdata" transform="translate(286.8,223.87)" d="M3,0A3,3 0 1,1 0,-3A3,3 0 0,1 3,0Z" style="opacity: 1; stroke-width: 0px; fill: rgb(86, 180, 233); fill-opacity: 1;"/><path class="point plotly-customdata" transform="translate(370.2,232.69)" d="M3,0A3,3 0 1,1 0,-3A3,3 0 0,1 3,0Z" style="opacity: 1; stroke-width: 0px; fill: rgb(86, 180, 233); fill-opacity: 1;"/><path class="point plotly-customdata" transform="translate(453.6,234.68)" d="M3,0A3,3 0 1,1 0,-3A3,3 0 0,1 3,0Z" style="opacity: 1; stroke-width: 0px; fill: rgb(86, 180, 233); fill-opacity: 1;"/><path class="point plotly-customdata" transform="translate(537,211.71)" d="M3,0A3,3 0 1,1 0,-3A3,3 0 0,1 3,0Z" style="opacity: 1; stroke-width: 0px; fill: rgb(86, 180, 233); fill-opacity: 1;"/><path class="point plotly-customdata" transform="translate(620.4,167.2)" d="M3,0A3,3 0 1,1 0,-3A3,3 0 0,1 3,0Z" style="opacity: 1; stroke-width: 0px; fill: rgb(86, 180, 233); fill-opacity: 1;"/></g><g class="text"/></g><g class="trace scatter tracea485af" style="stroke-miterlimit: 2; opacity: 1;"><g class="fills"/><g class="errorbars"><g class="errorbar"><path class="yerror" d="M32.6,110.64h8m-4,0V113.53m-4,0h8" style="vector-effect: none; stroke-width: 2px; stroke: rgb(75, 0, 146); stroke-opacity: 1;"/></g><g class="errorbar"><path class="yerror" d="M116,110.76h8m-4,0V121m-4,0h8" style="vector-effect: none; stroke-width: 2px; stroke: rgb(75, 0, 146); stroke-opacity: 1;"/></g><g class="errorbar"><path class="yerror" d="M199.4,171.11h8m-4,0V181.77m-4,0h8" style="vector-effect: none; stroke-width: 2px; stroke: rgb(75, 0, 146); stroke-opacity: 1;"/></g><g class="errorbar"><path class="yerror" d="M282.8,218.43h8m-4,0V228.42m-4,0h8" style="vector-effect: none; stroke-width: 2px; stroke: rgb(75, 0, 146); stroke-opacity: 1;"/></g><g class="errorbar"><path class="yerror" d="M366.2,233.8h8m-4,0V253.49m-4,0h8" style="vector-effect: none; stroke-width: 2px; stroke: rgb(75, 0, 146); stroke-opacity: 1;"/></g><g class="errorbar"><path class="yerror" d="M449.6,129.84h8m-4,0V195.87m-4,0h8" style="vector-effect: none; stroke-width: 2px; stroke: rgb(75, 0, 146); stroke-opacity: 1;"/></g><g class="errorbar"><path class="yerror" d="M533,74.03h8m-4,0V79.53m-4,0h8" style="vector-effect: none; stroke-width: 2px; stroke: rgb(75, 0, 146); stroke-opacity: 1;"/></g><g class="errorbar"><path class="yerror" d="M616.4,176.02h8m-4,0V192.04m-4,0h8" style="vector-effect: none; stroke-width: 2px; stroke: rgb(75, 0, 146); stroke-opacity: 1;"/></g></g><g class="lines"><path class="js-line" d="M36.6,112.08L120,115.84L203.4,176.39L286.8,223.39L370.2,243.49L453.6,161.1L537,76.77L620.4,183.93" style="vector-effect: none; fill: none; stroke: rgb(75, 0, 146); stroke-opacity: 1; stroke-width: 2px; opacity: 1;"/></g><g class="points"><path class="point plotly-customdata" transform="translate(36.6,112.08)" d="M3,0A3,3 0 1,1 0,-3A3,3 0 0,1 3,0Z" style="opacity: 1; stroke-width: 0px; fill: rgb(75, 0, 146); fill-opacity: 1;"/><path class="point plotly-customdata" transform="translate(120,115.84)" d="M3,0A3,3 0 1,1 0,-3A3,3 0 0,1 3,0Z" style="opacity: 1; stroke-width: 0px; fill: rgb(75, 0, 146); fill-opacity: 1;"/><path class="point plotly-customdata" transform="translate(203.4,176.39)" d="M3,0A3,3 0 1,1 0,-3A3,3 0 0,1 3,0Z" style="opacity: 1; stroke-width: 0px; fill: rgb(75, 0, 146); fill-opacity: 1;"/><path class="point plotly-customdata" transform="translate(286.8,223.39)" d="M3,0A3,3 0 1,1 0,-3A3,3 0 0,1 3,0Z" style="opacity: 1; stroke-width: 0px; fill: rgb(75, 0, 146); fill-opacity: 1;"/><path class="point plotly-customdata" transform="translate(370.2,243.49)" d="M3,0A3,3 0 1,1 0,-3A3,3 0 0,1 3,0Z" style="opacity: 1; stroke-width: 0px; fill: rgb(75, 0, 146); fill-opacity: 1;"/><path class="point plotly-customdata" transform="translate(453.6,161.1)" d="M3,0A3,3 0 1,1 0,-3A3,3 0 0,1 3,0Z" style="opacity: 1; stroke-width: 0px; fill: rgb(75, 0, 146); fill-opacity: 1;"/><path class="point plotly-customdata" transform="translate(537,76.77)" d="M3,0A3,3 0 1,1 0,-3A3,3 0 0,1 3,0Z" style="opacity: 1; stroke-width: 0px; fill: rgb(75, 0, 146); fill-opacity: 1;"/><path class="point plotly-customdata" transform="translate(620.4,183.93)" d="M3,0A3,3 0 1,1 0,-3A3,3 0 0,1 3,0Z" style="opacity: 1; stroke-width: 0px; fill: rgb(75, 0, 146); fill-opacity: 1;"/></g><g class="text"/></g><g class="trace scatter trace3fed1f" style="stroke-miterlimit: 2; opacity: 1;"><g class="fills"/><g class="errorbars"><g class="errorbar"><path class="yerror" d="M32.6,131.84h8m-4,0V136.94m-4,0h8" style="vector-effect: none; stroke-width: 2px; stroke: rgb(17, 119, 51); stroke-opacity: 1;"/></g><g class="errorbar"><path class="yerror" d="M116,102.94h8m-4,0V135m-4,0h8" style="vector-effect: none; stroke-width: 2px; stroke: rgb(17, 119, 51); stroke-opacity: 1;"/></g><g class="errorbar"><path class="yerror" d="M199.4,185.59h8m-4,0V203.54m-4,0h8" style="vector-effect: none; stroke-width: 2px; stroke: rgb(17, 119, 51); stroke-opacity: 1;"/></g><g class="errorbar"><path class="yerror" d="M282.8,252.58h8m-4,0V256.34m-4,0h8" style="vector-effect: none; stroke-width: 2px; stroke: rgb(17, 119, 51); stroke-opacity: 1;"/></g><g class="errorbar"><path class="yerror" d="M366.2,281.79h8m-4,0V299.98m-4,0h8" style="vector-effect: none; stroke-width: 2px; stroke: rgb(17, 119, 51); stroke-opacity: 1;"/></g><g class="errorbar"><path class="yerror" d="M449.6,237.8h8m-4,0V262.15m-4,0h8" style="vector-effect: none; stroke-width: 2px; stroke: rgb(17, 119, 51); stroke-opacity: 1;"/></g><g class="errorbar"><path class="yerror" d="M533,244.23h8m-4,0V265.69m-4,0h8" style="vector-effect: none; stroke-width: 2px; stroke: rgb(17, 119, 51); stroke-opacity: 1;"/></g><g class="errorbar"><path class="yerror" d="M616.4,155.16h8m-4,0V219.36m-4,0h8" style="vector-effect: none; stroke-width: 2px; stroke: rgb(17, 119, 51); stroke-opacity: 1;"/></g></g><g class="lines"><path class="js-line" d="M36.6,134.38L120,118.56L203.4,194.43L286.8,254.46L370.2,290.75L453.6,249.73L537,254.77L620.4,185.6" style="vector-effect: none; fill: none; stroke: rgb(17, 119, 51); stroke-opacity: 1; stroke-width: 2px; opacity: 1;"/></g><g class="points"><path class="point plotly-customdata" transform="translate(36.6,134.38)" d="M3,0A3,3 0 1,1 0,-3A3,3 0 0,1 3,0Z" style="opacity: 1; stroke-width: 0px; fill: rgb(17, 119, 51); fill-opacity: 1;"/><path class="point plotly-customdata" transform="translate(120,118.56)" d="M3,0A3,3 0 1,1 0,-3A3,3 0 0,1 3,0Z" style="opacity: 1; stroke-width: 0px; fill: rgb(17, 119, 51); fill-opacity: 1;"/><path class="point plotly-customdata" transform="translate(203.4,194.43)" d="M3,0A3,3 0 1,1 0,-3A3,3 0 0,1 3,0Z" style="opacity: 1; stroke-width: 0px; fill: rgb(17, 119, 51); fill-opacity: 1;"/><path class="point plotly-customdata" transform="translate(286.8,254.46)" d="M3,0A3,3 0 1,1 0,-3A3,3 0 0,1 3,0Z" style="opacity: 1; stroke-width: 0px; fill: rgb(17, 119, 51); fill-opacity: 1;"/><path class="point plotly-customdata" transform="translate(370.2,290.75)" d="M3,0A3,3 0 1,1 0,-3A3,3 0 0,1 3,0Z" style="opacity: 1; stroke-width: 0px; fill: rgb(17, 119, 51); fill-opacity: 1;"/><path class="point plotly-customdata" transform="translate(453.6,249.73)" d="M3,0A3,3 0 1,1 0,-3A3,3 0 0,1 3,0Z" style="opacity: 1; stroke-width: 0px; fill: rgb(17, 119, 51); fill-opacity: 1;"/><path class="point plotly-customdata" transform="translate(537,254.77)" d="M3,0A3,3 0 1,1 0,-3A3,3 0 0,1 3,0Z" style="opacity: 1; stroke-width: 0px; fill: rgb(17, 119, 51); fill-opacity: 1;"/><path class="point plotly-customdata" transform="translate(620.4,185.6)" d="M3,0A3,3 0 1,1 0,-3A3,3 0 0,1 3,0Z" style="opacity: 1; stroke-width: 0px; fill: rgb(17, 119, 51); fill-opacity: 1;"/></g><g class="text"/></g><g class="trace scatter trace99fd9c" style="stroke-miterlimit: 2; opacity: 1;"><g class="fills"/><g class="errorbars"><g class="errorbar"><path class="yerror" d="M32.6,16h8m-4,0V47.13m-4,0h8" style="vector-effect: none; stroke-width: 2px; stroke: rgb(255, 176, 0); stroke-opacity: 1;"/></g><g class="errorbar"><path class="yerror" d="M116,55.52h8m-4,0V59.27m-4,0h8" style="vector-effect: none; stroke-width: 2px; stroke: rgb(255, 176, 0); stroke-opacity: 1;"/></g><g class="errorbar"><path class="yerror" d="M199.4,91.3h8m-4,0V95.54m-4,0h8" style="vector-effect: none; stroke-width: 2px; stroke: rgb(255, 176, 0); stroke-opacity: 1;"/></g><g class="errorbar"><path class="yerror" d="M282.8,29.31h8m-4,0V122.46m-4,0h8" style="vector-effect: none; stroke-width: 2px; stroke: rgb(255, 176, 0); stroke-opacity: 1;"/></g><g class="errorbar"><path class="yerror" d="M366.2,150.87h8m-4,0V167.56m-4,0h8" style="vector-effect: none; stroke-width: 2px; stroke: rgb(255, 176, 0); stroke-opacity: 1;"/></g><g class="errorbar"><path class="yerror" d="M449.6,117.97h8m-4,0V135.63m-4,0h8" style="vector-effect: none; stroke-width: 2px; stroke: rgb(255, 176, 0); stroke-opacity: 1;"/></g><g class="errorbar"><path class="yerror" d="M533,27.75h8m-4,0V30.55m-4,0h8" style="vector-effect: none; stroke-width: 2px; stroke: rgb(255, 176, 0); stroke-opacity: 1;"/></g><g class="errorbar"><path class="yerror" d="M616.4,94.08h8m-4,0V114.33m-4,0h8" style="vector-effect: none; stroke-width: 2px; stroke: rgb(255, 176, 0); stroke-opacity: 1;"/></g></g><g class="lines"><path class="js-line" d="M36.6,31.18L120,57.39L203.4,93.41L286.8,72.41L370.2,159.1L453.6,126.68L537,29.15L620.4,104.04" style="vector-effect: none; fill: none; stroke: rgb(255, 176, 0); stroke-opacity: 1; stroke-width: 2px; opacity: 1;"/></g><g class="points"><path class="point plotly-customdata" transform="translate(36.6,31.18)" d="M3,0A3,3 0 1,1 0,-3A3,3 0 0,1 3,0Z" style="opacity: 1; stroke-width: 0px; fill: rgb(255, 176, 0); fill-opacity: 1;"/><path class="point plotly-customdata" transform="translate(120,57.39)" d="M3,0A3,3 0 1,1 0,-3A3,3 0 0,1 3,0Z" style="opacity: 1; stroke-width: 0px; fill: rgb(255, 176, 0); fill-opacity: 1;"/><path class="point plotly-customdata" transform="translate(203.4,93.41)" d="M3,0A3,3 0 1,1 0,-3A3,3 0 0,1 3,0Z" style="opacity: 1; stroke-width: 0px; fill: rgb(255, 176, 0); fill-opacity: 1;"/><path class="point plotly-customdata" transform="translate(286.8,72.41)" d="M3,0A3,3 0 1,1 0,-3A3,3 0 0,1 3,0Z" style="opacity: 1; stroke-width: 0px; fill: rgb(255, 176, 0); fill-opacity: 1;"/><path class="point plotly-customdata" transform="translate(370.2,159.1)" d="M3,0A3,3 0 1,1 0,-3A3,3 0 0,1 3,0Z" style="opacity: 1; stroke-width: 0px; fill: rgb(255, 176, 0); fill-opacity: 1;"/><path class="point plotly-customdata" transform="translate(453.6,126.68)" d="M3,0A3,3 0 1,1 0,-3A3,3 0 0,1 3,0Z" style="opacity: 1; stroke-width: 0px; fill: rgb(255, 176, 0); fill-opacity: 1;"/><path class="point plotly-customdata" transform="translate(537,29.15)" d="M3,0A3,3 0 1,1 0,-3A3,3 0 0,1 3,0Z" style="opacity: 1; stroke-width: 0px; fill: rgb(255, 176, 0); fill-opacity: 1;"/><path class="point plotly-customdata" transform="translate(620.4,104.04)" d="M3,0A3,3 0 1,1 0,-3A3,3 0 0,1 3,0Z" style="opacity: 1; stroke-width: 0px; fill: rgb(255, 176, 0); fill-opacity: 1;"/></g><g class="text"/></g><g class="trace scatter trace9f17d3" style="stroke-miterlimit: 2; opacity: 1;"><g class="fills"/><g class="errorbars"><g class="errorbar"><path class="yerror" d="M32.6,293.55h8m-4,0V303.53m-4,0h8" style="vector-effect: none; stroke-width: 2px; stroke: rgb(255, 68, 48); stroke-opacity: 1;"/></g><g class="errorbar"><path class="yerror" d="M116,294.87h8m-4,0V304m-4,0h8" style="vector-effect: none; stroke-width: 2px; stroke: rgb(255, 68, 48); stroke-opacity: 1;"/></g><g class="errorbar"><path class="yerror" d="M199.4,288.74h8m-4,0V290.51m-4,0h8" style="vector-effect: none; stroke-width: 2px; stroke: rgb(255, 68, 48); stroke-opacity: 1;"/></g><g class="errorbar"><path class="yerror" d="M282.8,287.68h8m-4,0V302.49m-4,0h8" style="vector-effect: none; stroke-width: 2px; stroke: rgb(255, 68, 48); stroke-opacity: 1;"/></g><g class="errorbar"><path class="yerror" d="M366.2,296.6h8m-4,0V302.96m-4,0h8" style="vector-effect: none; stroke-width: 2px; stroke: rgb(255, 68, 48); stroke-opacity: 1;"/></g><g class="errorbar"><path class="yerror" d="M449.6,279.38h8m-4,0V296.04m-4,0h8" style="vector-effect: none; stroke-width: 2px; stroke: rgb(255, 68, 48); stroke-opacity: 1;"/></g><g class="errorbar"><path class="yerror" d="M533,287.72h8m-4,0V300.38m-4,0h8" style="vector-effect: none; stroke-width: 2px; stroke: rgb(255, 68, 48); stroke-opacity: 1;"/></g><g class="errorbar"><path class="yerror" d="M616.4,291.49h8m-4,0V295.65m-4,0h8" style="vector-effect: none; stroke-width: 2px; stroke: rgb(255, 68, 48); stroke-opacity: 1;"/></g></g><g class="lines"><path class="js-line" d="M36.6,298.5L120,299.4L203.4,289.62L370.2,299.76L453.6,287.6L537,293.98L620.4,293.56" style="vector-effect: none; fill: none; stroke: rgb(255, 68, 48); stroke-opacity: 1; stroke-width: 2px; opacity: 1;"/></g><g class="points"><path class="point plotly-customdata" transform="translate(36.6,298.5)" d="M3,0A3,3 0 1,1 0,-3A3,3 0 0,1 3,0Z" style="opacity: 1; stroke-width: 0px; fill: rgb(255, 68, 48); fill-opacity: 1;"/><path class="point plotly-customdata" transform="translate(120,299.4)" d="M3,0A3,3 0 1,1 0,-3A3,3 0 0,1 3,0Z" style="opacity: 1; stroke-width: 0px; fill: rgb(255, 68, 48); fill-opacity: 1;"/><path class="point plotly-customdata" transform="translate(203.4,289.62)" d="M3,0A3,3 0 1,1 0,-3A3,3 0 0,1 3,0Z" style="opacity: 1; stroke-width: 0px; fill: rgb(255, 68, 48); fill-opacity: 1;"/><path class="point plotly-customdata" transform="translate(286.8,295)" d="M3,0A3,3 0 1,1 0,-3A3,3 0 0,1 3,0Z" style="opacity: 1; stroke-width: 0px; fill: rgb(255, 68, 48); fill-opacity: 1;"/><path class="point plotly-customdata" transform="translate(370.2,299.76)" d="M3,0A3,3 0 1,1 0,-3A3,3 0 0,1 3,0Z" style="opacity: 1; stroke-width: 0px; fill: rgb(255, 68, 48); fill-opacity: 1;"/><path class="point plotly-customdata" transform="translate(453.6,287.6)" d="M3,0A3,3 0 1,1 0,-3A3,3 0 0,1 3,0Z" style="opacity: 1; stroke-width: 0px; fill: rgb(255, 68, 48); fill-opacity: 1;"/><path class="point plotly-customdata" transform="translate(537,293.98)" d="M3,0A3,3 0 1,1 0,-3A3,3 0 0,1 3,0Z" style="opacity: 1; stroke-width: 0px; fill: rgb(255, 68, 48); fill-opacity: 1;"/><path class="point plotly-customdata" transform="translate(620.4,293.56)" d="M3,0A3,3 0 1,1 0,-3A3,3 0 0,1 3,0Z" style="opacity: 1; stroke-width: 0px; fill: rgb(255, 68, 48); fill-opacity: 1;"/></g><g class="text"/></g></g></g></g><path class="xlines-above crisp" d="M0,0" style="fill: none;"/><path class="ylines-above crisp" d="M0,0" style="fill: none;"/><g class="overlines-above"/><g class="xaxislayer-above"><g class="xtick"><text text-anchor="middle" x="0" y="433" transform="translate(116.6,0)" style="font-family: 'Open Sans', verdana, arial, sans-serif; font-size: 12px; fill: rgb(42, 63, 95); fill-opacity: 1; white-space: pre; opacity: 1;">None None</text></g><g class="xtick"><text text-anchor="middle" x="0" y="433" transform="translate(200,0)" style="font-family: 'Open Sans', verdana, arial, sans-serif; font-size: 12px; fill: rgb(42, 63, 95); fill-opacity: 1; white-space: pre; opacity: 1;">1280.0 MB</text></g><g class="xtick"><text text-anchor="middle" x="0" y="433" transform="translate(283.4,0)" style="font-family: 'Open Sans', verdana, arial, sans-serif; font-size: 12px; fill: rgb(42, 63, 95); fill-opacity: 1; white-space: pre; opacity: 1;">640.0 MB</text></g><g class="xtick"><text text-anchor="middle" x="0" y="433" transform="translate(366.8,0)" style="font-family: 'Open Sans', verdana, arial, sans-serif; font-size: 12px; fill: rgb(42, 63, 95); fill-opacity: 1; white-space: pre; opacity: 1;">320.0 MB</text></g><g class="xtick"><text text-anchor="middle" x="0" y="433" transform="translate(450.2,0)" style="font-family: 'Open Sans', verdana, arial, sans-serif; font-size: 12px; fill: rgb(42, 63, 95); fill-opacity: 1; white-space: pre; opacity: 1;">160.0 MB</text></g><g class="xtick"><text text-anchor="middle" x="0" y="433" transform="translate(533.6,0)" style="font-family: 'Open Sans', verdana, arial, sans-serif; font-size: 12px; fill: rgb(42, 63, 95); fill-opacity: 1; white-space: pre; opacity: 1;">80.0 MB</text></g><g class="xtick"><text text-anchor="middle" x="0" y="433" transform="translate(617,0)" style="font-family: 'Open Sans', verdana, arial, sans-serif; font-size: 12px; fill: rgb(42, 63, 95); fill-opacity: 1; white-space: pre; opacity: 1;">40.0 MB</text></g><g class="xtick"><text text-anchor="middle" x="0" y="433" transform="translate(700.4,0)" style="font-family: 'Open Sans', verdana, arial, sans-serif; font-size: 12px; fill: rgb(42, 63, 95); fill-opacity: 1; white-space: pre; opacity: 1;">20.0 MB</text></g></g><g class="yaxislayer-above"><g class="ytick"><text text-anchor="end" x="79" y="4.199999999999999" transform="translate(0,385.19)" style="font-family: 'Open Sans', verdana, arial, sans-serif; font-size: 12px; fill: rgb(42, 63, 95); fill-opacity: 1; white-space: pre; opacity: 1;">6</text></g><g class="ytick"><text text-anchor="end" x="79" y="4.199999999999999" style="font-family: 'Open Sans', verdana, arial, sans-serif; font-size: 12px; fill: rgb(42, 63, 95); fill-opacity: 1; white-space: pre; opacity: 1;" transform="translate(0,337.33000000000004)">7</text></g><g class="ytick"><text text-anchor="end" x="79" y="4.199999999999999" style="font-family: 'Open Sans', verdana, arial, sans-serif; font-size: 12px; fill: rgb(42, 63, 95); fill-opacity: 1; white-space: pre; opacity: 1;" transform="translate(0,295.87)">8</text></g><g class="ytick"><text text-anchor="end" x="79" y="4.199999999999999" style="font-family: 'Open Sans', verdana, arial, sans-serif; font-size: 12px; fill: rgb(42, 63, 95); fill-opacity: 1; white-space: pre; opacity: 1;" transform="translate(0,259.31)">9</text></g><g class="ytick"><text text-anchor="end" x="79" y="4.199999999999999" style="font-family: 'Open Sans', verdana, arial, sans-serif; font-size: 12px; fill: rgb(42, 63, 95); fill-opacity: 1; white-space: pre; opacity: 1;" transform="translate(0,226.6)">10</text></g><g class="ytick"><text text-anchor="end" x="79" y="4.199999999999999" style="font-family: 'Open Sans', verdana, arial, sans-serif; font-size: 12px; fill: rgb(42, 63, 95); fill-opacity: 1; white-space: pre; opacity: 1;" transform="translate(0,197.01)">11</text></g><g class="ytick"><text text-anchor="end" x="79" y="4.199999999999999" style="font-family: 'Open Sans', verdana, arial, sans-serif; font-size: 12px; fill: rgb(42, 63, 95); fill-opacity: 1; white-space: pre; opacity: 1;" transform="translate(0,170)">12</text></g><g class="ytick"><text text-anchor="end" x="79" y="4.199999999999999" style="font-family: 'Open Sans', verdana, arial, sans-serif; font-size: 12px; fill: rgb(42, 63, 95); fill-opacity: 1; white-space: pre; opacity: 1;" transform="translate(0,145.15)">13</text></g><g class="ytick"><text text-anchor="end" x="79" y="4.199999999999999" style="font-family: 'Open Sans', verdana, arial, sans-serif; font-size: 12px; fill: rgb(42, 63, 95); fill-opacity: 1; white-space: pre; opacity: 1;" transform="translate(0,122.14)">14</text></g><g class="ytick"><text text-anchor="end" x="79" y="4.199999999999999" style="font-family: 'Open Sans', verdana, arial, sans-serif; font-size: 12px; fill: rgb(42, 63, 95); fill-opacity: 1; white-space: pre; opacity: 1;" transform="translate(0,100.72)">15</text></g></g><g class="overaxes-above"/></g></g><g class="polarlayer"/><g class="smithlayer"/><g class="ternarylayer"/><g class="geolayer"/><g class="funnelarealayer"/><g class="pielayer"/><g class="iciclelayer"/><g class="treemaplayer"/><g class="sunburstlayer"/><g class="glimages"/><defs id="topdefs-ce8898"><g class="clips"/><clipPath id="legendce8898"><rect width="138" height="124" x="0" y="0"/></clipPath></defs><g class="layer-above"><g class="imagelayer"/><g class="shapelayer"/></g><g class="infolayer"><g class="legend" pointer-events="all" transform="translate(750.14,100)"><rect class="bg" shape-rendering="crispEdges" width="138" height="124" x="0" y="0" style="stroke: rgb(68, 68, 68); stroke-opacity: 1; fill: rgb(255, 255, 255); fill-opacity: 1; stroke-width: 0px;"/><g class="scrollbox" transform="" clip-path="url(#legendce8898)"><text class="legendtitletext" text-anchor="start" x="2" y="18.2" style="font-family: 'Open Sans', verdana, arial, sans-serif; font-size: 14px; fill: rgb(42, 63, 95); fill-opacity: 1; white-space: pre;">engine</text><g class="groups" transform=""><g class="traces" transform="translate(0,32.7)" style="opacity: 1;"><text class="legendtext" text-anchor="start" x="40" y="4.680000000000001" style="font-family: 'Open Sans', verdana, arial, sans-serif; font-size: 12px; fill: rgb(42, 63, 95); fill-opacity: 1; white-space: pre;">zarr-python</text><g class="layers" style="opacity: 1;"><g class="legendfill"/><g class="legendlines"><path class="js-line" d="M5,0h30" style="fill: none; stroke: rgb(86, 180, 233); stroke-opacity: 1; stroke-width: 2px;"/></g><g class="legendsymbols"><g class="legendpoints"><path class="scatterpts" transform="translate(20,0)" d="M3,0A3,3 0 1,1 0,-3A3,3 0 0,1 3,0Z" style="opacity: 1; stroke-width: 0px; fill: rgb(86, 180, 233); fill-opacity: 1;"/></g></g></g><rect class="legendtoggle" x="0" y="-9.5" width="132.078125" height="19" style="fill: rgb(0, 0, 0); fill-opacity: 0;"/></g></g><g class="groups" transform=""><g class="traces" transform="translate(0,51.7)" style="opacity: 1;"><text class="legendtext" text-anchor="start" x="40" y="4.680000000000001" style="font-family: 'Open Sans', verdana, arial, sans-serif; font-size: 12px; fill: rgb(42, 63, 95); fill-opacity: 1; white-space: pre;">netcdf4-python</text><g class="layers" style="opacity: 1;"><g class="legendfill"/><g class="legendlines"><path class="js-line" d="M5,0h30" style="fill: none; stroke: rgb(75, 0, 146); stroke-opacity: 1; stroke-width: 2px;"/></g><g class="legendsymbols"><g class="legendpoints"><path class="scatterpts" transform="translate(20,0)" d="M3,0A3,3 0 1,1 0,-3A3,3 0 0,1 3,0Z" style="opacity: 1; stroke-width: 0px; fill: rgb(75, 0, 146); fill-opacity: 1;"/></g></g></g><rect class="legendtoggle" x="0" y="-9.5" width="132.078125" height="19" style="fill: rgb(0, 0, 0); fill-opacity: 0;"/></g></g><g class="groups" transform=""><g class="traces" transform="translate(0,70.7)" style="opacity: 1;"><text class="legendtext" text-anchor="start" x="40" y="4.680000000000001" style="font-family: 'Open Sans', verdana, arial, sans-serif; font-size: 12px; fill: rgb(42, 63, 95); fill-opacity: 1; white-space: pre;">hdf5-python</text><g class="layers" style="opacity: 1;"><g class="legendfill"/><g class="legendlines"><path class="js-line" d="M5,0h30" style="fill: none; stroke: rgb(17, 119, 51); stroke-opacity: 1; stroke-width: 2px;"/></g><g class="legendsymbols"><g class="legendpoints"><path class="scatterpts" transform="translate(20,0)" d="M3,0A3,3 0 1,1 0,-3A3,3 0 0,1 3,0Z" style="opacity: 1; stroke-width: 0px; fill: rgb(17, 119, 51); fill-opacity: 1;"/></g></g></g><rect class="legendtoggle" x="0" y="-9.5" width="132.078125" height="19" style="fill: rgb(0, 0, 0); fill-opacity: 0;"/></g></g><g class="groups" transform=""><g class="traces" transform="translate(0,89.7)" style="opacity: 1;"><text class="legendtext" text-anchor="start" x="40" y="4.680000000000001" style="font-family: 'Open Sans', verdana, arial, sans-serif; font-size: 12px; fill: rgb(42, 63, 95); fill-opacity: 1; white-space: pre;">netcdf4-c</text><g class="layers" style="opacity: 1;"><g class="legendfill"/><g class="legendlines"><path class="js-line" d="M5,0h30" style="fill: none; stroke: rgb(255, 176, 0); stroke-opacity: 1; stroke-width: 2px;"/></g><g class="legendsymbols"><g class="legendpoints"><path class="scatterpts" transform="translate(20,0)" d="M3,0A3,3 0 1,1 0,-3A3,3 0 0,1 3,0Z" style="opacity: 1; stroke-width: 0px; fill: rgb(255, 176, 0); fill-opacity: 1;"/></g></g></g><rect class="legendtoggle" x="0" y="-9.5" width="132.078125" height="19" style="fill: rgb(0, 0, 0); fill-opacity: 0;"/></g></g><g class="groups" transform=""><g class="traces" transform="translate(0,108.7)" style="opacity: 1;"><text class="legendtext" text-anchor="start" x="40" y="4.680000000000001" style="font-family: 'Open Sans', verdana, arial, sans-serif; font-size: 12px; fill: rgb(42, 63, 95); fill-opacity: 1; white-space: pre;">hdf5-c</text><g class="layers" style="opacity: 1;"><g class="legendfill"/><g class="legendlines"><path class="js-line" d="M5,0h30" style="fill: none; stroke: rgb(255, 68, 48); stroke-opacity: 1; stroke-width: 2px;"/></g><g class="legendsymbols"><g class="legendpoints"><path class="scatterpts" transform="translate(20,0)" d="M3,0A3,3 0 1,1 0,-3A3,3 0 0,1 3,0Z" style="opacity: 1; stroke-width: 0px; fill: rgb(255, 68, 48); fill-opacity: 1;"/></g></g></g><rect class="legendtoggle" x="0" y="-9.5" width="132.078125" height="19" style="fill: rgb(0, 0, 0); fill-opacity: 0;"/></g></g></g><rect class="scrollbar" rx="20" ry="3" width="0" height="0" x="0" y="0" style="fill: rgb(128, 139, 164); fill-opacity: 1;"/></g><g class="g-gtitle"><text class="gtitle" x="45" y="50" text-anchor="start" dy="0em" style="opacity: 1; font-family: 'Open Sans', verdana, arial, sans-serif; font-size: 17px; fill: rgb(42, 63, 95); fill-opacity: 1; white-space: pre;">mean time in seconds (s)</text></g><g class="g-xtitle"><text class="xtitle" x="408.5" y="460.3" text-anchor="middle" style="opacity: 1; font-family: 'Open Sans', verdana, arial, sans-serif; font-size: 14px; fill: rgb(42, 63, 95); fill-opacity: 1; white-space: pre;">filesize per chunk</text></g><g class="g-ytitle"><text class="ytitle" transform="rotate(-90,44.31875,260)" x="44.31875" y="260" text-anchor="middle" style="opacity: 1; font-family: 'Open Sans', verdana, arial, sans-serif; font-size: 14px; fill: rgb(42, 63, 95); fill-opacity: 1; white-space: pre;">mean time</text></g></g></svg>