<svg class="main-svg" xmlns="http://www.w3.org/2000/svg" xmlns:xlink="http://www.w3.org/1999/xlink" width="900" height="500" style="" viewBox="0 0 900 500"><rect x="0" y="0" width="900" height="500" style="fill: rgb(255, 255, 255); fill-opacity: 1;"/><defs id="defs-1b2f90"><g class="clips"><clipPath id="clip1b2f90xyplot" class="plotclip"><rect width="644" height="360"/></clipPath><clipPath class="axesclip" id="clip1b2f90x"><rect x="80" y="0" width="644" height="500"/></clipPath><clipPath class="axesclip" id="clip1b2f90y"><rect x="0" y="60" width="900" height="360"/></clipPath><clipPath class="axesclip" id="clip1b2f90xy"><rect x="80" y="60" width="644" height="360"/></clipPath></g><g class="gradients"/><g class="patterns"/></defs><g class="bglayer"><rect class="bg" x="80" y="60" width="644" height="360" style="fill: rgb(229, 236, 246); fill-opacity: 1; stroke-width: 0;"/></g><g class="layer-below"><g class="imagelayer"/><g class="shapelayer"/></g><g class="cartesianlayer"><g class="subplot xy"><g class="layer-subplot"><g class="shapelayer"/><g class="imagelayer"/></g><g class="minor-gridlayer"><g class="x"/><g class="y"/></g><g class="gridlayer"><g class="x"><path class="xgrid crisp" transform="translate(115.95,0)" d="M0,60v360" style="stroke: rgb(255, 255, 255); stroke-opacity: 1; stroke-width: 1px;"/><path class="xgrid crisp" transform="translate(197.68,0)" d="M0,60v360" style="stroke: rgb(255, 255, 255); stroke-opacity: 1; stroke-width: 1px;"/><path class="xgrid crisp" transform="translate(279.40999999999997,0)" d="M0,60v360" style="stroke: rgb(255, 255, 255); stroke-opacity: 1; stroke-width: 1px;"/><path class="xgrid crisp" transform="translate(361.14,0)" d="M0,60v360" style="stroke: rgb(255, 255, 255); stroke-opacity: 1; stroke-width: 1px;"/><path class="xgrid crisp" transform="translate(442.86,0)" d="M0,60v360" style="stroke: rgb(255, 255, 255); stroke-opacity: 1; stroke-width: 1px;"/><path class="xgrid crisp" transform="translate(524.5899999999999,0)" d="M0,60v360" style="stroke: rgb(255, 255, 255); stroke-opacity: 1; stroke-width: 1px;"/><path class="xgrid crisp" transform="translate(606.32,0)" d="M0,60v360" style="stroke: rgb(255, 255, 255); stroke-opacity: 1; stroke-width: 1px;"/><path class="xgrid crisp" transform="translate(688.05,0)" d="M0,60v360" style="stroke: rgb(255, 255, 255); stroke-opacity: 1; stroke-width: 1px;"/></g><g class="y"><path class="ygrid crisp" transform="translate(0,398.18)" d="M80,0h644" style="stroke: rgb(255, 255, 255); stroke-opacity: 1; stroke-width: 1px;"/><path class="ygrid crisp" transform="translate(0,353.16)" d="M80,0h644" style="stroke: rgb(255, 255, 255); stroke-opacity: 1; stroke-width: 1px;"/><path class="ygrid crisp" transform="translate(0,321.22)" d="M80,0h644" style="stroke: rgb(255, 255, 255); stroke-opacity: 1; stroke-width: 1px;"/><path class="ygrid crisp" transform="translate(0,296.44)" d="M80,0h644" style="stroke: rgb(255, 255, 255); stroke-opacity: 1; stroke-width: 1px;"/><path class="ygrid crisp" transform="translate(0,276.19)" d="M80,0h644" style="stroke: rgb(255, 255, 255); stroke-opacity: 1; stroke-width: 1px;"/><path class="ygrid crisp" transform="translate(0,259.08000000000004)" d="M80,0h644" style="stroke: rgb(255, 255, 255); stroke-opacity: 1; stroke-width: 1px;"/><path class="ygrid crisp" transform="translate(0,244.25)" d="M80,0h644" style="stroke: rgb(255, 255, 255); stroke-opacity: 1; stroke-width: 1px;"/><path class="ygrid crisp" transform="translate(0,231.17)" d="M80,0h644" style="stroke: rgb(255, 255, 255); stroke-opacity: 1; stroke-width: 1px;"/><path class="ygrid crisp" transform="translate(0,219.47)" d="M80,0h644" style="stroke: rgb(255, 255, 255); stroke-opacity: 1; stroke-width: 1px;"/><path class="ygrid crisp" transform="translate(0,142.5)" d="M80,0h644" style="stroke: rgb(255, 255, 255); stroke-opacity: 1; stroke-width: 1px;"/><path class="ygrid crisp" transform="translate(0,97.47999999999999)" d="M80,0h644" style="stroke: rgb(255, 255, 255); stroke-opacity: 1; stroke-width: 1px;"/><path class="ygrid crisp" transform="translate(0,65.53)" d="M80,0h644" style="stroke: rgb(255, 255, 255); stroke-opacity: 1; stroke-width: 1px;"/></g></g><g class="zerolinelayer"/><g class="layer-between"><g class="shapelayer"/><g class="imagelayer"/></g><path class="xlines-below"/><path class="ylines-below"/><g class="overlines-below"/><g class="xaxislayer-below"/><g class="yaxislayer-below"/><g class="overaxes-below"/><g class="overplot"><g class="xy" transform="translate(80,60)" clip-path="url(#clip1b2f90xyplot)"><g class="scatterlayer mlayer"><g class="trace scatter trace3d07b9" style="stroke-miterlimit: 2; opacity: 1;"><g class="fills"/><g class="errorbars"><g class="errorbar"><path class="yerror" d="M31.950000000000003,119.91h8m-4,0V131.05m-4,0h8" style="vector-effect: none; stroke-width: 2px; stroke: rgb(75, 0, 146); stroke-opacity: 1;"/></g><g class="errorbar"><path class="yerror" d="M113.68,134.05h8m-4,0V135.39m-4,0h8" style="vector-effect: none; stroke-width: 2px; stroke: rgb(75, 0, 146); stroke-opacity: 1;"/></g><g class="errorbar"><path class="yerror" d="M195.41,146.84h8m-4,0V148.36m-4,0h8" style="vector-effect: none; stroke-width: 2px; stroke: rgb(75, 0, 146); stroke-opacity: 1;"/></g><g class="errorbar"><path class="yerror" d="M277.14,124.67h8m-4,0V157.99m-4,0h8" style="vector-effect: none; stroke-width: 2px; stroke: rgb(75, 0, 146); stroke-opacity: 1;"/></g><g class="errorbar"><path class="yerror" d="M358.86,168.15h8m-4,0V174.12m-4,0h8" style="vector-effect: none; stroke-width: 2px; stroke: rgb(75, 0, 146); stroke-opacity: 1;"/></g><g class="errorbar"><path class="yerror" d="M440.59,156.38h8m-4,0V162.7m-4,0h8" style="vector-effect: none; stroke-width: 2px; stroke: rgb(75, 0, 146); stroke-opacity: 1;"/></g><g class="errorbar"><path class="yerror" d="M522.32,124.11h8m-4,0V125.12m-4,0h8" style="vector-effect: none; stroke-width: 2px; stroke: rgb(75, 0, 146); stroke-opacity: 1;"/></g><g class="errorbar"><path class="yerror" d="M604.05,147.84h8m-4,0V155.08m-4,0h8" style="vector-effect: none; stroke-width: 2px; stroke: rgb(75, 0, 146); stroke-opacity: 1;"/></g></g><g class="lines"><path class="js-line" d="M35.95,125.34L117.68,134.71L199.41,147.6L281.14,140.09L362.86,171.1L444.59,159.5L526.32,124.61L608.05,151.4" style="vector-effect: none; fill: none; stroke: rgb(75, 0, 146); stroke-opacity: 1; stroke-width: 2px; opacity: 1;"/></g><g class="points"><path class="point plotly-customdata" transform="translate(35.95,125.34)" d="M3,0A3,3 0 1,1 0,-3A3,3 0 0,1 3,0Z" style="opacity: 1; stroke-width: 0px; fill: rgb(75, 0, 146); fill-opacity: 1;"/><path class="point plotly-customdata" transform="translate(117.68,134.71)" d="M3,0A3,3 0 1,1 0,-3A3,3 0 0,1 3,0Z" style="opacity: 1; stroke-width: 0px; fill: rgb(75, 0, 146); fill-opacity: 1;"/><path class="point plotly-customdata" transform="translate(199.41,147.6)" d="M3,0A3,3 0 1,1 0,-3A3,3 0 0,1 3,0Z" style="opacity: 1; stroke-width: 0px; fill: rgb(75, 0, 146); fill-opacity: 1;"/><path class="point plotly-customdata" transform="translate(281.14,140.09)" d="M3,0A3,3 0 1,1 0,-3A3,3 0 0,1 3,0Z" style="opacity: 1; stroke-width: 0px; fill: rgb(75, 0, 146); fill-opacity: 1;"/><path class="point plotly-customdata" transform="translate(362.86,171.1)" d="M3,0A3,3 0 1,1 0,-3A3,3 0 0,1 3,0Z" style="opacity: 1; stroke-width: 0px; fill: rgb(75, 0, 146); fill-opacity: 1;"/><path class="point plotly-customdata" transform="translate(444.59,159.5)" d="M3,0A3,3 0 1,1 0,-3A3,3 0 0,1 3,0Z" style="opacity: 1; stroke-width: 0px; fill: rgb(75, 0, 146); fill-opacity: 1;"/><path class="point plotly-customdata" transform="translate(526.32,124.61)" d="M3,0A3,3 0 1,1 0,-3A3,3 0 0,1 3,0Z" style="opacity: 1; stroke-width: 0px; fill: rgb(75, 0, 146); fill-opacity: 1;"/><path class="point plotly-customdata" transform="translate(608.05,151.4)" d="M3,0A3,3 0 1,1 0,-3A3,3 0 0,1 3,0Z" style="opacity: 1; stroke-width: 0px; fill: rgb(75, 0, 146); fill-opacity: 1;"/></g><g class="text"/></g><g class="trace scatter tracefc8a4f" style="stroke-miterlimit: 2; opacity: 1;"><g class="fills"/><g class="errorbars"><g class="errorbar"><path class="yerror" d="M31.950000000000003,219.18h8m-4,0V222.75m-4,0h8" style="vector-effect: none; stroke-width: 2px; stroke: rgb(17, 119, 51); stroke-opacity: 1;"/></g><g class="errorbar"><path class="yerror" d="M113.68,219.65h8m-4,0V222.92m-4,0h8" style="vector-effect: none; stroke-width: 2px; stroke: rgb(17, 119, 51); stroke-opacity: 1;"/></g><g class="errorbar"><path class="yerror" d="M195.41,217.46h8m-4,0V218.1m-4,0h8" style="vector-effect: none; stroke-width: 2px; stroke: rgb(17, 119, 51); stroke-opacity: 1;"/></g><g class="errorbar"><path class="yerror" d="M277.14,217.08h8m-4,0V222.38m-4,0h8" style="vector-effect: none; stroke-width: 2px; stroke: rgb(17, 119, 51); stroke-opacity: 1;"/></g><g class="errorbar"><path class="yerror" d="M358.86,220.28h8m-4,0V222.55m-4,0h8" style="vector-effect: none; stroke-width: 2px; stroke: rgb(17, 119, 51); stroke-opacity: 1;"/></g><g class="errorbar"><path class="yerror" d="M440.59,214.12h8m-4,0V220.08m-4,0h8" style="vector-effect: none; stroke-width: 2px; stroke: rgb(17, 119, 51); stroke-opacity: 1;"/></g><g class="errorbar"><path class="yerror" d="M522.32,217.1h8m-4,0V221.63m-4,0h8" style="vector-effect: none; stroke-width: 2px; stroke: rgb(17, 119, 51); stroke-opacity: 1;"/></g><g class="errorbar"><path class="yerror" d="M604.05,218.45h8m-4,0V219.93m-4,0h8" style="vector-effect: none; stroke-width: 2px; stroke: rgb(17, 119, 51); stroke-opacity: 1;"/></g></g><g class="lines"><path class="js-line" d="M35.95,220.95L117.68,221.28L199.41,217.78L362.86,221.41L444.59,217.06L526.32,219.34L608.05,219.19" style="vector-effect: none; fill: none; stroke: rgb(17, 119, 51); stroke-opacity: 1; stroke-width: 2px; opacity: 1;"/></g><g class="points"><path class="point plotly-customdata" transform="translate(35.95,220.95)" d="M3,0A3,3 0 1,1 0,-3A3,3 0 0,1 3,0Z" style="opacity: 1; stroke-width: 0px; fill: rgb(17, 119, 51); fill-opacity: 1;"/><path class="point plotly-customdata" transform="translate(117.68,221.28)" d="M3,0A3,3 0 1,1 0,-3A3,3 0 0,1 3,0Z" style="opacity: 1; stroke-width: 0px; fill: rgb(17, 119, 51); fill-opacity: 1;"/><path class="point plotly-customdata" transform="translate(199.41,217.78)" d="M3,0A3,3 0 1,1 0,-3A3,3 0 0,1 3,0Z" style="opacity: 1; stroke-width: 0px; fill: rgb(17, 119, 51); fill-opacity: 1;"/><path class="point plotly-customdata" transform="translate(281.14,219.7)" d="M3,0A3,3 0 1,1 0,-3A3,3 0 0,1 3,0Z" style="opacity: 1; stroke-width: 0px; fill: rgb(17, 119, 51); fill-opacity: 1;"/><path class="point plotly-customdata" transform="translate(362.86,221.41)" d="M3,0A3,3 0 1,1 0,-3A3,3 0 0,1 3,0Z" style="opacity: 1; stroke-width: 0px; fill: rgb(17, 119, 51); fill-opacity: 1;"/><path class="point plotly-customdata" transform="translate(444.59,217.06)" d="M3,0A3,3 0 1,1 0,-3A3,3 0 0,1 3,0Z" style="opacity: 1; stroke-width: 0px; fill: rgb(17, 119, 51); fill-opacity: 1;"/><path class="point plotly-customdata" transform="translate(526.32,219.34)" d="M3,0A3,3 0 1,1 0,-3A3,3 0 0,1 3,0Z" style="opacity: 1; stroke-width: 0px; fill: rgb(17, 119, 51); fill-opacity: 1;"/><path class="point plotly-customdata" transform="translate(608.05,219.19)" d="M3,0A3,3 0 1,1 0,-3A3,3 0 0,1 3,0Z" style="opacity: 1; stroke-width: 0px; fill: rgb(17, 119, 51); fill-opacity: 1;"/></g><g class="text"/></g><g class="trace scatter trace845a1f" style="stroke-miterlimit: 2; opacity: 1;"><g class="fills"/><g class="errorbars"><g class="errorbar"><path class="yerror" d="M31.950000000000003,288.07h8m-4,0V292.13m-4,0h8" style="vector-effect: none; stroke-width: 2px; stroke: rgb(255, 176, 0); stroke-opacity: 1;"/></g><g class="errorbar"><path class="yerror" d="M113.68,289.03h8m-4,0V292.04m-4,0h8" style="vector-effect: none; stroke-width: 2px; stroke: rgb(255, 176, 0); stroke-opacity: 1;"/></g><g class="errorbar"><path class="yerror" d="M195.41,275.69h8m-4,0V284.67m-4,0h8" style="vector-effect: none; stroke-width: 2px; stroke: rgb(255, 176, 0); stroke-opacity: 1;"/></g><g class="errorbar"><path class="yerror" d="M277.14,289.28h8m-4,0V292.58m-4,0h8" style="vector-effect: none; stroke-width: 2px; stroke: rgb(255, 176, 0); stroke-opacity: 1;"/></g><g class="errorbar"><path class="yerror" d="M358.86,223.9h8m-4,0V272.3m-4,0h8" style="vector-effect: none; stroke-width: 2px; stroke: rgb(255, 176, 0); stroke-opacity: 1;"/></g><g class="errorbar"><path class="yerror" d="M440.59,282.5h8m-4,0V284.55m-4,0h8" style="vector-effect: none; stroke-width: 2px; stroke: rgb(255, 176, 0); stroke-opacity: 1;"/></g><g class="errorbar"><path class="yerror" d="M522.32,287.45h8m-4,0V289.98m-4,0h8" style="vector-effect: none; stroke-width: 2px; stroke: rgb(255, 176, 0); stroke-opacity: 1;"/></g><g class="errorbar"><path class="yerror" d="M604.05,286.93h8m-4,0V290.26m-4,0h8" style="vector-effect: none; stroke-width: 2px; stroke: rgb(255, 176, 0); stroke-opacity: 1;"/></g></g><g class="lines"><path class="js-line" d="M35.95,290.08L117.68,290.53L199.41,280.09L281.14,290.92L362.86,245.48L444.59,283.52L526.32,288.71L608.05,288.59" style="vector-effect: none; fill: none; stroke: rgb(255, 176, 0); stroke-opacity: 1; stroke-width: 2px; opacity: 1;"/></g><g class="points"><path class="point plotly-customdata" transform="translate(35.95,290.08)" d="M3,0A3,3 0 1,1 0,-3A3,3 0 0,1 3,0Z" style="opacity: 1; stroke-width: 0px; fill: rgb(255, 176, 0); fill-opacity: 1;"/><path class="point plotly-customdata" transform="translate(117.68,290.53)" d="M3,0A3,3 0 1,1 0,-3A3,3 0 0,1 3,0Z" style="opacity: 1; stroke-width: 0px; fill: rgb(255, 176, 0); fill-opacity: 1;"/><path class="point plotly-customdata" transform="translate(199.41,280.09)" d="M3,0A3,3 0 1,1 0,-3A3,3 0 0,1 3,0Z" style="opacity: 1; stroke-width: 0px; fill: rgb(255, 176, 0); fill-opacity: 1;"/><path class="point plotly-customdata" transform="translate(281.14,290.92)" d="M3,0A3,3 0 1,1 0,-3A3,3 0 0,1 3,0Z" style="opacity: 1; stroke-width: 0px; fill: rgb(255, 176, 0); fill-opacity: 1;"/><path class="point plotly-customdata" transform="translate(362.86,245.48)" d="M3,0A3,3 0 1,1 0,-3A3,3 0 0,1 3,0Z" style="opacity: 1; stroke-width: 0px; fill: rgb(255, 176, 0); fill-opacity: 1;"/><path class="point plotly-customdata" transform="translate(444.59,283.52)" d="M3,0A3,3 0 1,1 0,-3A3,3 0 0,1 3,0Z" style="opacity: 1; stroke-width: 0px; fill: rgb(255, 176, 0); fill-opacity: 1;"/><path class="point plotly-customdata" transform="translate(526.32,288.71)" d="M3,0A3,3 0 1,1 0,-3A3,3 0 0,1 3,0Z" style="opacity: 1; stroke-width: 0px; fill: rgb(255, 176, 0); fill-opacity: 1;"/><path class="point plotly-customdata" transform="translate(608.05,288.59)" d="M3,0A3,3 0 1,1 0,-3A3,3 0 0,1 3,0Z" style="opacity: 1; stroke-width: 0px; fill: rgb(255, 176, 0); fill-opacity: 1;"/></g><g class="text"/></g><g class="trace scatter trace192922" style="stroke-miterlimit: 2; opacity: 1;"><g class="fills"/><g class="errorbars"><g class="errorbar"><path class="yerror" d="M31.950000000000003,333.92h8m-4,0V338.46m-4,0h8" style="vector-effect: none; stroke-width: 2px; stroke: rgb(255, 68, 48); stroke-opacity: 1;"/></g><g class="errorbar"><path class="yerror" d="M113.68,315.13h8m-4,0V338.42m-4,0h8" style="vector-effect: none; stroke-width: 2px; stroke: rgb(255, 68, 48); stroke-opacity: 1;"/></g><g class="errorbar"><path class="yerror" d="M195.41,320.87h8m-4,0V333.72m-4,0h8" style="vector-effect: none; stroke-width: 2px; stroke: rgb(255, 68, 48); stroke-opacity: 1;"/></g><g class="errorbar"><path class="yerror" d="M277.14,311.42h8m-4,0V339.89m-4,0h8" style="vector-effect: none; stroke-width: 2px; stroke: rgb(255, 68, 48); stroke-opacity: 1;"/></g><g class="errorbar"><path class="yerror" d="M358.86,304.66h8m-4,0V334.86m-4,0h8" style="vector-effect: none; stroke-width: 2px; stroke: rgb(255, 68, 48); stroke-opacity: 1;"/></g><g class="errorbar"><path class="yerror" d="M440.59,297.33h8m-4,0V334.58m-4,0h8" style="vector-effect: none; stroke-width: 2px; stroke: rgb(255, 68, 48); stroke-opacity: 1;"/></g><g class="errorbar"><path class="yerror" d="M522.32,336.88h8m-4,0V338.98m-4,0h8" style="vector-effect: none; stroke-width: 2px; stroke: rgb(255, 68, 48); stroke-opacity: 1;"/></g><g class="errorbar"><path class="yerror" d="M604.05,337.28h8m-4,0V339.23m-4,0h8" style="vector-effect: none; stroke-width: 2px; stroke: rgb(255, 68, 48); stroke-opacity: 1;"/></g></g><g class="lines"><path class="js-line" d="M35.95,336.17L117.68,326.16L199.41,327.11L281.14,324.74L362.86,318.73L444.59,314.4L526.32,337.93L608.05,338.25" style="vector-effect: none; fill: none; stroke: rgb(255, 68, 48); stroke-opacity: 1; stroke-width: 2px; opacity: 1;"/></g><g class="points"><path class="point plotly-customdata" transform="translate(35.95,336.17)" d="M3,0A3,3 0 1,1 0,-3A3,3 0 0,1 3,0Z" style="opacity: 1; stroke-width: 0px; fill: rgb(255, 68, 48); fill-opacity: 1;"/><path class="point plotly-customdata" transform="translate(117.68,326.16)" d="M3,0A3,3 0 1,1 0,-3A3,3 0 0,1 3,0Z" style="opacity: 1; stroke-width: 0px; fill: rgb(255, 68, 48); fill-opacity: 1;"/><path class="point plotly-customdata" transform="translate(199.41,327.11)" d="M3,0A3,3 0 1,1 0,-3A3,3 0 0,1 3,0Z" style="opacity: 1; stroke-width: 0px; fill: rgb(255, 68, 48); fill-opacity: 1;"/><path class="point plotly-customdata" transform="translate(281.14,324.74)" d="M3,0A3,3 0 1,1 0,-3A3,3 0 0,1 3,0Z" style="opacity: 1; stroke-width: 0px; fill: rgb(255, 68, 48); fill-opacity: 1;"/><path class="point plotly-customdata" transform="translate(362.86,318.73)" d="M3,0A3,3 0 1,1 0,-3A3,3 0 0,1 3,0Z" style="opacity: 1; stroke-width: 0px; fill: rgb(255, 68, 48); fill-opacity: 1;"/><path class="point plotly-customdata" transform="translate(444.59,314.4)" d="M3,0A3,3 0 1,1 0,-3A3,3 0 0,1 3,0Z" style="opacity: 1; stroke-width: 0px; fill: rgb(255, 68, 48); fill-opacity: 1;"/><path class="point plotly-customdata" transform="translate(526.32,337.93)" d="M3,0A3,3 0 1,1 0,-3A3,3 0 0,1 3,0Z" style="opacity: 1; stroke-width: 0px; fill: rgb(255, 68, 48); fill-opacity: 1;"/><path class="point plotly-customdata" transform="translate(608.05,338.25)" d="M3,0A3,3 0 1,1 0,-3A3,3 0 0,1 3,0Z" style="opacity: 1; stroke-width: 0px; fill: rgb(255, 68, 48); fill-opacity: 1;"/></g><g class="text"/></g><g class="trace scatter trace003b22" style="stroke-miterlimit: 2; opacity: 1;"><g class="fills"/><g class="errorbars"><g class="errorbar"><path class="yerror" d="M31.950000000000003,257.39h8m-4,0V259.04m-4,0h8" style="vector-effect: none; stroke-width: 2px; stroke: rgb(86, 180, 233); stroke-opacity: 1;"/></g><g class="errorbar"><path class="yerror" d="M113.68,260.21h8m-4,0V283.62m-4,0h8" style="vector-effect: none; stroke-width: 2px; stroke: rgb(86, 180, 233); stroke-opacity: 1;"/></g><g class="errorbar"><path class="yerror" d="M195.41,258.6h8m-4,0V264.95m-4,0h8" style="vector-effect: none; stroke-width: 2px; stroke: rgb(86, 180, 233); stroke-opacity: 1;"/></g><g class="errorbar"><path class="yerror" d="M277.14,241.17h8m-4,0V278.75m-4,0h8" style="vector-effect: none; stroke-width: 2px; stroke: rgb(86, 180, 233); stroke-opacity: 1;"/></g><g class="errorbar"><path class="yerror" d="M358.86,258.72h8m-4,0V263.08m-4,0h8" style="vector-effect: none; stroke-width: 2px; stroke: rgb(86, 180, 233); stroke-opacity: 1;"/></g><g class="errorbar"><path class="yerror" d="M440.59,266.09h8m-4,0V298.59m-4,0h8" style="vector-effect: none; stroke-width: 2px; stroke: rgb(86, 180, 233); stroke-opacity: 1;"/></g><g class="errorbar"><path class="yerror" d="M522.32,257.39h8m-4,0V258.09m-4,0h8" style="vector-effect: none; stroke-width: 2px; stroke: rgb(86, 180, 233); stroke-opacity: 1;"/></g><g class="errorbar"><path class="yerror" d="M604.05,259.44h8m-4,0V279.83m-4,0h8" style="vector-effect: none; stroke-width: 2px; stroke: rgb(86, 180, 233); stroke-opacity: 1;"/></g></g><g class="lines"><path class="js-line" d="M35.95,258.22L117.68,271.3L199.41,261.73L281.14,258.38L362.86,260.88L444.59,281.15L526.32,257.74L608.05,269.16" style="vector-effect: none; fill: none; stroke: rgb(86, 180, 233); stroke-opacity: 1; stroke-width: 2px; opacity: 1;"/></g><g class="points"><path class="point plotly-customdata" transform="translate(35.95,258.22)" d="M3,0A3,3 0 1,1 0,-3A3,3 0 0,1 3,0Z" style="opacity: 1; stroke-width: 0px; fill: rgb(86, 180, 233); fill-opacity: 1;"/><path class="point plotly-customdata" transform="translate(117.68,271.3)" d="M3,0A3,3 0 1,1 0,-3A3,3 0 0,1 3,0Z" style="opacity: 1; stroke-width: 0px; fill: rgb(86, 180, 233); fill-opacity: 1;"/><path class="point plotly-customdata" transform="translate(199.41,261.73)" d="M3,0A3,3 0 1,1 0,-3A3,3 0 0,1 3,0Z" style="opacity: 1; stroke-width: 0px; fill: rgb(86, 180, 233); fill-opacity: 1;"/><path class="point plotly-customdata" transform="translate(281.14,258.38)" d="M3,0A3,3 0 1,1 0,-3A3,3 0 0,1 3,0Z" style="opacity: 1; stroke-width: 0px; fill: rgb(86, 180, 233); fill-opacity: 1;"/><path class="point plotly-customdata" transform="translate(362.86,260.88)" d="M3,0A3,3 0 1,1 0,-3A3,3 0 0,1 3,0Z" style="opacity: 1; stroke-width: 0px; fill: rgb(86, 180, 233); fill-opacity: 1;"/><path class="point plotly-customdata" transform="translate(444.59,281.15)" d="M3,0A3,3 0 1,1 0,-3A3,3 0 0,1 3,0Z" style="opacity: 1; stroke-width: 0px; fill: rgb(86, 180, 233); fill-opacity: 1;"/><path class="point plotly-customdata" transform="translate(526.32,257.74)" d="M3,0A3,3 0 1,1 0,-3A3,3 0 0,1 3,0Z" style="opacity: 1; stroke-width: 0px; fill: rgb(86, 180, 233); fill-opacity: 1;"/><path class="point plotly-customdata" transform="translate(608.05,269.16)" d="M3,0A3,3 0 1,1 0,-3A3,3 0 0,1 3,0Z" style="opacity: 1; stroke-width: 0px; fill: rgb(86, 180, 233); fill-opacity: 1;"/></g><g class="text"/></g><g class="trace scatter tracef2f87a" style="stroke-miterlimit: 2; opacity: 1;"><g class="fills"/><g class="errorbars"><g class="errorbar"><path class="yerror" d="M31.950000000000003,59.56h8m-4,0V194.95m-4,0h8" style="vector-effect: none; stroke-width: 2px; stroke: rgb(171, 2, 158); stroke-opacity: 1;"/></g><g class="errorbar"><path class="yerror" d="M113.68,55.68h8m-4,0V196.57m-4,0h8" style="vector-effect: none; stroke-width: 2px; stroke: rgb(171, 2, 158); stroke-opacity: 1;"/></g><g class="errorbar"><path class="yerror" d="M195.41,54.64h8m-4,0V188.76m-4,0h8" style="vector-effect: none; stroke-width: 2px; stroke: rgb(171, 2, 158); stroke-opacity: 1;"/></g><g class="errorbar"><path class="yerror" d="M277.14,57.16h8m-4,0V185.3m-4,0h8" style="vector-effect: none; stroke-width: 2px; stroke: rgb(171, 2, 158); stroke-opacity: 1;"/></g><g class="errorbar"><path class="yerror" d="M358.86,48.33h8m-4,0V167.24m-4,0h8" style="vector-effect: none; stroke-width: 2px; stroke: rgb(171, 2, 158); stroke-opacity: 1;"/></g><g class="errorbar"><path class="yerror" d="M440.59,48.36h8m-4,0V157.68m-4,0h8" style="vector-effect: none; stroke-width: 2px; stroke: rgb(171, 2, 158); stroke-opacity: 1;"/></g><g class="errorbar"><path class="yerror" d="M522.32,18h8m-4,0V122.21m-4,0h8" style="vector-effect: none; stroke-width: 2px; stroke: rgb(171, 2, 158); stroke-opacity: 1;"/></g><g class="errorbar"><path class="yerror" d="M604.05,45.54h8m-4,0V150.84m-4,0h8" style="vector-effect: none; stroke-width: 2px; stroke: rgb(171, 2, 158); stroke-opacity: 1;"/></g></g><g class="lines"><path class="js-line" d="M35.95,107.79L199.41,102.57L281.14,103.69L362.86,92.58L444.59,90.08L526.32,58.3L608.05,86.15" style="vector-effect: none; fill: none; stroke: rgb(171, 2, 158); stroke-opacity: 1; stroke-width: 2px; opacity: 1;"/></g><g class="points"><path class="point plotly-customdata" transform="translate(35.95,107.79)" d="M3,0A3,3 0 1,1 0,-3A3,3 0 0,1 3,0Z" style="opacity: 1; stroke-width: 0px; fill: rgb(171, 2, 158); fill-opacity: 1;"/><path class="point plotly-customdata" transform="translate(117.68,105.13)" d="M3,0A3,3 0 1,1 0,-3A3,3 0 0,1 3,0Z" style="opacity: 1; stroke-width: 0px; fill: rgb(171, 2, 158); fill-opacity: 1;"/><path class="point plotly-customdata" transform="translate(199.41,102.57)" d="M3,0A3,3 0 1,1 0,-3A3,3 0 0,1 3,0Z" style="opacity: 1; stroke-width: 0px; fill: rgb(171, 2, 158); fill-opacity: 1;"/><path class="point plotly-customdata" transform="translate(281.14,103.69)" d="M3,0A3,3 0 1,1 0,-3A3,3 0 0,1 3,0Z" style="opacity: 1; stroke-width: 0px; fill: rgb(171, 2, 158); fill-opacity: 1;"/><path class="point plotly-customdata" transform="translate(362.86,92.58)" d="M3,0A3,3 0 1,1 0,-3A3,3 0 0,1 3,0Z" style="opacity: 1; stroke-width: 0px; fill: rgb(171, 2, 158); fill-opacity: 1;"/><path class="point plotly-customdata" transform="translate(444.59,90.08)" d="M3,0A3,3 0 1,1 0,-3A3,3 0 0,1 3,0Z" style="opacity: 1; stroke-width: 0px; fill: rgb(171, 2, 158); fill-opacity: 1;"/><path class="point plotly-customdata" transform="translate(526.32,58.3)" d="M3,0A3,3 0 1,1 0,-3A3,3 0 0,1 3,0Z" style="opacity: 1; stroke-width: 0px; fill: rgb(171, 2, 158); fill-opacity: 1;"/><path class="point plotly-customdata" transform="translate(608.05,86.15)" d="M3,0A3,3 0 1,1 0,-3A3,3 0 0,1 3,0Z" style="opacity: 1; stroke-width: 0px; fill: rgb(171, 2, 158); fill-opacity: 1;"/></g><g class="text"/></g></g></g></g><path class="xlines-above crisp" d="M0,0" style="fill: none;"/><path class="ylines-above crisp" d="M0,0" style="fill: none;"/><g class="overlines-above"/><g class="xaxislayer-above"><g class="xtick"><text text-anchor="middle" x="0" y="433" transform="translate(115.95,0)" style="font-family: 'Open Sans', verdana, arial, sans-serif; font-size: 12px; fill: rgb(42, 63, 95); fill-opacity: 1; white-space: pre; opacity: 1;">None None</text></g><g class="xtick"><text text-anchor="middle" x="0" y="433" transform="translate(197.68,0)" style="font-family: 'Open Sans', verdana, arial, sans-serif; font-size: 12px; fill: rgb(42, 63, 95); fill-opacity: 1; white-space: pre; opacity: 1;">1280.0 MB</text></g><g class="xtick"><text text-anchor="middle" x="0" y="433" transform="translate(279.40999999999997,0)" style="font-family: 'Open Sans', verdana, arial, sans-serif; font-size: 12px; fill: rgb(42, 63, 95); fill-opacity: 1; white-space: pre; opacity: 1;">640.0 MB</text></g><g class="xtick"><text text-anchor="middle" x="0" y="433" transform="translate(361.14,0)" style="font-family: 'Open Sans', verdana, arial, sans-serif; font-size: 12px; fill: rgb(42, 63, 95); fill-opacity: 1; white-space: pre; opacity: 1;">320.0 MB</text></g><g class="xtick"><text text-anchor="middle" x="0" y="433" transform="translate(442.86,0)" style="font-family: 'Open Sans', verdana, arial, sans-serif; font-size: 12px; fill: rgb(42, 63, 95); fill-opacity: 1; white-space: pre; opacity: 1;">160.0 MB</text></g><g class="xtick"><text text-anchor="middle" x="0" y="433" transform="translate(524.5899999999999,0)" style="font-family: 'Open Sans', verdana, arial, sans-serif; font-size: 12px; fill: rgb(42, 63, 95); fill-opacity: 1; white-space: pre; opacity: 1;">80.0 MB</text></g><g class="xtick"><text text-anchor="middle" x="0" y="433" transform="translate(606.32,0)" style="font-family: 'Open Sans', verdana, arial, sans-serif; font-size: 12px; fill: rgb(42, 63, 95); fill-opacity: 1; white-space: pre; opacity: 1;">40.0 MB</text></g><g class="xtick"><text text-anchor="middle" x="0" y="433" transform="translate(688.05,0)" style="font-family: 'Open Sans', verdana, arial, sans-serif; font-size: 12px; fill: rgb(42, 63, 95); fill-opacity: 1; white-space: pre; opacity: 1;">20.0 MB</text></g></g><g class="yaxislayer-above"><g class="ytick"><text text-anchor="end" x="79" y="3.15" transform="translate(0,398.18)" style="font-family: 'Open Sans', verdana, arial, sans-serif; font-size: 9px; fill: rgb(42, 63, 95); fill-opacity: 1; white-space: pre; opacity: 1;">2</text></g><g class="ytick"><text text-anchor="end" x="79" y="3.15" style="font-family: 'Open Sans', verdana, arial, sans-serif; font-size: 9px; fill: rgb(42, 63, 95); fill-opacity: 1; white-space: pre; opacity: 1;" transform="translate(0,353.16)">3</text></g><g class="ytick"><text text-anchor="end" x="79" y="3.15" style="font-family: 'Open Sans', verdana, arial, sans-serif; font-size: 9px; fill: rgb(42, 63, 95); fill-opacity: 1; white-space: pre; opacity: 1;" transform="translate(0,321.22)">4</text></g><g class="ytick"><text text-anchor="end" x="79" y="3.15" style="font-family: 'Open Sans', verdana, arial, sans-serif; font-size: 9px; fill: rgb(42, 63, 95); fill-opacity: 1; white-space: pre; opacity: 1;" transform="translate(0,296.44)">5</text></g><g class="ytick"><text text-anchor="end" x="79" y="3.15" style="font-family: 'Open Sans', verdana, arial, sans-serif; font-size: 9px; fill: rgb(42, 63, 95); fill-opacity: 1; white-space: pre; opacity: 1;" transform="translate(0,276.19)">6</text></g><g class="ytick"><text text-anchor="end" x="79" y="3.15" style="font-family: 'Open Sans', verdana, arial, sans-serif; font-size: 9px; fill: rgb(42, 63, 95); fill-opacity: 1; white-space: pre; opacity: 1;" transform="translate(0,259.08000000000004)">7</text></g><g class="ytick"><text text-anchor="end" x="79" y="3.15" style="font-family: 'Open Sans', verdana, arial, sans-serif; font-size: 9px; fill: rgb(42, 63, 95); fill-opacity: 1; white-space: pre; opacity: 1;" transform="translate(0,244.25)">8</text></g><g class="ytick"><text text-anchor="end" x="79" y="3.15" style="font-family: 'Open Sans', verdana, arial, sans-serif; font-size: 9px; fill: rgb(42, 63, 95); fill-opacity: 1; white-space: pre; opacity: 1;" transform="translate(0,231.17)">9</text></g><g class="ytick"><text text-anchor="end" x="76" y="2.1999999999999993" style="font-family: 'Open Sans', verdana, arial, sans-serif; font-size: 12px; fill: rgb(42, 63, 95); fill-opacity: 1; white-space: pre; opacity: 1;" transform="translate(0,219.47)">10</text></g><g class="ytick"><text text-anchor="end" x="79" y="3.15" style="font-family: 'Open Sans', verdana, arial, sans-serif; font-size: 9px; fill: rgb(42, 63, 95); fill-opacity: 1; white-space: pre; opacity: 1;" transform="translate(0,142.5)">2</text></g><g class="ytick"><text text-anchor="end" x="79" y="3.15" style="font-family: 'Open Sans', verdana, arial, sans-serif; font-size: 9px; fill: rgb(42, 63, 95); fill-opacity: 1; white-space: pre; opacity: 1;" transform="translate(0,97.47999999999999)">3</text></g><g class="ytick"><text text-anchor="end" x="79" y="3.15" style="font-family: 'Open Sans', verdana, arial, sans-serif; font-size: 9px; fill: rgb(42, 63, 95); fill-opacity: 1; white-space: pre; opacity: 1;" transform="translate(0,65.53)">4</text></g></g><g class="overaxes-above"/></g></g><g class="polarlayer"/><g class="smithlayer"/><g class="ternarylayer"/><g class="geolayer"/><g class="funnelarealayer"/><g class="pielayer"/><g class="iciclelayer"/><g class="treemaplayer"/><g class="sunburstlayer"/><g class="glimages"/><defs id="topdefs-1b2f90"><g class="clips"/><clipPath id="legend1b2f90"><rect width="151" height="143" x="0" y="0"/></clipPath></defs><g class="layer-above"><g class="imagelayer"/><g class="shapelayer"/></g><g class="infolayer"><g class="legend" pointer-events="all" transform="translate(736.88,60)"><rect class="bg" shape-rendering="crispEdges" width="151" height="143" x="0" y="0" style="stroke: rgb(68, 68, 68); stroke-opacity: 1; fill: rgb(255, 255, 255); fill-opacity: 1; stroke-width: 0px;"/><g class="scrollbox" transform="" clip-path="url(#legend1b2f90)"><text class="legendtitletext" text-anchor="start" x="2" y="18.2" style="font-family: 'Open Sans', verdana, arial, sans-serif; font-size: 14px; fill: rgb(42, 63, 95); fill-opacity: 1; white-space: pre;">engine</text><g class="groups" transform=""><g class="traces" transform="translate(0,32.7)" style="opacity: 1;"><text class="legendtext" text-anchor="start" x="40" y="4.680000000000001" style="font-family: 'Open Sans', verdana, arial, sans-serif; font-size: 12px; fill: rgb(42, 63, 95); fill-opacity: 1; white-space: pre;">netcdf4-c</text><g class="layers" style="opacity: 1;"><g class="legendfill"/><g class="legendlines"><path class="js-line" d="M5,0h30" style="fill: none; stroke: rgb(75, 0, 146); stroke-opacity: 1; stroke-width: 2px;"/></g><g class="legendsymbols"><g class="legendpoints"><path class="scatterpts" transform="translate(20,0)" d="M3,0A3,3 0 1,1 0,-3A3,3 0 0,1 3,0Z" style="opacity: 1; stroke-width: 0px; fill: rgb(75, 0, 146); fill-opacity: 1;"/></g></g></g><rect class="legendtoggle" x="0" y="-9.5" width="145.671875" height="19" style="fill: rgb(0, 0, 0); fill-opacity: 0;"/></g></g><g class="groups" transform=""><g class="traces" transform="translate(0,51.7)" style="opacity: 1;"><text class="legendtext" text-anchor="start" x="40" y="4.680000000000001" style="font-family: 'Open Sans', verdana, arial, sans-serif; font-size: 12px; fill: rgb(42, 63, 95); fill-opacity: 1; white-space: pre;">hdf5-c</text><g class="layers" style="opacity: 1;"><g class="legendfill"/><g class="legendlines"><path class="js-line" d="M5,0h30" style="fill: none; stroke: rgb(17, 119, 51); stroke-opacity: 1; stroke-width: 2px;"/></g><g class="legendsymbols"><g class="legendpoints"><path class="scatterpts" transform="translate(20,0)" d="M3,0A3,3 0 1,1 0,-3A3,3 0 0,1 3,0Z" style="opacity: 1; stroke-width: 0px; fill: rgb(17, 119, 51); fill-opacity: 1;"/></g></g></g><rect class="legendtoggle" x="0" y="-9.5" width="145.671875" height="19" style="fill: rgb(0, 0, 0); fill-opacity: 0;"/></g></g><g class="groups" transform=""><g class="traces" transform="translate(0,70.7)" style="opacity: 1;"><text class="legendtext" text-anchor="start" x="40" y="4.680000000000001" style="font-family: 'Open Sans', verdana, arial, sans-serif; font-size: 12px; fill: rgb(42, 63, 95); fill-opacity: 1; white-space: pre;">netcdf4-c-parallel</text><g class="layers" style="opacity: 1;"><g class="legendfill"/><g class="legendlines"><path class="js-line" d="M5,0h30" style="fill: none; stroke: rgb(255, 176, 0); stroke-opacity: 1; stroke-width: 2px;"/></g><g class="legendsymbols"><g class="legendpoints"><path class="scatterpts" transform="translate(20,0)" d="M3,0A3,3 0 1,1 0,-3A3,3 0 0,1 3,0Z" style="opacity: 1; stroke-width: 0px; fill: rgb(255, 176, 0); fill-opacity: 1;"/></g></g></g><rect class="legendtoggle" x="0" y="-9.5" width="145.671875" height="19" style="fill: rgb(0, 0, 0); fill-opacity: 0;"/></g></g><g class="groups" transform=""><g class="traces" transform="translate(0,89.7)" style="opacity: 1;"><text class="legendtext" text-anchor="start" x="40" y="4.680000000000001" style="font-family: 'Open Sans', verdana, arial, sans-serif; font-size: 12px; fill: rgb(42, 63, 95); fill-opacity: 1; white-space: pre;">hdf5-c-parallel</text><g class="layers" style="opacity: 1;"><g class="legendfill"/><g class="legendlines"><path class="js-line" d="M5,0h30" style="fill: none; stroke: rgb(255, 68, 48); stroke-opacity: 1; stroke-width: 2px;"/></g><g class="legendsymbols"><g class="legendpoints"><path class="scatterpts" transform="translate(20,0)" d="M3,0A3,3 0 1,1 0,-3A3,3 0 0,1 3,0Z" style="opacity: 1; stroke-width: 0px; fill: rgb(255, 68, 48); fill-opacity: 1;"/></g></g></g><rect class="legendtoggle" x="0" y="-9.5" width="145.671875" height="19" style="fill: rgb(0, 0, 0); fill-opacity: 0;"/></g></g><g class="groups" transform=""><g class="traces" transform="translate(0,108.7)" style="opacity: 1;"><text class="legendtext" text-anchor="start" x="40" y="4.680000000000001" style="font-family: 'Open Sans', verdana, arial, sans-serif; font-size: 12px; fill: rgb(42, 63, 95); fill-opacity: 1; white-space: pre;">hdf5-async</text><g class="layers" style="opacity: 1;"><g class="legendfill"/><g class="legendlines"><path class="js-line" d="M5,0h30" style="fill: none; stroke: rgb(86, 180, 233); stroke-opacity: 1; stroke-width: 2px;"/></g><g class="legendsymbols"><g class="legendpoints"><path class="scatterpts" transform="translate(20,0)" d="M3,0A3,3 0 1,1 0,-3A3,3 0 0,1 3,0Z" style="opacity: 1; stroke-width: 0px; fill: rgb(86, 180, 233); fill-opacity: 1;"/></g></g></g><rect class="legendtoggle" x="0" y="-9.5" width="145.671875" height="19" style="fill: rgb(0, 0, 0); fill-opacity: 0;"/></g></g><g class="groups" transform=""><g class="traces" transform="translate(0,127.7)" style="opacity: 1;"><text class="legendtext" text-anchor="start" x="40" y="4.680000000000001" style="font-family: 'Open Sans', verdana, arial, sans-serif; font-size: 12px; fill: rgb(42, 63, 95); fill-opacity: 1; white-space: pre;">hdf5-subfiling</text><g class="layers" style="opacity: 1;"><g class="legendfill"/><g class="legendlines"><path class="js-line" d="M5,0h30" style="fill: none; stroke: rgb(171, 2, 158); stroke-opacity: 1; stroke-width: 2px;"/></g><g class="legendsymbols"><g class="legendpoints"><path class="scatterpts" transform="translate(20,0)" d="M3,0A3,3 0 1,1 0,-3A3,3 0 0,1 3,0Z" style="opacity: 1; stroke-width: 0px; fill: rgb(171, 2, 158); fill-opacity: 1;"/></g></g></g><rect class="legendtoggle" x="0" y="-9.5" width="145.671875" height="19" style="fill: rgb(0, 0, 0); fill-opacity: 0;"/></g></g></g><rect class="scrollbar" rx="20" ry="3" width="0" height="0" x="0" y="0" style="fill: rgb(128, 139, 164); fill-opacity: 1;"/></g><g class="g-gtitle"/><g class="g-xtitle"><text class="xtitle" x="402" y="460.3" text-anchor="middle" style="opacity: 1; font-family: 'Open Sans', verdana, arial, sans-serif; font-size: 14px; fill: rgb(42, 63, 95); fill-opacity: 1; white-space: pre;">filesize per chunk</text></g><g class="g-ytitle"><text class="ytitle" transform="rotate(-90,41.31875,240)" x="41.31875" y="240" text-anchor="middle" style="opacity: 1; font-family: 'Open Sans', verdana, arial, sans-serif; font-size: 14px; fill: rgb(42, 63, 95); fill-opacity: 1; white-space: pre;">mean time in seconds (s)</text></g></g></svg>