<svg class="main-svg" xmlns="http://www.w3.org/2000/svg" xmlns:xlink="http://www.w3.org/1999/xlink" width="900" height="500" style="" viewBox="0 0 900 500"><rect x="0" y="0" width="900" height="500" style="fill: rgb(255, 255, 255); fill-opacity: 1;"/><defs id="defs-cbd67e"><g class="clips"><clipPath id="clipcbd67exyplot" class="plotclip"><rect width="644" height="320"/></clipPath><clipPath class="axesclip" id="clipcbd67ex"><rect x="80" y="0" width="644" height="500"/></clipPath><clipPath class="axesclip" id="clipcbd67ey"><rect x="0" y="100" width="900" height="320"/></clipPath><clipPath class="axesclip" id="clipcbd67exy"><rect x="80" y="100" width="644" height="320"/></clipPath></g><g class="gradients"/><g class="patterns"/></defs><g class="bglayer"><rect class="bg" x="80" y="100" width="644" height="320" style="fill: rgb(229, 236, 246); fill-opacity: 1; stroke-width: 0;"/></g><g class="layer-below"><g class="imagelayer"/><g class="shapelayer"/></g><g class="cartesianlayer"><g class="subplot xy"><g class="layer-subplot"><g class="shapelayer"/><g class="imagelayer"/></g><g class="minor-gridlayer"><g class="x"/><g class="y"/></g><g class="gridlayer"><g class="x"><path class="xgrid crisp" transform="translate(115.95,0)" d="M0,100v320" style="stroke: rgb(255, 255, 255); stroke-opacity: 1; stroke-width: 1px;"/><path class="xgrid crisp" transform="translate(197.68,0)" d="M0,100v320" style="stroke: rgb(255, 255, 255); stroke-opacity: 1; stroke-width: 1px;"/><path class="xgrid crisp" transform="translate(279.40999999999997,0)" d="M0,100v320" style="stroke: rgb(255, 255, 255); stroke-opacity: 1; stroke-width: 1px;"/><path class="xgrid crisp" transform="translate(361.14,0)" d="M0,100v320" style="stroke: rgb(255, 255, 255); stroke-opacity: 1; stroke-width: 1px;"/><path class="xgrid crisp" transform="translate(442.86,0)" d="M0,100v320" style="stroke: rgb(255, 255, 255); stroke-opacity: 1; stroke-width: 1px;"/><path class="xgrid crisp" transform="translate(524.5899999999999,0)" d="M0,100v320" style="stroke: rgb(255, 255, 255); stroke-opacity: 1; stroke-width: 1px;"/><path class="xgrid crisp" transform="translate(606.32,0)" d="M0,100v320" style="stroke: rgb(255, 255, 255); stroke-opacity: 1; stroke-width: 1px;"/><path class="xgrid crisp" transform="translate(688.05,0)" d="M0,100v320" style="stroke: rgb(255, 255, 255); stroke-opacity: 1; stroke-width: 1px;"/></g><g class="y"><path class="ygrid crisp" transform="translate(0,400.19)" d="M80,0h644" style="stroke: rgb(255, 255, 255); stroke-opacity: 1; stroke-width: 1px;"/><path class="ygrid crisp" transform="translate(0,360.23)" d="M80,0h644" style="stroke: rgb(255, 255, 255); stroke-opacity: 1; stroke-width: 1px;"/><path class="ygrid crisp" transform="translate(0,331.88)" d="M80,0h644" style="stroke: rgb(255, 255, 255); stroke-opacity: 1; stroke-width: 1px;"/><path class="ygrid crisp" transform="translate(0,309.88)" d="M80,0h644" style="stroke: rgb(255, 255, 255); stroke-opacity: 1; stroke-width: 1px;"/><path class="ygrid crisp" transform="translate(0,291.90999999999997)" d="M80,0h644" style="stroke: rgb(255, 255, 255); stroke-opacity: 1; stroke-width: 1px;"/><path class="ygrid crisp" transform="translate(0,276.72)" d="M80,0h644" style="stroke: rgb(255, 255, 255); stroke-opacity: 1; stroke-width: 1px;"/><path class="ygrid crisp" transform="translate(0,263.56)" d="M80,0h644" style="stroke: rgb(255, 255, 255); stroke-opacity: 1; stroke-width: 1px;"/><path class="ygrid crisp" transform="translate(0,251.95)" d="M80,0h644" style="stroke: rgb(255, 255, 255); stroke-opacity: 1; stroke-width: 1px;"/><path class="ygrid crisp" transform="translate(0,241.57)" d="M80,0h644" style="stroke: rgb(255, 255, 255); stroke-opacity: 1; stroke-width: 1px;"/><path class="ygrid crisp" transform="translate(0,173.25)" d="M80,0h644" style="stroke: rgb(255, 255, 255); stroke-opacity: 1; stroke-width: 1px;"/><path class="ygrid crisp" transform="translate(0,133.29)" d="M80,0h644" style="stroke: rgb(255, 255, 255); stroke-opacity: 1; stroke-width: 1px;"/><path class="ygrid crisp" transform="translate(0,104.93)" d="M80,0h644" style="stroke: rgb(255, 255, 255); stroke-opacity: 1; stroke-width: 1px;"/></g></g><g class="zerolinelayer"/><g class="layer-between"><g class="shapelayer"/><g class="imagelayer"/></g><path class="xlines-below"/><path class="ylines-below"/><g class="overlines-below"/><g class="xaxislayer-below"/><g class="yaxislayer-below"/><g class="overaxes-below"/><g class="overplot"><g class="xy" transform="translate(80,100)" clip-path="url(#clipcbd67exyplot)"><g class="scatterlayer mlayer"><g class="trace scatter trace03aa80" style="stroke-miterlimit: 2; opacity: 1;"><g class="fills"/><g class="errorbars"><g class="errorbar"><path class="yerror" d="M31.950000000000003,255.71h8m-4,0V259.31m-4,0h8" style="vector-effect: none; stroke-width: 2px; stroke: rgb(255, 176, 0); stroke-opacity: 1;"/></g><g class="errorbar"><path class="yerror" d="M113.68,256.56h8m-4,0V259.24m-4,0h8" style="vector-effect: none; stroke-width: 2px; stroke: rgb(255, 176, 0); stroke-opacity: 1;"/></g><g class="errorbar"><path class="yerror" d="M195.41,244.72h8m-4,0V252.7m-4,0h8" style="vector-effect: none; stroke-width: 2px; stroke: rgb(255, 176, 0); stroke-opacity: 1;"/></g><g class="errorbar"><path class="yerror" d="M277.14,256.79h8m-4,0V259.71m-4,0h8" style="vector-effect: none; stroke-width: 2px; stroke: rgb(255, 176, 0); stroke-opacity: 1;"/></g><g class="errorbar"><path class="yerror" d="M358.86,198.76h8m-4,0V241.71m-4,0h8" style="vector-effect: none; stroke-width: 2px; stroke: rgb(255, 176, 0); stroke-opacity: 1;"/></g><g class="errorbar"><path class="yerror" d="M440.59,250.77h8m-4,0V252.59m-4,0h8" style="vector-effect: none; stroke-width: 2px; stroke: rgb(255, 176, 0); stroke-opacity: 1;"/></g><g class="errorbar"><path class="yerror" d="M522.32,255.16h8m-4,0V257.41m-4,0h8" style="vector-effect: none; stroke-width: 2px; stroke: rgb(255, 176, 0); stroke-opacity: 1;"/></g><g class="errorbar"><path class="yerror" d="M604.05,254.7h8m-4,0V257.66m-4,0h8" style="vector-effect: none; stroke-width: 2px; stroke: rgb(255, 176, 0); stroke-opacity: 1;"/></g></g><g class="lines"><path class="js-line" d="M35.95,257.49L117.68,257.89L199.41,248.63L281.14,258.24L362.86,217.91L444.59,251.68L526.32,256.28L608.05,256.17" style="vector-effect: none; fill: none; stroke: rgb(255, 176, 0); stroke-opacity: 1; stroke-width: 2px; opacity: 1;"/></g><g class="points"><path class="point plotly-customdata" transform="translate(35.95,257.49)" d="M3,0A3,3 0 1,1 0,-3A3,3 0 0,1 3,0Z" style="opacity: 1; stroke-width: 0px; fill: rgb(255, 176, 0); fill-opacity: 1;"/><path class="point plotly-customdata" transform="translate(117.68,257.89)" d="M3,0A3,3 0 1,1 0,-3A3,3 0 0,1 3,0Z" style="opacity: 1; stroke-width: 0px; fill: rgb(255, 176, 0); fill-opacity: 1;"/><path class="point plotly-customdata" transform="translate(199.41,248.63)" d="M3,0A3,3 0 1,1 0,-3A3,3 0 0,1 3,0Z" style="opacity: 1; stroke-width: 0px; fill: rgb(255, 176, 0); fill-opacity: 1;"/><path class="point plotly-customdata" transform="translate(281.14,258.24)" d="M3,0A3,3 0 1,1 0,-3A3,3 0 0,1 3,0Z" style="opacity: 1; stroke-width: 0px; fill: rgb(255, 176, 0); fill-opacity: 1;"/><path class="point plotly-customdata" transform="translate(362.86,217.91)" d="M3,0A3,3 0 1,1 0,-3A3,3 0 0,1 3,0Z" style="opacity: 1; stroke-width: 0px; fill: rgb(255, 176, 0); fill-opacity: 1;"/><path class="point plotly-customdata" transform="translate(444.59,251.68)" d="M3,0A3,3 0 1,1 0,-3A3,3 0 0,1 3,0Z" style="opacity: 1; stroke-width: 0px; fill: rgb(255, 176, 0); fill-opacity: 1;"/><path class="point plotly-customdata" transform="translate(526.32,256.28)" d="M3,0A3,3 0 1,1 0,-3A3,3 0 0,1 3,0Z" style="opacity: 1; stroke-width: 0px; fill: rgb(255, 176, 0); fill-opacity: 1;"/><path class="point plotly-customdata" transform="translate(608.05,256.17)" d="M3,0A3,3 0 1,1 0,-3A3,3 0 0,1 3,0Z" style="opacity: 1; stroke-width: 0px; fill: rgb(255, 176, 0); fill-opacity: 1;"/></g><g class="text"/></g><g class="trace scatter trace35d9d4" style="stroke-miterlimit: 2; opacity: 1;"><g class="fills"/><g class="errorbars"><g class="errorbar"><path class="yerror" d="M31.950000000000003,296.41h8m-4,0V300.43m-4,0h8" style="vector-effect: none; stroke-width: 2px; stroke: rgb(255, 68, 48); stroke-opacity: 1;"/></g><g class="errorbar"><path class="yerror" d="M113.68,279.73h8m-4,0V300.4m-4,0h8" style="vector-effect: none; stroke-width: 2px; stroke: rgb(255, 68, 48); stroke-opacity: 1;"/></g><g class="errorbar"><path class="yerror" d="M195.41,284.83h8m-4,0V296.23m-4,0h8" style="vector-effect: none; stroke-width: 2px; stroke: rgb(255, 68, 48); stroke-opacity: 1;"/></g><g class="errorbar"><path class="yerror" d="M277.14,276.44h8m-4,0V301.7m-4,0h8" style="vector-effect: none; stroke-width: 2px; stroke: rgb(255, 68, 48); stroke-opacity: 1;"/></g><g class="errorbar"><path class="yerror" d="M358.86,270.43h8m-4,0V297.24m-4,0h8" style="vector-effect: none; stroke-width: 2px; stroke: rgb(255, 68, 48); stroke-opacity: 1;"/></g><g class="errorbar"><path class="yerror" d="M440.59,263.93h8m-4,0V296.99m-4,0h8" style="vector-effect: none; stroke-width: 2px; stroke: rgb(255, 68, 48); stroke-opacity: 1;"/></g><g class="errorbar"><path class="yerror" d="M522.32,299.04h8m-4,0V300.9m-4,0h8" style="vector-effect: none; stroke-width: 2px; stroke: rgb(255, 68, 48); stroke-opacity: 1;"/></g><g class="errorbar"><path class="yerror" d="M604.05,299.39h8m-4,0V301.12m-4,0h8" style="vector-effect: none; stroke-width: 2px; stroke: rgb(255, 68, 48); stroke-opacity: 1;"/></g></g><g class="lines"><path class="js-line" d="M35.95,298.4L117.68,289.52L199.41,290.36L281.14,288.26L362.86,282.93L444.59,279.08L526.32,299.96L608.05,300.25" style="vector-effect: none; fill: none; stroke: rgb(255, 68, 48); stroke-opacity: 1; stroke-width: 2px; opacity: 1;"/></g><g class="points"><path class="point plotly-customdata" transform="translate(35.95,298.4)" d="M3,0A3,3 0 1,1 0,-3A3,3 0 0,1 3,0Z" style="opacity: 1; stroke-width: 0px; fill: rgb(255, 68, 48); fill-opacity: 1;"/><path class="point plotly-customdata" transform="translate(117.68,289.52)" d="M3,0A3,3 0 1,1 0,-3A3,3 0 0,1 3,0Z" style="opacity: 1; stroke-width: 0px; fill: rgb(255, 68, 48); fill-opacity: 1;"/><path class="point plotly-customdata" transform="translate(199.41,290.36)" d="M3,0A3,3 0 1,1 0,-3A3,3 0 0,1 3,0Z" style="opacity: 1; stroke-width: 0px; fill: rgb(255, 68, 48); fill-opacity: 1;"/><path class="point plotly-customdata" transform="translate(281.14,288.26)" d="M3,0A3,3 0 1,1 0,-3A3,3 0 0,1 3,0Z" style="opacity: 1; stroke-width: 0px; fill: rgb(255, 68, 48); fill-opacity: 1;"/><path class="point plotly-customdata" transform="translate(362.86,282.93)" d="M3,0A3,3 0 1,1 0,-3A3,3 0 0,1 3,0Z" style="opacity: 1; stroke-width: 0px; fill: rgb(255, 68, 48); fill-opacity: 1;"/><path class="point plotly-customdata" transform="translate(444.59,279.08)" d="M3,0A3,3 0 1,1 0,-3A3,3 0 0,1 3,0Z" style="opacity: 1; stroke-width: 0px; fill: rgb(255, 68, 48); fill-opacity: 1;"/><path class="point plotly-customdata" transform="translate(526.32,299.96)" d="M3,0A3,3 0 1,1 0,-3A3,3 0 0,1 3,0Z" style="opacity: 1; stroke-width: 0px; fill: rgb(255, 68, 48); fill-opacity: 1;"/><path class="point plotly-customdata" transform="translate(608.05,300.25)" d="M3,0A3,3 0 1,1 0,-3A3,3 0 0,1 3,0Z" style="opacity: 1; stroke-width: 0px; fill: rgb(255, 68, 48); fill-opacity: 1;"/></g><g class="text"/></g><g class="trace scatter trace19da3f" style="stroke-miterlimit: 2; opacity: 1;"><g class="fills"/><g class="errorbars"><g class="errorbar"><path class="yerror" d="M31.950000000000003,228.48h8m-4,0V229.95m-4,0h8" style="vector-effect: none; stroke-width: 2px; stroke: rgb(86, 180, 233); stroke-opacity: 1;"/></g><g class="errorbar"><path class="yerror" d="M113.68,230.98h8m-4,0V251.76m-4,0h8" style="vector-effect: none; stroke-width: 2px; stroke: rgb(86, 180, 233); stroke-opacity: 1;"/></g><g class="errorbar"><path class="yerror" d="M195.41,229.55h8m-4,0V235.19m-4,0h8" style="vector-effect: none; stroke-width: 2px; stroke: rgb(86, 180, 233); stroke-opacity: 1;"/></g><g class="errorbar"><path class="yerror" d="M277.14,214.08h8m-4,0V247.44m-4,0h8" style="vector-effect: none; stroke-width: 2px; stroke: rgb(86, 180, 233); stroke-opacity: 1;"/></g><g class="errorbar"><path class="yerror" d="M358.86,229.66h8m-4,0V233.53m-4,0h8" style="vector-effect: none; stroke-width: 2px; stroke: rgb(86, 180, 233); stroke-opacity: 1;"/></g><g class="errorbar"><path class="yerror" d="M440.59,236.2h8m-4,0V265.04m-4,0h8" style="vector-effect: none; stroke-width: 2px; stroke: rgb(86, 180, 233); stroke-opacity: 1;"/></g><g class="errorbar"><path class="yerror" d="M522.32,228.48h8m-4,0V229.11m-4,0h8" style="vector-effect: none; stroke-width: 2px; stroke: rgb(86, 180, 233); stroke-opacity: 1;"/></g><g class="errorbar"><path class="yerror" d="M604.05,230.3h8m-4,0V248.39m-4,0h8" style="vector-effect: none; stroke-width: 2px; stroke: rgb(86, 180, 233); stroke-opacity: 1;"/></g></g><g class="lines"><path class="js-line" d="M35.95,229.21L117.68,240.82L199.41,232.33L281.14,229.36L362.86,231.58L444.59,249.57L526.32,228.79L608.05,238.93" style="vector-effect: none; fill: none; stroke: rgb(86, 180, 233); stroke-opacity: 1; stroke-width: 2px; opacity: 1;"/></g><g class="points"><path class="point plotly-customdata" transform="translate(35.95,229.21)" d="M3,0A3,3 0 1,1 0,-3A3,3 0 0,1 3,0Z" style="opacity: 1; stroke-width: 0px; fill: rgb(86, 180, 233); fill-opacity: 1;"/><path class="point plotly-customdata" transform="translate(117.68,240.82)" d="M3,0A3,3 0 1,1 0,-3A3,3 0 0,1 3,0Z" style="opacity: 1; stroke-width: 0px; fill: rgb(86, 180, 233); fill-opacity: 1;"/><path class="point plotly-customdata" transform="translate(199.41,232.33)" d="M3,0A3,3 0 1,1 0,-3A3,3 0 0,1 3,0Z" style="opacity: 1; stroke-width: 0px; fill: rgb(86, 180, 233); fill-opacity: 1;"/><path class="point plotly-customdata" transform="translate(281.14,229.36)" d="M3,0A3,3 0 1,1 0,-3A3,3 0 0,1 3,0Z" style="opacity: 1; stroke-width: 0px; fill: rgb(86, 180, 233); fill-opacity: 1;"/><path class="point plotly-customdata" transform="translate(362.86,231.58)" d="M3,0A3,3 0 1,1 0,-3A3,3 0 0,1 3,0Z" style="opacity: 1; stroke-width: 0px; fill: rgb(86, 180, 233); fill-opacity: 1;"/><path class="point plotly-customdata" transform="translate(444.59,249.57)" d="M3,0A3,3 0 1,1 0,-3A3,3 0 0,1 3,0Z" style="opacity: 1; stroke-width: 0px; fill: rgb(86, 180, 233); fill-opacity: 1;"/><path class="point plotly-customdata" transform="translate(526.32,228.79)" d="M3,0A3,3 0 1,1 0,-3A3,3 0 0,1 3,0Z" style="opacity: 1; stroke-width: 0px; fill: rgb(86, 180, 233); fill-opacity: 1;"/><path class="point plotly-customdata" transform="translate(608.05,238.93)" d="M3,0A3,3 0 1,1 0,-3A3,3 0 0,1 3,0Z" style="opacity: 1; stroke-width: 0px; fill: rgb(86, 180, 233); fill-opacity: 1;"/></g><g class="text"/></g><g class="trace scatter trace26fca0" style="stroke-miterlimit: 2; opacity: 1;"><g class="fills"/><g class="errorbars"><g class="errorbar"><path class="yerror" d="M31.950000000000003,52.89h8m-4,0V173.06m-4,0h8" style="vector-effect: none; stroke-width: 2px; stroke: rgb(171, 2, 158); stroke-opacity: 1;"/></g><g class="errorbar"><path class="yerror" d="M113.68,49.44h8m-4,0V174.49m-4,0h8" style="vector-effect: none; stroke-width: 2px; stroke: rgb(171, 2, 158); stroke-opacity: 1;"/></g><g class="errorbar"><path class="yerror" d="M195.41,48.52h8m-4,0V167.56m-4,0h8" style="vector-effect: none; stroke-width: 2px; stroke: rgb(171, 2, 158); stroke-opacity: 1;"/></g><g class="errorbar"><path class="yerror" d="M277.14,50.76h8m-4,0V164.5m-4,0h8" style="vector-effect: none; stroke-width: 2px; stroke: rgb(171, 2, 158); stroke-opacity: 1;"/></g><g class="errorbar"><path class="yerror" d="M358.86,42.92h8m-4,0V148.46m-4,0h8" style="vector-effect: none; stroke-width: 2px; stroke: rgb(171, 2, 158); stroke-opacity: 1;"/></g><g class="errorbar"><path class="yerror" d="M440.59,42.95h8m-4,0V139.98m-4,0h8" style="vector-effect: none; stroke-width: 2px; stroke: rgb(171, 2, 158); stroke-opacity: 1;"/></g><g class="errorbar"><path class="yerror" d="M522.32,16h8m-4,0V108.5m-4,0h8" style="vector-effect: none; stroke-width: 2px; stroke: rgb(171, 2, 158); stroke-opacity: 1;"/></g><g class="errorbar"><path class="yerror" d="M604.05,40.45h8m-4,0V133.91m-4,0h8" style="vector-effect: none; stroke-width: 2px; stroke: rgb(171, 2, 158); stroke-opacity: 1;"/></g></g><g class="lines"><path class="js-line" d="M35.95,95.69L199.41,91.06L281.14,92.06L362.86,82.19L444.59,79.97L526.32,51.77L608.05,76.49" style="vector-effect: none; fill: none; stroke: rgb(171, 2, 158); stroke-opacity: 1; stroke-width: 2px; opacity: 1;"/></g><g class="points"><path class="point plotly-customdata" transform="translate(35.95,95.69)" d="M3,0A3,3 0 1,1 0,-3A3,3 0 0,1 3,0Z" style="opacity: 1; stroke-width: 0px; fill: rgb(171, 2, 158); fill-opacity: 1;"/><path class="point plotly-customdata" transform="translate(117.68,93.34)" d="M3,0A3,3 0 1,1 0,-3A3,3 0 0,1 3,0Z" style="opacity: 1; stroke-width: 0px; fill: rgb(171, 2, 158); fill-opacity: 1;"/><path class="point plotly-customdata" transform="translate(199.41,91.06)" d="M3,0A3,3 0 1,1 0,-3A3,3 0 0,1 3,0Z" style="opacity: 1; stroke-width: 0px; fill: rgb(171, 2, 158); fill-opacity: 1;"/><path class="point plotly-customdata" transform="translate(281.14,92.06)" d="M3,0A3,3 0 1,1 0,-3A3,3 0 0,1 3,0Z" style="opacity: 1; stroke-width: 0px; fill: rgb(171, 2, 158); fill-opacity: 1;"/><path class="point plotly-customdata" transform="translate(362.86,82.19)" d="M3,0A3,3 0 1,1 0,-3A3,3 0 0,1 3,0Z" style="opacity: 1; stroke-width: 0px; fill: rgb(171, 2, 158); fill-opacity: 1;"/><path class="point plotly-customdata" transform="translate(444.59,79.97)" d="M3,0A3,3 0 1,1 0,-3A3,3 0 0,1 3,0Z" style="opacity: 1; stroke-width: 0px; fill: rgb(171, 2, 158); fill-opacity: 1;"/><path class="point plotly-customdata" transform="translate(526.32,51.77)" d="M3,0A3,3 0 1,1 0,-3A3,3 0 0,1 3,0Z" style="opacity: 1; stroke-width: 0px; fill: rgb(171, 2, 158); fill-opacity: 1;"/><path class="point plotly-customdata" transform="translate(608.05,76.49)" d="M3,0A3,3 0 1,1 0,-3A3,3 0 0,1 3,0Z" style="opacity: 1; stroke-width: 0px; fill: rgb(171, 2, 158); fill-opacity: 1;"/></g><g class="text"/></g></g></g></g><path class="xlines-above crisp" d="M0,0" style="fill: none;"/><path class="ylines-above crisp" d="M0,0" style="fill: none;"/><g class="overlines-above"/><g class="xaxislayer-above"><g class="xtick"><text text-anchor="middle" x="0" y="433" transform="translate(115.95,0)" style="font-family: 'Open Sans', verdana, arial, sans-serif; font-size: 12px; fill: rgb(42, 63, 95); fill-opacity: 1; white-space: pre; opacity: 1;">None None</text></g><g class="xtick"><text text-anchor="middle" x="0" y="433" transform="translate(197.68,0)" style="font-family: 'Open Sans', verdana, arial, sans-serif; font-size: 12px; fill: rgb(42, 63, 95); fill-opacity: 1; white-space: pre; opacity: 1;">1280.0 MB</text></g><g class="xtick"><text text-anchor="middle" x="0" y="433" transform="translate(279.40999999999997,0)" style="font-family: 'Open Sans', verdana, arial, sans-serif; font-size: 12px; fill: rgb(42, 63, 95); fill-opacity: 1; white-space: pre; opacity: 1;">640.0 MB</text></g><g class="xtick"><text text-anchor="middle" x="0" y="433" transform="translate(361.14,0)" style="font-family: 'Open Sans', verdana, arial, sans-serif; font-size: 12px; fill: rgb(42, 63, 95); fill-opacity: 1; white-space: pre; opacity: 1;">320.0 MB</text></g><g class="xtick"><text text-anchor="middle" x="0" y="433" transform="translate(442.86,0)" style="font-family: 'Open Sans', verdana, arial, sans-serif; font-size: 12px; fill: rgb(42, 63, 95); fill-opacity: 1; white-space: pre; opacity: 1;">160.0 MB</text></g><g class="xtick"><text text-anchor="middle" x="0" y="433" transform="translate(524.5899999999999,0)" style="font-family: 'Open Sans', verdana, arial, sans-serif; font-size: 12px; fill: rgb(42, 63, 95); fill-opacity: 1; white-space: pre; opacity: 1;">80.0 MB</text></g><g class="xtick"><text text-anchor="middle" x="0" y="433" transform="translate(606.32,0)" style="font-family: 'Open Sans', verdana, arial, sans-serif; font-size: 12px; fill: rgb(42, 63, 95); fill-opacity: 1; white-space: pre; opacity: 1;">40.0 MB</text></g><g class="xtick"><text text-anchor="middle" x="0" y="433" transform="translate(688.05,0)" style="font-family: 'Open Sans', verdana, arial, sans-serif; font-size: 12px; fill: rgb(42, 63, 95); fill-opacity: 1; white-space: pre; opacity: 1;">20.0 MB</text></g></g><g class="yaxislayer-above"><g class="ytick"><text text-anchor="end" x="79" y="3.15" transform="translate(0,400.19)" style="font-family: 'Open Sans', verdana, arial, sans-serif; font-size: 9px; fill: rgb(42, 63, 95); fill-opacity: 1; white-space: pre; opacity: 1;">2</text></g><g class="ytick"><text text-anchor="end" x="79" y="3.15" style="font-family: 'Open Sans', verdana, arial, sans-serif; font-size: 9px; fill: rgb(42, 63, 95); fill-opacity: 1; white-space: pre; opacity: 1;" transform="translate(0,360.23)">3</text></g><g class="ytick"><text text-anchor="end" x="79" y="3.15" style="font-family: 'Open Sans', verdana, arial, sans-serif; font-size: 9px; fill: rgb(42, 63, 95); fill-opacity: 1; white-space: pre; opacity: 1;" transform="translate(0,331.88)">4</text></g><g class="ytick"><text text-anchor="end" x="79" y="3.15" style="font-family: 'Open Sans', verdana, arial, sans-serif; font-size: 9px; fill: rgb(42, 63, 95); fill-opacity: 1; white-space: pre; opacity: 1;" transform="translate(0,309.88)">5</text></g><g class="ytick"><text text-anchor="end" x="79" y="3.15" style="font-family: 'Open Sans', verdana, arial, sans-serif; font-size: 9px; fill: rgb(42, 63, 95); fill-opacity: 1; white-space: pre; opacity: 1;" transform="translate(0,291.90999999999997)">6</text></g><g class="ytick"><text text-anchor="end" x="79" y="3.15" style="font-family: 'Open Sans', verdana, arial, sans-serif; font-size: 9px; fill: rgb(42, 63, 95); fill-opacity: 1; white-space: pre; opacity: 1;" transform="translate(0,276.72)">7</text></g><g class="ytick"><text text-anchor="end" x="79" y="3.15" style="font-family: 'Open Sans', verdana, arial, sans-serif; font-size: 9px; fill: rgb(42, 63, 95); fill-opacity: 1; white-space: pre; opacity: 1;" transform="translate(0,263.56)">8</text></g><g class="ytick"><text text-anchor="end" x="79" y="3.15" style="font-family: 'Open Sans', verdana, arial, sans-serif; font-size: 9px; fill: rgb(42, 63, 95); fill-opacity: 1; white-space: pre; opacity: 1;" transform="translate(0,251.95)">9</text></g><g class="ytick"><text text-anchor="end" x="76" y="2.1999999999999993" style="font-family: 'Open Sans', verdana, arial, sans-serif; font-size: 12px; fill: rgb(42, 63, 95); fill-opacity: 1; white-space: pre; opacity: 1;" transform="translate(0,241.57)">10</text></g><g class="ytick"><text text-anchor="end" x="79" y="3.15" style="font-family: 'Open Sans', verdana, arial, sans-serif; font-size: 9px; fill: rgb(42, 63, 95); fill-opacity: 1; white-space: pre; opacity: 1;" transform="translate(0,173.25)">2</text></g><g class="ytick"><text text-anchor="end" x="79" y="3.15" style="font-family: 'Open Sans', verdana, arial, sans-serif; font-size: 9px; fill: rgb(42, 63, 95); fill-opacity: 1; white-space: pre; opacity: 1;" transform="translate(0,133.29)">3</text></g><g class="ytick"><text text-anchor="end" x="79" y="3.15" style="font-family: 'Open Sans', verdana, arial, sans-serif; font-size: 9px; fill: rgb(42, 63, 95); fill-opacity: 1; white-space: pre; opacity: 1;" transform="translate(0,104.93)">4</text></g></g><g class="overaxes-above"/></g></g><g class="polarlayer"/><g class="smithlayer"/><g class="ternarylayer"/><g class="geolayer"/><g class="funnelarealayer"/><g class="pielayer"/><g class="iciclelayer"/><g class="treemaplayer"/><g class="sunburstlayer"/><g class="glimages"/><defs id="topdefs-cbd67e"><g class="clips"/><clipPath id="legendcbd67e"><rect width="151" height="105" x="0" y="0"/></clipPath></defs><g class="layer-above"><g class="imagelayer"/><g class="shapelayer"/></g><g class="infolayer"><g class="legend" pointer-events="all" transform="translate(736.88,100)"><rect class="bg" shape-rendering="crispEdges" style="stroke: rgb(68, 68, 68); stroke-opacity: 1; fill: rgb(255, 255, 255); fill-opacity: 1; stroke-width: 0px;" width="151" height="105" x="0" y="0"/><g class="scrollbox" transform="" clip-path="url(#legendcbd67e)"><text class="legendtitletext" text-anchor="start" x="2" y="18.2" style="font-family: 'Open Sans', verdana, arial, sans-serif; font-size: 14px; fill: rgb(42, 63, 95); fill-opacity: 1; white-space: pre;">engine</text><g class="groups" transform=""><g class="traces" transform="translate(0,32.7)" style="opacity: 1;"><text class="legendtext" text-anchor="start" x="40" y="4.680000000000001" style="font-family: 'Open Sans', verdana, arial, sans-serif; font-size: 12px; fill: rgb(42, 63, 95); fill-opacity: 1; white-space: pre;">netcdf4-c-parallel</text><g class="layers" style="opacity: 1;"><g class="legendfill"/><g class="legendlines"><path class="js-line" d="M5,0h30" style="fill: none; stroke: rgb(255, 176, 0); stroke-opacity: 1; stroke-width: 2px;"/></g><g class="legendsymbols"><g class="legendpoints"><path class="scatterpts" transform="translate(20,0)" d="M3,0A3,3 0 1,1 0,-3A3,3 0 0,1 3,0Z" style="opacity: 1; stroke-width: 0px; fill: rgb(255, 176, 0); fill-opacity: 1;"/></g></g></g><rect class="legendtoggle" x="0" y="-9.5" width="145.671875" height="19" style="fill: rgb(0, 0, 0); fill-opacity: 0;"/></g></g><g class="groups" transform=""><g class="traces" transform="translate(0,51.7)" style="opacity: 1;"><text class="legendtext" text-anchor="start" x="40" y="4.680000000000001" style="font-family: 'Open Sans', verdana, arial, sans-serif; font-size: 12px; fill: rgb(42, 63, 95); fill-opacity: 1; white-space: pre;">hdf5-c-parallel</text><g class="layers" style="opacity: 1;"><g class="legendfill"/><g class="legendlines"><path class="js-line" d="M5,0h30" style="fill: none; stroke: rgb(255, 68, 48); stroke-opacity: 1; stroke-width: 2px;"/></g><g class="legendsymbols"><g class="legendpoints"><path class="scatterpts" transform="translate(20,0)" d="M3,0A3,3 0 1,1 0,-3A3,3 0 0,1 3,0Z" style="opacity: 1; stroke-width: 0px; fill: rgb(255, 68, 48); fill-opacity: 1;"/></g></g></g><rect class="legendtoggle" x="0" y="-9.5" width="145.671875" height="19" style="fill: rgb(0, 0, 0); fill-opacity: 0;"/></g></g><g class="groups" transform=""><g class="traces" transform="translate(0,70.7)" style="opacity: 1;"><text class="legendtext" text-anchor="start" x="40" y="4.680000000000001" style="font-family: 'Open Sans', verdana, arial, sans-serif; font-size: 12px; fill: rgb(42, 63, 95); fill-opacity: 1; white-space: pre;">hdf5-async</text><g class="layers" style="opacity: 1;"><g class="legendfill"/><g class="legendlines"><path class="js-line" d="M5,0h30" style="fill: none; stroke: rgb(86, 180, 233); stroke-opacity: 1; stroke-width: 2px;"/></g><g class="legendsymbols"><g class="legendpoints"><path class="scatterpts" transform="translate(20,0)" d="M3,0A3,3 0 1,1 0,-3A3,3 0 0,1 3,0Z" style="opacity: 1; stroke-width: 0px; fill: rgb(86, 180, 233); fill-opacity: 1;"/></g></g></g><rect class="legendtoggle" x="0" y="-9.5" width="145.671875" height="19" style="fill: rgb(0, 0, 0); fill-opacity: 0;"/></g></g><g class="groups" transform=""><g class="traces" transform="translate(0,89.7)" style="opacity: 1;"><text class="legendtext" text-anchor="start" x="40" y="4.680000000000001" style="font-family: 'Open Sans', verdana, arial, sans-serif; font-size: 12px; fill: rgb(42, 63, 95); fill-opacity: 1; white-space: pre;">hdf5-subfiling</text><g class="layers" style="opacity: 1;"><g class="legendfill"/><g class="legendlines"><path class="js-line" d="M5,0h30" style="fill: none; stroke: rgb(171, 2, 158); stroke-opacity: 1; stroke-width: 2px;"/></g><g class="legendsymbols"><g class="legendpoints"><path class="scatterpts" transform="translate(20,0)" d="M3,0A3,3 0 1,1 0,-3A3,3 0 0,1 3,0Z" style="opacity: 1; stroke-width: 0px; fill: rgb(171, 2, 158); fill-opacity: 1;"/></g></g></g><rect class="legendtoggle" x="0" y="-9.5" width="145.671875" height="19" style="fill: rgb(0, 0, 0); fill-opacity: 0;"/></g></g></g><rect class="scrollbar" rx="20" ry="3" width="0" height="0" style="fill: rgb(128, 139, 164); fill-opacity: 1;" x="0" y="0"/></g><g class="g-gtitle"><text class="gtitle" x="45" y="50" text-anchor="start" dy="0em" style="opacity: 1; font-family: 'Open Sans', verdana, arial, sans-serif; font-size: 17px; fill: rgb(42, 63, 95); fill-opacity: 1; white-space: pre;">mean time in seconds (s)</text></g><g class="g-xtitle"><text class="xtitle" x="402" y="460.3" text-anchor="middle" style="opacity: 1; font-family: 'Open Sans', verdana, arial, sans-serif; font-size: 14px; fill: rgb(42, 63, 95); fill-opacity: 1; white-space: pre;">filesize per chunk</text></g><g class="g-ytitle"><text class="ytitle" transform="rotate(-90,41.31875,260)" x="41.31875" y="260" text-anchor="middle" style="opacity: 1; font-family: 'Open Sans', verdana, arial, sans-serif; font-size: 14px; fill: rgb(42, 63, 95); fill-opacity: 1; white-space: pre;">mean time</text></g></g></svg>