<svg class="main-svg" xmlns="http://www.w3.org/2000/svg" xmlns:xlink="http://www.w3.org/1999/xlink" width="900" height="500" style="" viewBox="0 0 900 500"><rect x="0" y="0" width="900" height="500" style="fill: rgb(255, 255, 255); fill-opacity: 1;"/><defs id="defs-4ec5b1"><g class="clips"><clipPath id="clip4ec5b1xyplot" class="plotclip"><rect width="692" height="320"/></clipPath><clipPath class="axesclip" id="clip4ec5b1x"><rect x="80" y="0" width="692" height="500"/></clipPath><clipPath class="axesclip" id="clip4ec5b1y"><rect x="0" y="100" width="900" height="320"/></clipPath><clipPath class="axesclip" id="clip4ec5b1xy"><rect x="80" y="100" width="692" height="320"/></clipPath></g><g class="gradients"/><g class="patterns"/></defs><g class="bglayer"><rect class="bg" x="80" y="100" width="692" height="320" style="fill: rgb(229, 236, 246); fill-opacity: 1; stroke-width: 0;"/></g><g class="layer-below"><g class="imagelayer"/><g class="shapelayer"/></g><g class="cartesianlayer"><g class="subplot xy"><g class="layer-subplot"><g class="shapelayer"/><g class="imagelayer"/></g><g class="minor-gridlayer"><g class="x"/><g class="y"/></g><g class="gridlayer"><g class="x"><path class="xgrid crisp" transform="translate(118.35,0)" d="M0,100v320" style="stroke: rgb(255, 255, 255); stroke-opacity: 1; stroke-width: 1px;"/><path class="xgrid crisp" transform="translate(206.25,0)" d="M0,100v320" style="stroke: rgb(255, 255, 255); stroke-opacity: 1; stroke-width: 1px;"/><path class="xgrid crisp" transform="translate(294.15,0)" d="M0,100v320" style="stroke: rgb(255, 255, 255); stroke-opacity: 1; stroke-width: 1px;"/><path class="xgrid crisp" transform="translate(382.05,0)" d="M0,100v320" style="stroke: rgb(255, 255, 255); stroke-opacity: 1; stroke-width: 1px;"/><path class="xgrid crisp" transform="translate(469.95,0)" d="M0,100v320" style="stroke: rgb(255, 255, 255); stroke-opacity: 1; stroke-width: 1px;"/><path class="xgrid crisp" transform="translate(557.85,0)" d="M0,100v320" style="stroke: rgb(255, 255, 255); stroke-opacity: 1; stroke-width: 1px;"/><path class="xgrid crisp" transform="translate(645.75,0)" d="M0,100v320" style="stroke: rgb(255, 255, 255); stroke-opacity: 1; stroke-width: 1px;"/><path class="xgrid crisp" transform="translate(733.65,0)" d="M0,100v320" style="stroke: rgb(255, 255, 255); stroke-opacity: 1; stroke-width: 1px;"/></g><g class="y"><path class="ygrid crisp" transform="translate(0,385.19)" d="M80,0h692" style="stroke: rgb(255, 255, 255); stroke-opacity: 1; stroke-width: 1px;"/><path class="ygrid crisp" transform="translate(0,337.33000000000004)" d="M80,0h692" style="stroke: rgb(255, 255, 255); stroke-opacity: 1; stroke-width: 1px;"/><path class="ygrid crisp" transform="translate(0,295.87)" d="M80,0h692" style="stroke: rgb(255, 255, 255); stroke-opacity: 1; stroke-width: 1px;"/><path class="ygrid crisp" transform="translate(0,259.31)" d="M80,0h692" style="stroke: rgb(255, 255, 255); stroke-opacity: 1; stroke-width: 1px;"/><path class="ygrid crisp" transform="translate(0,226.6)" d="M80,0h692" style="stroke: rgb(255, 255, 255); stroke-opacity: 1; stroke-width: 1px;"/><path class="ygrid crisp" transform="translate(0,197.01)" d="M80,0h692" style="stroke: rgb(255, 255, 255); stroke-opacity: 1; stroke-width: 1px;"/><path class="ygrid crisp" transform="translate(0,170)" d="M80,0h692" style="stroke: rgb(255, 255, 255); stroke-opacity: 1; stroke-width: 1px;"/><path class="ygrid crisp" transform="translate(0,145.15)" d="M80,0h692" style="stroke: rgb(255, 255, 255); stroke-opacity: 1; stroke-width: 1px;"/><path class="ygrid crisp" transform="translate(0,122.14)" d="M80,0h692" style="stroke: rgb(255, 255, 255); stroke-opacity: 1; stroke-width: 1px;"/></g></g><g class="zerolinelayer"/><g class="layer-between"><g class="shapelayer"/><g class="imagelayer"/></g><path class="xlines-below"/><path class="ylines-below"/><g class="overlines-below"/><g class="xaxislayer-below"/><g class="yaxislayer-below"/><g class="overaxes-below"/><g class="overplot"><g class="xy" transform="translate(80,100)" clip-path="url(#clip4ec5b1xyplot)"><g class="scatterlayer mlayer"><g class="trace scatter trace45c979" style="stroke-miterlimit: 2; opacity: 1;"><g class="fills"/><g class="errorbars"><g class="errorbar"><path class="yerror" d="M34.35,16h8m-4,0V47.13m-4,0h8" style="vector-effect: none; stroke-width: 2px; stroke: rgb(75, 0, 146); stroke-opacity: 1;"/></g><g class="errorbar"><path class="yerror" d="M122.25,55.52h8m-4,0V59.27m-4,0h8" style="vector-effect: none; stroke-width: 2px; stroke: rgb(75, 0, 146); stroke-opacity: 1;"/></g><g class="errorbar"><path class="yerror" d="M210.15,91.3h8m-4,0V95.54m-4,0h8" style="vector-effect: none; stroke-width: 2px; stroke: rgb(75, 0, 146); stroke-opacity: 1;"/></g><g class="errorbar"><path class="yerror" d="M298.05,29.31h8m-4,0V122.46m-4,0h8" style="vector-effect: none; stroke-width: 2px; stroke: rgb(75, 0, 146); stroke-opacity: 1;"/></g><g class="errorbar"><path class="yerror" d="M385.95,150.87h8m-4,0V167.56m-4,0h8" style="vector-effect: none; stroke-width: 2px; stroke: rgb(75, 0, 146); stroke-opacity: 1;"/></g><g class="errorbar"><path class="yerror" d="M473.85,117.97h8m-4,0V135.63m-4,0h8" style="vector-effect: none; stroke-width: 2px; stroke: rgb(75, 0, 146); stroke-opacity: 1;"/></g><g class="errorbar"><path class="yerror" d="M561.75,27.75h8m-4,0V30.55m-4,0h8" style="vector-effect: none; stroke-width: 2px; stroke: rgb(75, 0, 146); stroke-opacity: 1;"/></g><g class="errorbar"><path class="yerror" d="M649.65,94.08h8m-4,0V114.33m-4,0h8" style="vector-effect: none; stroke-width: 2px; stroke: rgb(75, 0, 146); stroke-opacity: 1;"/></g></g><g class="lines"><path class="js-line" d="M38.35,31.18L126.25,57.39L214.15,93.41L302.05,72.41L389.95,159.1L477.85,126.68L565.75,29.15L653.65,104.04" style="vector-effect: none; fill: none; stroke: rgb(75, 0, 146); stroke-opacity: 1; stroke-width: 2px; opacity: 1;"/></g><g class="points"><path class="point plotly-customdata" transform="translate(38.35,31.18)" d="M3,0A3,3 0 1,1 0,-3A3,3 0 0,1 3,0Z" style="opacity: 1; stroke-width: 0px; fill: rgb(75, 0, 146); fill-opacity: 1;"/><path class="point plotly-customdata" transform="translate(126.25,57.39)" d="M3,0A3,3 0 1,1 0,-3A3,3 0 0,1 3,0Z" style="opacity: 1; stroke-width: 0px; fill: rgb(75, 0, 146); fill-opacity: 1;"/><path class="point plotly-customdata" transform="translate(214.15,93.41)" d="M3,0A3,3 0 1,1 0,-3A3,3 0 0,1 3,0Z" style="opacity: 1; stroke-width: 0px; fill: rgb(75, 0, 146); fill-opacity: 1;"/><path class="point plotly-customdata" transform="translate(302.05,72.41)" d="M3,0A3,3 0 1,1 0,-3A3,3 0 0,1 3,0Z" style="opacity: 1; stroke-width: 0px; fill: rgb(75, 0, 146); fill-opacity: 1;"/><path class="point plotly-customdata" transform="translate(389.95,159.1)" d="M3,0A3,3 0 1,1 0,-3A3,3 0 0,1 3,0Z" style="opacity: 1; stroke-width: 0px; fill: rgb(75, 0, 146); fill-opacity: 1;"/><path class="point plotly-customdata" transform="translate(477.85,126.68)" d="M3,0A3,3 0 1,1 0,-3A3,3 0 0,1 3,0Z" style="opacity: 1; stroke-width: 0px; fill: rgb(75, 0, 146); fill-opacity: 1;"/><path class="point plotly-customdata" transform="translate(565.75,29.15)" d="M3,0A3,3 0 1,1 0,-3A3,3 0 0,1 3,0Z" style="opacity: 1; stroke-width: 0px; fill: rgb(75, 0, 146); fill-opacity: 1;"/><path class="point plotly-customdata" transform="translate(653.65,104.04)" d="M3,0A3,3 0 1,1 0,-3A3,3 0 0,1 3,0Z" style="opacity: 1; stroke-width: 0px; fill: rgb(75, 0, 146); fill-opacity: 1;"/></g><g class="text"/></g><g class="trace scatter trace5dbe98" style="stroke-miterlimit: 2; opacity: 1;"><g class="fills"/><g class="errorbars"><g class="errorbar"><path class="yerror" d="M34.35,293.55h8m-4,0V303.53m-4,0h8" style="vector-effect: none; stroke-width: 2px; stroke: rgb(17, 119, 51); stroke-opacity: 1;"/></g><g class="errorbar"><path class="yerror" d="M122.25,294.87h8m-4,0V304m-4,0h8" style="vector-effect: none; stroke-width: 2px; stroke: rgb(17, 119, 51); stroke-opacity: 1;"/></g><g class="errorbar"><path class="yerror" d="M210.15,288.74h8m-4,0V290.51m-4,0h8" style="vector-effect: none; stroke-width: 2px; stroke: rgb(17, 119, 51); stroke-opacity: 1;"/></g><g class="errorbar"><path class="yerror" d="M298.05,287.68h8m-4,0V302.49m-4,0h8" style="vector-effect: none; stroke-width: 2px; stroke: rgb(17, 119, 51); stroke-opacity: 1;"/></g><g class="errorbar"><path class="yerror" d="M385.95,296.6h8m-4,0V302.96m-4,0h8" style="vector-effect: none; stroke-width: 2px; stroke: rgb(17, 119, 51); stroke-opacity: 1;"/></g><g class="errorbar"><path class="yerror" d="M473.85,279.38h8m-4,0V296.04m-4,0h8" style="vector-effect: none; stroke-width: 2px; stroke: rgb(17, 119, 51); stroke-opacity: 1;"/></g><g class="errorbar"><path class="yerror" d="M561.75,287.72h8m-4,0V300.38m-4,0h8" style="vector-effect: none; stroke-width: 2px; stroke: rgb(17, 119, 51); stroke-opacity: 1;"/></g><g class="errorbar"><path class="yerror" d="M649.65,291.49h8m-4,0V295.65m-4,0h8" style="vector-effect: none; stroke-width: 2px; stroke: rgb(17, 119, 51); stroke-opacity: 1;"/></g></g><g class="lines"><path class="js-line" d="M38.35,298.5L126.25,299.4L214.15,289.62L389.95,299.76L477.85,287.6L565.75,293.98L653.65,293.56" style="vector-effect: none; fill: none; stroke: rgb(17, 119, 51); stroke-opacity: 1; stroke-width: 2px; opacity: 1;"/></g><g class="points"><path class="point plotly-customdata" transform="translate(38.35,298.5)" d="M3,0A3,3 0 1,1 0,-3A3,3 0 0,1 3,0Z" style="opacity: 1; stroke-width: 0px; fill: rgb(17, 119, 51); fill-opacity: 1;"/><path class="point plotly-customdata" transform="translate(126.25,299.4)" d="M3,0A3,3 0 1,1 0,-3A3,3 0 0,1 3,0Z" style="opacity: 1; stroke-width: 0px; fill: rgb(17, 119, 51); fill-opacity: 1;"/><path class="point plotly-customdata" transform="translate(214.15,289.62)" d="M3,0A3,3 0 1,1 0,-3A3,3 0 0,1 3,0Z" style="opacity: 1; stroke-width: 0px; fill: rgb(17, 119, 51); fill-opacity: 1;"/><path class="point plotly-customdata" transform="translate(302.05,295)" d="M3,0A3,3 0 1,1 0,-3A3,3 0 0,1 3,0Z" style="opacity: 1; stroke-width: 0px; fill: rgb(17, 119, 51); fill-opacity: 1;"/><path class="point plotly-customdata" transform="translate(389.95,299.76)" d="M3,0A3,3 0 1,1 0,-3A3,3 0 0,1 3,0Z" style="opacity: 1; stroke-width: 0px; fill: rgb(17, 119, 51); fill-opacity: 1;"/><path class="point plotly-customdata" transform="translate(477.85,287.6)" d="M3,0A3,3 0 1,1 0,-3A3,3 0 0,1 3,0Z" style="opacity: 1; stroke-width: 0px; fill: rgb(17, 119, 51); fill-opacity: 1;"/><path class="point plotly-customdata" transform="translate(565.75,293.98)" d="M3,0A3,3 0 1,1 0,-3A3,3 0 0,1 3,0Z" style="opacity: 1; stroke-width: 0px; fill: rgb(17, 119, 51); fill-opacity: 1;"/><path class="point plotly-customdata" transform="translate(653.65,293.56)" d="M3,0A3,3 0 1,1 0,-3A3,3 0 0,1 3,0Z" style="opacity: 1; stroke-width: 0px; fill: rgb(17, 119, 51); fill-opacity: 1;"/></g><g class="text"/></g></g></g></g><path class="xlines-above crisp" d="M0,0" style="fill: none;"/><path class="ylines-above crisp" d="M0,0" style="fill: none;"/><g class="overlines-above"/><g class="xaxislayer-above"><g class="xtick"><text text-anchor="middle" x="0" y="433" transform="translate(118.35,0)" style="font-family: 'Open Sans', verdana, arial, sans-serif; font-size: 12px; fill: rgb(42, 63, 95); fill-opacity: 1; white-space: pre; opacity: 1;">None None</text></g><g class="xtick"><text text-anchor="middle" x="0" y="433" transform="translate(206.25,0)" style="font-family: 'Open Sans', verdana, arial, sans-serif; font-size: 12px; fill: rgb(42, 63, 95); fill-opacity: 1; white-space: pre; opacity: 1;">1280.0 MB</text></g><g class="xtick"><text text-anchor="middle" x="0" y="433" transform="translate(294.15,0)" style="font-family: 'Open Sans', verdana, arial, sans-serif; font-size: 12px; fill: rgb(42, 63, 95); fill-opacity: 1; white-space: pre; opacity: 1;">640.0 MB</text></g><g class="xtick"><text text-anchor="middle" x="0" y="433" transform="translate(382.05,0)" style="font-family: 'Open Sans', verdana, arial, sans-serif; font-size: 12px; fill: rgb(42, 63, 95); fill-opacity: 1; white-space: pre; opacity: 1;">320.0 MB</text></g><g class="xtick"><text text-anchor="middle" x="0" y="433" transform="translate(469.95,0)" style="font-family: 'Open Sans', verdana, arial, sans-serif; font-size: 12px; fill: rgb(42, 63, 95); fill-opacity: 1; white-space: pre; opacity: 1;">160.0 MB</text></g><g class="xtick"><text text-anchor="middle" x="0" y="433" transform="translate(557.85,0)" style="font-family: 'Open Sans', verdana, arial, sans-serif; font-size: 12px; fill: rgb(42, 63, 95); fill-opacity: 1; white-space: pre; opacity: 1;">80.0 MB</text></g><g class="xtick"><text text-anchor="middle" x="0" y="433" transform="translate(645.75,0)" style="font-family: 'Open Sans', verdana, arial, sans-serif; font-size: 12px; fill: rgb(42, 63, 95); fill-opacity: 1; white-space: pre; opacity: 1;">40.0 MB</text></g><g class="xtick"><text text-anchor="middle" x="0" y="433" transform="translate(733.65,0)" style="font-family: 'Open Sans', verdana, arial, sans-serif; font-size: 12px; fill: rgb(42, 63, 95); fill-opacity: 1; white-space: pre; opacity: 1;">20.0 MB</text></g></g><g class="yaxislayer-above"><g class="ytick"><text text-anchor="end" x="79" y="4.199999999999999" transform="translate(0,385.19)" style="font-family: 'Open Sans', verdana, arial, sans-serif; font-size: 12px; fill: rgb(42, 63, 95); fill-opacity: 1; white-space: pre; opacity: 1;">6</text></g><g class="ytick"><text text-anchor="end" x="79" y="4.199999999999999" style="font-family: 'Open Sans', verdana, arial, sans-serif; font-size: 12px; fill: rgb(42, 63, 95); fill-opacity: 1; white-space: pre; opacity: 1;" transform="translate(0,337.33000000000004)">7</text></g><g class="ytick"><text text-anchor="end" x="79" y="4.199999999999999" style="font-family: 'Open Sans', verdana, arial, sans-serif; font-size: 12px; fill: rgb(42, 63, 95); fill-opacity: 1; white-space: pre; opacity: 1;" transform="translate(0,295.87)">8</text></g><g class="ytick"><text text-anchor="end" x="79" y="4.199999999999999" style="font-family: 'Open Sans', verdana, arial, sans-serif; font-size: 12px; fill: rgb(42, 63, 95); fill-opacity: 1; white-space: pre; opacity: 1;" transform="translate(0,259.31)">9</text></g><g class="ytick"><text text-anchor="end" x="79" y="4.199999999999999" style="font-family: 'Open Sans', verdana, arial, sans-serif; font-size: 12px; fill: rgb(42, 63, 95); fill-opacity: 1; white-space: pre; opacity: 1;" transform="translate(0,226.6)">10</text></g><g class="ytick"><text text-anchor="end" x="79" y="4.199999999999999" style="font-family: 'Open Sans', verdana, arial, sans-serif; font-size: 12px; fill: rgb(42, 63, 95); fill-opacity: 1; white-space: pre; opacity: 1;" transform="translate(0,197.01)">11</text></g><g class="ytick"><text text-anchor="end" x="79" y="4.199999999999999" style="font-family: 'Open Sans', verdana, arial, sans-serif; font-size: 12px; fill: rgb(42, 63, 95); fill-opacity: 1; white-space: pre; opacity: 1;" transform="translate(0,170)">12</text></g><g class="ytick"><text text-anchor="end" x="79" y="4.199999999999999" style="font-family: 'Open Sans', verdana, arial, sans-serif; font-size: 12px; fill: rgb(42, 63, 95); fill-opacity: 1; white-space: pre; opacity: 1;" transform="translate(0,145.15)">13</text></g><g class="ytick"><text text-anchor="end" x="79" y="4.199999999999999" style="font-family: 'Open Sans', verdana, arial, sans-serif; font-size: 12px; fill: rgb(42, 63, 95); fill-opacity: 1; white-space: pre; opacity: 1;" transform="translate(0,122.14)">14</text></g><g class="ytick"><text text-anchor="end" x="79" y="4.199999999999999" style="font-family: 'Open Sans', verdana, arial, sans-serif; font-size: 12px; fill: rgb(42, 63, 95); fill-opacity: 1; white-space: pre; opacity: 1;" transform="translate(0,100.72)">15</text></g></g><g class="overaxes-above"/></g></g><g class="polarlayer"/><g class="smithlayer"/><g class="ternarylayer"/><g class="geolayer"/><g class="funnelarealayer"/><g class="pielayer"/><g class="iciclelayer"/><g class="treemaplayer"/><g class="sunburstlayer"/><g class="glimages"/><defs id="topdefs-4ec5b1"><g class="clips"/><clipPath id="legend4ec5b1"><rect width="102" height="67" x="0" y="0"/></clipPath></defs><g class="layer-above"><g class="imagelayer"/><g class="shapelayer"/></g><g class="infolayer"><g class="legend" pointer-events="all" transform="translate(785.84,100)"><rect class="bg" shape-rendering="crispEdges" width="102" height="67" x="0" y="0" style="stroke: rgb(68, 68, 68); stroke-opacity: 1; fill: rgb(255, 255, 255); fill-opacity: 1; stroke-width: 0px;"/><g class="scrollbox" transform="" clip-path="url(#legend4ec5b1)"><text class="legendtitletext" text-anchor="start" x="2" y="18.2" style="font-family: 'Open Sans', verdana, arial, sans-serif; font-size: 14px; fill: rgb(42, 63, 95); fill-opacity: 1; white-space: pre;">engine</text><g class="groups" transform=""><g class="traces" transform="translate(0,32.7)" style="opacity: 1;"><text class="legendtext" text-anchor="start" x="40" y="4.680000000000001" style="font-family: 'Open Sans', verdana, arial, sans-serif; font-size: 12px; fill: rgb(42, 63, 95); fill-opacity: 1; white-space: pre;">netcdf4-c</text><g class="layers" style="opacity: 1;"><g class="legendfill"/><g class="legendlines"><path class="js-line" d="M5,0h30" style="fill: none; stroke: rgb(75, 0, 146); stroke-opacity: 1; stroke-width: 2px;"/></g><g class="legendsymbols"><g class="legendpoints"><path class="scatterpts" transform="translate(20,0)" d="M3,0A3,3 0 1,1 0,-3A3,3 0 0,1 3,0Z" style="opacity: 1; stroke-width: 0px; fill: rgb(75, 0, 146); fill-opacity: 1;"/></g></g></g><rect class="legendtoggle" x="0" y="-9.5" width="96.703125" height="19" style="fill: rgb(0, 0, 0); fill-opacity: 0;"/></g></g><g class="groups" transform=""><g class="traces" transform="translate(0,51.7)" style="opacity: 1;"><text class="legendtext" text-anchor="start" x="40" y="4.680000000000001" style="font-family: 'Open Sans', verdana, arial, sans-serif; font-size: 12px; fill: rgb(42, 63, 95); fill-opacity: 1; white-space: pre;">hdf5-c</text><g class="layers" style="opacity: 1;"><g class="legendfill"/><g class="legendlines"><path class="js-line" d="M5,0h30" style="fill: none; stroke: rgb(17, 119, 51); stroke-opacity: 1; stroke-width: 2px;"/></g><g class="legendsymbols"><g class="legendpoints"><path class="scatterpts" transform="translate(20,0)" d="M3,0A3,3 0 1,1 0,-3A3,3 0 0,1 3,0Z" style="opacity: 1; stroke-width: 0px; fill: rgb(17, 119, 51); fill-opacity: 1;"/></g></g></g><rect class="legendtoggle" x="0" y="-9.5" width="96.703125" height="19" style="fill: rgb(0, 0, 0); fill-opacity: 0;"/></g></g></g><rect class="scrollbar" rx="20" ry="3" width="0" height="0" x="0" y="0" style="fill: rgb(128, 139, 164); fill-opacity: 1;"/></g><g class="g-gtitle"><text class="gtitle" x="45" y="50" text-anchor="start" dy="0em" style="opacity: 1; font-family: 'Open Sans', verdana, arial, sans-serif; font-size: 17px; fill: rgb(42, 63, 95); fill-opacity: 1; white-space: pre;">mean time in seconds (s)</text></g><g class="g-xtitle"><text class="xtitle" x="426" y="460.3" text-anchor="middle" style="opacity: 1; font-family: 'Open Sans', verdana, arial, sans-serif; font-size: 14px; fill: rgb(42, 63, 95); fill-opacity: 1; white-space: pre;">filesize per chunk</text></g><g class="g-ytitle"><text class="ytitle" transform="rotate(-90,44.31875,260)" x="44.31875" y="260" text-anchor="middle" style="opacity: 1; font-family: 'Open Sans', verdana, arial, sans-serif; font-size: 14px; fill: rgb(42, 63, 95); fill-opacity: 1; white-space: pre;">mean time</text></g></g></svg>