<svg class="main-svg" xmlns="http://www.w3.org/2000/svg" xmlns:xlink="http://www.w3.org/1999/xlink" width="900" height="500" style="" viewBox="0 0 900 500"><rect x="0" y="0" width="900" height="500" style="fill: rgb(255, 255, 255); fill-opacity: 1;"/><defs id="defs-7d94ff"><g class="clips"><clipPath id="clip7d94ffxyplot" class="plotclip"><rect width="609" height="320"/></clipPath><clipPath class="axesclip" id="clip7d94ffx"><rect x="80" y="0" width="609" height="500"/></clipPath><clipPath class="axesclip" id="clip7d94ffy"><rect x="0" y="100" width="900" height="320"/></clipPath><clipPath class="axesclip" id="clip7d94ffxy"><rect x="80" y="100" width="609" height="320"/></clipPath></g><g class="gradients"/><g class="patterns"/></defs><g class="bglayer"><rect class="bg" x="80" y="100" width="609" height="320" style="fill: rgb(229, 236, 246); fill-opacity: 1; stroke-width: 0;"/></g><g class="layer-below"><g class="imagelayer"/><g class="shapelayer"/></g><g class="cartesianlayer"><g class="subplot xy"><g class="layer-subplot"><g class="shapelayer"/><g class="imagelayer"/></g><g class="minor-gridlayer"><g class="x"/><g class="y"/></g><g class="gridlayer"><g class="x"><path class="xgrid crisp" transform="translate(114.2,0)" d="M0,100v320" style="stroke: rgb(255, 255, 255); stroke-opacity: 1; stroke-width: 1px;"/><path class="xgrid crisp" transform="translate(191.43,0)" d="M0,100v320" style="stroke: rgb(255, 255, 255); stroke-opacity: 1; stroke-width: 1px;"/><path class="xgrid crisp" transform="translate(268.65999999999997,0)" d="M0,100v320" style="stroke: rgb(255, 255, 255); stroke-opacity: 1; stroke-width: 1px;"/><path class="xgrid crisp" transform="translate(345.89,0)" d="M0,100v320" style="stroke: rgb(255, 255, 255); stroke-opacity: 1; stroke-width: 1px;"/><path class="xgrid crisp" transform="translate(423.11,0)" d="M0,100v320" style="stroke: rgb(255, 255, 255); stroke-opacity: 1; stroke-width: 1px;"/><path class="xgrid crisp" transform="translate(500.34,0)" d="M0,100v320" style="stroke: rgb(255, 255, 255); stroke-opacity: 1; stroke-width: 1px;"/><path class="xgrid crisp" transform="translate(577.5699999999999,0)" d="M0,100v320" style="stroke: rgb(255, 255, 255); stroke-opacity: 1; stroke-width: 1px;"/><path class="xgrid crisp" transform="translate(654.8,0)" d="M0,100v320" style="stroke: rgb(255, 255, 255); stroke-opacity: 1; stroke-width: 1px;"/></g><g class="y"><path class="ygrid crisp" transform="translate(0,383.39)" d="M80,0h609" style="stroke: rgb(255, 255, 255); stroke-opacity: 1; stroke-width: 1px;"/><path class="ygrid crisp" transform="translate(0,349.66999999999996)" d="M80,0h609" style="stroke: rgb(255, 255, 255); stroke-opacity: 1; stroke-width: 1px;"/><path class="ygrid crisp" transform="translate(0,317.99)" d="M80,0h609" style="stroke: rgb(255, 255, 255); stroke-opacity: 1; stroke-width: 1px;"/><path class="ygrid crisp" transform="translate(0,288.12)" d="M80,0h609" style="stroke: rgb(255, 255, 255); stroke-opacity: 1; stroke-width: 1px;"/><path class="ygrid crisp" transform="translate(0,259.86)" d="M80,0h609" style="stroke: rgb(255, 255, 255); stroke-opacity: 1; stroke-width: 1px;"/><path class="ygrid crisp" transform="translate(0,233.06)" d="M80,0h609" style="stroke: rgb(255, 255, 255); stroke-opacity: 1; stroke-width: 1px;"/><path class="ygrid crisp" transform="translate(0,207.56)" d="M80,0h609" style="stroke: rgb(255, 255, 255); stroke-opacity: 1; stroke-width: 1px;"/><path class="ygrid crisp" transform="translate(0,183.25)" d="M80,0h609" style="stroke: rgb(255, 255, 255); stroke-opacity: 1; stroke-width: 1px;"/><path class="ygrid crisp" transform="translate(0,160.02)" d="M80,0h609" style="stroke: rgb(255, 255, 255); stroke-opacity: 1; stroke-width: 1px;"/><path class="ygrid crisp" transform="translate(0,137.78)" d="M80,0h609" style="stroke: rgb(255, 255, 255); stroke-opacity: 1; stroke-width: 1px;"/><path class="ygrid crisp" transform="translate(0,116.45)" d="M80,0h609" style="stroke: rgb(255, 255, 255); stroke-opacity: 1; stroke-width: 1px;"/></g></g><g class="zerolinelayer"/><g class="layer-between"><g class="shapelayer"/><g class="imagelayer"/></g><path class="xlines-below"/><path class="ylines-below"/><g class="overlines-below"/><g class="xaxislayer-below"/><g class="yaxislayer-below"/><g class="overaxes-below"/><g class="overplot"><g class="xy" transform="translate(80,100)" clip-path="url(#clip7d94ffxyplot)"><g class="scatterlayer mlayer"><g class="trace scatter trace82f6fc" style="stroke-miterlimit: 2; opacity: 1;"><g class="fills"/><g class="errorbars"><g class="errorbar"><path class="yerror" d="M30.200000000000003,65.25h8m-4,0V181.96m-4,0h8" style="vector-effect: none; stroke-width: 2px; stroke: rgb(255, 176, 0); stroke-opacity: 1;"/></g><g class="errorbar"><path class="yerror" d="M107.43,155.61h8m-4,0V303.62m-4,0h8" style="vector-effect: none; stroke-width: 2px; stroke: rgb(255, 176, 0); stroke-opacity: 1;"/></g><g class="errorbar"><path class="yerror" d="M184.66,176.88h8m-4,0V250.35m-4,0h8" style="vector-effect: none; stroke-width: 2px; stroke: rgb(255, 176, 0); stroke-opacity: 1;"/></g><g class="errorbar"><path class="yerror" d="M261.89,200.59h8m-4,0V304m-4,0h8" style="vector-effect: none; stroke-width: 2px; stroke: rgb(255, 176, 0); stroke-opacity: 1;"/></g><g class="errorbar"><path class="yerror" d="M339.11,261.05h8m-4,0V279.31m-4,0h8" style="vector-effect: none; stroke-width: 2px; stroke: rgb(255, 176, 0); stroke-opacity: 1;"/></g><g class="errorbar"><path class="yerror" d="M416.34,115.85h8m-4,0V199.07m-4,0h8" style="vector-effect: none; stroke-width: 2px; stroke: rgb(255, 176, 0); stroke-opacity: 1;"/></g><g class="errorbar"><path class="yerror" d="M493.57,162.76h8m-4,0V208.68m-4,0h8" style="vector-effect: none; stroke-width: 2px; stroke: rgb(255, 176, 0); stroke-opacity: 1;"/></g><g class="errorbar"><path class="yerror" d="M570.8,262.23h8m-4,0V276.31m-4,0h8" style="vector-effect: none; stroke-width: 2px; stroke: rgb(255, 176, 0); stroke-opacity: 1;"/></g></g><g class="lines"><path class="js-line" d="M34.2,120.36L111.43,224.39L188.66,212.32L265.89,249.74L343.11,270.1L420.34,155.81L497.57,185.22L574.8,269.22" style="vector-effect: none; fill: none; stroke: rgb(255, 176, 0); stroke-opacity: 1; stroke-width: 2px; opacity: 1;"/></g><g class="points"><path class="point plotly-customdata" transform="translate(34.2,120.36)" d="M3,0A3,3 0 1,1 0,-3A3,3 0 0,1 3,0Z" style="opacity: 1; stroke-width: 0px; fill: rgb(255, 176, 0); fill-opacity: 1;"/><path class="point plotly-customdata" transform="translate(111.43,224.39)" d="M3,0A3,3 0 1,1 0,-3A3,3 0 0,1 3,0Z" style="opacity: 1; stroke-width: 0px; fill: rgb(255, 176, 0); fill-opacity: 1;"/><path class="point plotly-customdata" transform="translate(188.66,212.32)" d="M3,0A3,3 0 1,1 0,-3A3,3 0 0,1 3,0Z" style="opacity: 1; stroke-width: 0px; fill: rgb(255, 176, 0); fill-opacity: 1;"/><path class="point plotly-customdata" transform="translate(265.89,249.74)" d="M3,0A3,3 0 1,1 0,-3A3,3 0 0,1 3,0Z" style="opacity: 1; stroke-width: 0px; fill: rgb(255, 176, 0); fill-opacity: 1;"/><path class="point plotly-customdata" transform="translate(343.11,270.1)" d="M3,0A3,3 0 1,1 0,-3A3,3 0 0,1 3,0Z" style="opacity: 1; stroke-width: 0px; fill: rgb(255, 176, 0); fill-opacity: 1;"/><path class="point plotly-customdata" transform="translate(420.34,155.81)" d="M3,0A3,3 0 1,1 0,-3A3,3 0 0,1 3,0Z" style="opacity: 1; stroke-width: 0px; fill: rgb(255, 176, 0); fill-opacity: 1;"/><path class="point plotly-customdata" transform="translate(497.57,185.22)" d="M3,0A3,3 0 1,1 0,-3A3,3 0 0,1 3,0Z" style="opacity: 1; stroke-width: 0px; fill: rgb(255, 176, 0); fill-opacity: 1;"/><path class="point plotly-customdata" transform="translate(574.8,269.22)" d="M3,0A3,3 0 1,1 0,-3A3,3 0 0,1 3,0Z" style="opacity: 1; stroke-width: 0px; fill: rgb(255, 176, 0); fill-opacity: 1;"/></g><g class="text"/></g><g class="trace scatter tracec1ca9d" style="stroke-miterlimit: 2; opacity: 1;"><g class="fills"/><g class="errorbars"><g class="errorbar"><path class="yerror" d="M30.200000000000003,40.52h8m-4,0V123.69m-4,0h8" style="vector-effect: none; stroke-width: 2px; stroke: rgb(255, 68, 48); stroke-opacity: 1;"/></g><g class="errorbar"><path class="yerror" d="M107.43,16h8m-4,0V84.16m-4,0h8" style="vector-effect: none; stroke-width: 2px; stroke: rgb(255, 68, 48); stroke-opacity: 1;"/></g><g class="errorbar"><path class="yerror" d="M184.66,101.26h8m-4,0V182.07m-4,0h8" style="vector-effect: none; stroke-width: 2px; stroke: rgb(255, 68, 48); stroke-opacity: 1;"/></g><g class="errorbar"><path class="yerror" d="M261.89,134.35h8m-4,0V269.4m-4,0h8" style="vector-effect: none; stroke-width: 2px; stroke: rgb(255, 68, 48); stroke-opacity: 1;"/></g><g class="errorbar"><path class="yerror" d="M339.11,80.15h8m-4,0V135.23m-4,0h8" style="vector-effect: none; stroke-width: 2px; stroke: rgb(255, 68, 48); stroke-opacity: 1;"/></g><g class="errorbar"><path class="yerror" d="M416.34,43.94h8m-4,0V76.85m-4,0h8" style="vector-effect: none; stroke-width: 2px; stroke: rgb(255, 68, 48); stroke-opacity: 1;"/></g><g class="errorbar"><path class="yerror" d="M493.57,21.08h8m-4,0V48.45m-4,0h8" style="vector-effect: none; stroke-width: 2px; stroke: rgb(255, 68, 48); stroke-opacity: 1;"/></g><g class="errorbar"><path class="yerror" d="M570.8,16.57h8m-4,0V42.41m-4,0h8" style="vector-effect: none; stroke-width: 2px; stroke: rgb(255, 68, 48); stroke-opacity: 1;"/></g></g><g class="lines"><path class="js-line" d="M34.2,80.45L111.43,48.97L188.66,140.1L265.89,197.52L343.11,106.96L420.34,60.14L497.57,34.59L574.8,29.33" style="vector-effect: none; fill: none; stroke: rgb(255, 68, 48); stroke-opacity: 1; stroke-width: 2px; opacity: 1;"/></g><g class="points"><path class="point plotly-customdata" transform="translate(34.2,80.45)" d="M3,0A3,3 0 1,1 0,-3A3,3 0 0,1 3,0Z" style="opacity: 1; stroke-width: 0px; fill: rgb(255, 68, 48); fill-opacity: 1;"/><path class="point plotly-customdata" transform="translate(111.43,48.97)" d="M3,0A3,3 0 1,1 0,-3A3,3 0 0,1 3,0Z" style="opacity: 1; stroke-width: 0px; fill: rgb(255, 68, 48); fill-opacity: 1;"/><path class="point plotly-customdata" transform="translate(188.66,140.1)" d="M3,0A3,3 0 1,1 0,-3A3,3 0 0,1 3,0Z" style="opacity: 1; stroke-width: 0px; fill: rgb(255, 68, 48); fill-opacity: 1;"/><path class="point plotly-customdata" transform="translate(265.89,197.52)" d="M3,0A3,3 0 1,1 0,-3A3,3 0 0,1 3,0Z" style="opacity: 1; stroke-width: 0px; fill: rgb(255, 68, 48); fill-opacity: 1;"/><path class="point plotly-customdata" transform="translate(343.11,106.96)" d="M3,0A3,3 0 1,1 0,-3A3,3 0 0,1 3,0Z" style="opacity: 1; stroke-width: 0px; fill: rgb(255, 68, 48); fill-opacity: 1;"/><path class="point plotly-customdata" transform="translate(420.34,60.14)" d="M3,0A3,3 0 1,1 0,-3A3,3 0 0,1 3,0Z" style="opacity: 1; stroke-width: 0px; fill: rgb(255, 68, 48); fill-opacity: 1;"/><path class="point plotly-customdata" transform="translate(497.57,34.59)" d="M3,0A3,3 0 1,1 0,-3A3,3 0 0,1 3,0Z" style="opacity: 1; stroke-width: 0px; fill: rgb(255, 68, 48); fill-opacity: 1;"/><path class="point plotly-customdata" transform="translate(574.8,29.33)" d="M3,0A3,3 0 1,1 0,-3A3,3 0 0,1 3,0Z" style="opacity: 1; stroke-width: 0px; fill: rgb(255, 68, 48); fill-opacity: 1;"/></g><g class="text"/></g></g></g></g><path class="xlines-above crisp" d="M0,0" style="fill: none;"/><path class="ylines-above crisp" d="M0,0" style="fill: none;"/><g class="overlines-above"/><g class="xaxislayer-above"><g class="xtick"><text text-anchor="middle" x="0" y="433" transform="translate(114.2,0)" style="font-family: 'Open Sans', verdana, arial, sans-serif; font-size: 12px; fill: rgb(42, 63, 95); fill-opacity: 1; white-space: pre; opacity: 1;">None None</text></g><g class="xtick"><text text-anchor="middle" x="0" y="433" transform="translate(191.43,0)" style="font-family: 'Open Sans', verdana, arial, sans-serif; font-size: 12px; fill: rgb(42, 63, 95); fill-opacity: 1; white-space: pre; opacity: 1;">1280.0 MB</text></g><g class="xtick"><text text-anchor="middle" x="0" y="433" transform="translate(268.65999999999997,0)" style="font-family: 'Open Sans', verdana, arial, sans-serif; font-size: 12px; fill: rgb(42, 63, 95); fill-opacity: 1; white-space: pre; opacity: 1;">640.0 MB</text></g><g class="xtick"><text text-anchor="middle" x="0" y="433" transform="translate(345.89,0)" style="font-family: 'Open Sans', verdana, arial, sans-serif; font-size: 12px; fill: rgb(42, 63, 95); fill-opacity: 1; white-space: pre; opacity: 1;">320.0 MB</text></g><g class="xtick"><text text-anchor="middle" x="0" y="433" transform="translate(423.11,0)" style="font-family: 'Open Sans', verdana, arial, sans-serif; font-size: 12px; fill: rgb(42, 63, 95); fill-opacity: 1; white-space: pre; opacity: 1;">160.0 MB</text></g><g class="xtick"><text text-anchor="middle" x="0" y="433" transform="translate(500.34,0)" style="font-family: 'Open Sans', verdana, arial, sans-serif; font-size: 12px; fill: rgb(42, 63, 95); fill-opacity: 1; white-space: pre; opacity: 1;">80.0 MB</text></g><g class="xtick"><text text-anchor="middle" x="0" y="433" transform="translate(577.5699999999999,0)" style="font-family: 'Open Sans', verdana, arial, sans-serif; font-size: 12px; fill: rgb(42, 63, 95); fill-opacity: 1; white-space: pre; opacity: 1;">40.0 MB</text></g><g class="xtick"><text text-anchor="middle" x="0" y="433" transform="translate(654.8,0)" style="font-family: 'Open Sans', verdana, arial, sans-serif; font-size: 12px; fill: rgb(42, 63, 95); fill-opacity: 1; white-space: pre; opacity: 1;">20.0 MB</text></g></g><g class="yaxislayer-above"><g class="ytick"><text text-anchor="end" x="79" y="4.199999999999999" transform="translate(0,419.45)" style="font-family: 'Open Sans', verdana, arial, sans-serif; font-size: 12px; fill: rgb(42, 63, 95); fill-opacity: 1; white-space: pre; opacity: 1;">1.4</text></g><g class="ytick"><text text-anchor="end" x="79" y="4.199999999999999" style="font-family: 'Open Sans', verdana, arial, sans-serif; font-size: 12px; fill: rgb(42, 63, 95); fill-opacity: 1; white-space: pre; opacity: 1;" transform="translate(0,383.39)">1.5</text></g><g class="ytick"><text text-anchor="end" x="79" y="4.199999999999999" style="font-family: 'Open Sans', verdana, arial, sans-serif; font-size: 12px; fill: rgb(42, 63, 95); fill-opacity: 1; white-space: pre; opacity: 1;" transform="translate(0,349.66999999999996)">1.6</text></g><g class="ytick"><text text-anchor="end" x="79" y="4.199999999999999" style="font-family: 'Open Sans', verdana, arial, sans-serif; font-size: 12px; fill: rgb(42, 63, 95); fill-opacity: 1; white-space: pre; opacity: 1;" transform="translate(0,317.99)">1.7</text></g><g class="ytick"><text text-anchor="end" x="79" y="4.199999999999999" style="font-family: 'Open Sans', verdana, arial, sans-serif; font-size: 12px; fill: rgb(42, 63, 95); fill-opacity: 1; white-space: pre; opacity: 1;" transform="translate(0,288.12)">1.8</text></g><g class="ytick"><text text-anchor="end" x="79" y="4.199999999999999" style="font-family: 'Open Sans', verdana, arial, sans-serif; font-size: 12px; fill: rgb(42, 63, 95); fill-opacity: 1; white-space: pre; opacity: 1;" transform="translate(0,259.86)">1.9</text></g><g class="ytick"><text text-anchor="end" x="79" y="4.199999999999999" style="font-family: 'Open Sans', verdana, arial, sans-serif; font-size: 12px; fill: rgb(42, 63, 95); fill-opacity: 1; white-space: pre; opacity: 1;" transform="translate(0,233.06)">2</text></g><g class="ytick"><text text-anchor="end" x="79" y="4.199999999999999" style="font-family: 'Open Sans', verdana, arial, sans-serif; font-size: 12px; fill: rgb(42, 63, 95); fill-opacity: 1; white-space: pre; opacity: 1;" transform="translate(0,207.56)">2.1</text></g><g class="ytick"><text text-anchor="end" x="79" y="4.199999999999999" style="font-family: 'Open Sans', verdana, arial, sans-serif; font-size: 12px; fill: rgb(42, 63, 95); fill-opacity: 1; white-space: pre; opacity: 1;" transform="translate(0,183.25)">2.2</text></g><g class="ytick"><text text-anchor="end" x="79" y="4.199999999999999" style="font-family: 'Open Sans', verdana, arial, sans-serif; font-size: 12px; fill: rgb(42, 63, 95); fill-opacity: 1; white-space: pre; opacity: 1;" transform="translate(0,160.02)">2.3</text></g><g class="ytick"><text text-anchor="end" x="79" y="4.199999999999999" style="font-family: 'Open Sans', verdana, arial, sans-serif; font-size: 12px; fill: rgb(42, 63, 95); fill-opacity: 1; white-space: pre; opacity: 1;" transform="translate(0,137.78)">2.4</text></g><g class="ytick"><text text-anchor="end" x="79" y="4.199999999999999" style="font-family: 'Open Sans', verdana, arial, sans-serif; font-size: 12px; fill: rgb(42, 63, 95); fill-opacity: 1; white-space: pre; opacity: 1;" transform="translate(0,116.45)">2.5</text></g></g><g class="overaxes-above"/></g></g><g class="polarlayer"/><g class="smithlayer"/><g class="ternarylayer"/><g class="geolayer"/><g class="funnelarealayer"/><g class="pielayer"/><g class="iciclelayer"/><g class="treemaplayer"/><g class="sunburstlayer"/><g class="glimages"/><defs id="topdefs-7d94ff"><g class="clips"/><clipPath id="legend7d94ff"><rect width="187" height="67" x="0" y="0"/></clipPath></defs><g class="layer-above"><g class="imagelayer"/><g class="shapelayer"/></g><g class="infolayer"><g class="legend" pointer-events="all" transform="translate(701.1800000000001,100)"><rect class="bg" shape-rendering="crispEdges" width="187" height="67" x="0" y="0" style="stroke: rgb(68, 68, 68); stroke-opacity: 1; fill: rgb(255, 255, 255); fill-opacity: 1; stroke-width: 0px;"/><g class="scrollbox" transform="" clip-path="url(#legend7d94ff)"><text class="legendtitletext" text-anchor="start" x="2" y="18.2" style="font-family: 'Open Sans', verdana, arial, sans-serif; font-size: 14px; fill: rgb(42, 63, 95); fill-opacity: 1; white-space: pre;">engine</text><g class="groups" transform=""><g class="traces" transform="translate(0,32.7)" style="opacity: 1;"><text class="legendtext" text-anchor="start" x="40" y="4.680000000000001" style="font-family: 'Open Sans', verdana, arial, sans-serif; font-size: 12px; fill: rgb(42, 63, 95); fill-opacity: 1; white-space: pre;">netcdf4-python-parallel</text><g class="layers" style="opacity: 1;"><g class="legendfill"/><g class="legendlines"><path class="js-line" d="M5,0h30" style="fill: none; stroke: rgb(255, 176, 0); stroke-opacity: 1; stroke-width: 2px;"/></g><g class="legendsymbols"><g class="legendpoints"><path class="scatterpts" transform="translate(20,0)" d="M3,0A3,3 0 1,1 0,-3A3,3 0 0,1 3,0Z" style="opacity: 1; stroke-width: 0px; fill: rgb(255, 176, 0); fill-opacity: 1;"/></g></g></g><rect class="legendtoggle" x="0" y="-9.5" width="181.046875" height="19" style="fill: rgb(0, 0, 0); fill-opacity: 0;"/></g></g><g class="groups" transform=""><g class="traces" transform="translate(0,51.7)" style="opacity: 1;"><text class="legendtext" text-anchor="start" x="40" y="4.680000000000001" style="font-family: 'Open Sans', verdana, arial, sans-serif; font-size: 12px; fill: rgb(42, 63, 95); fill-opacity: 1; white-space: pre;">hdf5-python-parallel</text><g class="layers" style="opacity: 1;"><g class="legendfill"/><g class="legendlines"><path class="js-line" d="M5,0h30" style="fill: none; stroke: rgb(255, 68, 48); stroke-opacity: 1; stroke-width: 2px;"/></g><g class="legendsymbols"><g class="legendpoints"><path class="scatterpts" transform="translate(20,0)" d="M3,0A3,3 0 1,1 0,-3A3,3 0 0,1 3,0Z" style="opacity: 1; stroke-width: 0px; fill: rgb(255, 68, 48); fill-opacity: 1;"/></g></g></g><rect class="legendtoggle" x="0" y="-9.5" width="181.046875" height="19" style="fill: rgb(0, 0, 0); fill-opacity: 0;"/></g></g></g><rect class="scrollbar" rx="20" ry="3" width="0" height="0" x="0" y="0" style="fill: rgb(128, 139, 164); fill-opacity: 1;"/></g><g class="g-gtitle"><text class="gtitle" x="45" y="50" text-anchor="start" dy="0em" style="opacity: 1; font-family: 'Open Sans', verdana, arial, sans-serif; font-size: 17px; fill: rgb(42, 63, 95); fill-opacity: 1; white-space: pre;">mean time in seconds (s)</text></g><g class="g-xtitle"><text class="xtitle" x="384.5" y="460.3" text-anchor="middle" style="opacity: 1; font-family: 'Open Sans', verdana, arial, sans-serif; font-size: 14px; fill: rgb(42, 63, 95); fill-opacity: 1; white-space: pre;">filesize per chunk</text></g><g class="g-ytitle"><text class="ytitle" transform="rotate(-90,40.50625,260)" x="40.50625" y="260" text-anchor="middle" style="opacity: 1; font-family: 'Open Sans', verdana, arial, sans-serif; font-size: 14px; fill: rgb(42, 63, 95); fill-opacity: 1; white-space: pre;">mean time</text></g></g></svg>